<?xml version="1.0" encoding="utf-8"?>
<!-- Generator: Adobe Illustrator 28.2.0, SVG Export Plug-In . SVG Version: 6.00 Build 0)  -->
<svg version="1.1" id="Layer_1" xmlns="http://www.w3.org/2000/svg" xmlns:xlink="http://www.w3.org/1999/xlink" x="0px" y="0px"
	 viewBox="0 0 32 32" style="enable-background:new 0 0 32 32;" xml:space="preserve">
<style type="text/css">
	.st0{fill:#FF009D;}
</style>
<path class="st0" d="M16,28l-1.9-1.7c-2.2-2-4.1-3.8-5.6-5.2c-1.5-1.5-2.6-2.8-3.5-4s-1.5-2.2-1.8-3.2s-0.5-2-0.5-3
	c0-2.1,0.7-3.8,2.1-5.2S7.9,3.5,10,3.5c1.2,0,2.3,0.2,3.3,0.7s1.9,1.2,2.7,2.1c0.8-0.9,1.7-1.6,2.7-2.1s2.1-0.7,3.3-0.7
	c2.1,0,3.8,0.7,5.2,2.1c1.4,1.4,2.1,3.1,2.1,5.2c0,1-0.2,2-0.5,3s-0.9,2-1.8,3.2s-2,2.5-3.5,4s-3.3,3.2-5.6,5.2L16,28z"/>
</svg>
