<?xml version="1.0" encoding="utf-8"?>
<!-- Generator: Adobe Illustrator 28.2.0, SVG Export Plug-In . SVG Version: 6.00 Build 0)  -->
<svg version="1.1" id="Layer_1" xmlns="http://www.w3.org/2000/svg" xmlns:xlink="http://www.w3.org/1999/xlink" x="0px" y="0px"
	 viewBox="0 0 32 32" style="enable-background:new 0 0 32 32;" xml:space="preserve">
<style type="text/css">
	.st0{fill:#E11B22;}
	.st1{fill:#D7BC2A;}
</style>
<path class="st0" d="M24,12c-1.1,0-2.1-0.4-2.8-1.2C20.4,10.1,20,9.1,20,8s0.4-2.1,1.2-2.8S22.9,4,24,4c1.1,0,2.1,0.4,2.8,1.2
	S28,6.9,28,8s-0.4,2.1-1.2,2.8C26.1,11.6,25.1,12,24,12"/>
<path class="st1" d="M16,29.3c-0.7,0-1.4-0.3-1.9-0.8c-0.5-0.5-0.8-1.1-0.8-1.9h5.3c0,0.7-0.3,1.4-0.8,1.9
	C17.4,29.1,16.7,29.3,16,29.3 M6.7,25.3c-0.4,0-0.7-0.1-0.9-0.4c-0.3-0.3-0.4-0.6-0.4-0.9c0-0.4,0.1-0.7,0.4-0.9
	c0.3-0.3,0.6-0.4,0.9-0.4H8v-9.3c0-1.8,0.6-3.5,1.7-4.9S12.2,6,14,5.6V4.7c0-0.6,0.2-1,0.6-1.4C15,2.9,15.4,2.7,16,2.7
	c0.6,0,1,0.2,1.4,0.6S18,4.1,18,4.7v0.4c-0.2,0.4-0.4,0.9-0.5,1.4s-0.2,1-0.2,1.5c0,1.8,0.7,3.4,2,4.7c1.3,1.3,2.9,2,4.7,1.9v8h1.3
	c0.4,0,0.7,0.1,1,0.4c0.3,0.3,0.4,0.6,0.4,0.9c0,0.4-0.1,0.7-0.4,1c-0.3,0.3-0.6,0.4-0.9,0.4H6.7z"/>
</svg>
