<?xml version="1.0" encoding="iso-8859-1"?>
<!-- Uploaded to: SVG Repo, www.svgrepo.com, Generator: SVG Repo Mixer Tools -->
<svg version="1.1" id="Layer_1" xmlns="http://www.w3.org/2000/svg" xmlns:xlink="http://www.w3.org/1999/xlink" 
	 viewBox="0 0 496 496" xml:space="preserve">
<path style="fill:#F9B800;" d="M294.4,76.8C290.4,70.4,284,64,276,64h-12v-7.2c8-6.4,11.2-16,11.2-27.2c0-18.4-12-29.6-27.2-29.6
	c-15.2,0-27.2,11.2-27.2,29.6c0,11.2,3.2,20.8,11.2,27.2V64h-12c-8,0-14.4,6.4-18.4,12.8c-14.4,2.4-25.6,16.8-25.6,32v44.8
	c0,14.4,8,26.4,24,29.6v52c0,10.4,7.2,19.2,17.6,21.6L224,360c0,8,5.6,16,13.6,16h21.6c8,0,13.6-8,13.6-16l6.4-103.2
	c10.4-1.6,17.6-11.2,17.6-22.4v-52c16-3.2,24-15.2,24-29.6V108C320,93.6,308.8,79.2,294.4,76.8z"/>
<path style="fill:#EDA503;" d="M294.4,76.8C290.4,70.4,284,64,276,64h-12v-7.2c8-6.4,11.2-16,11.2-27.2c0-18.4-12-29.6-27.2-29.6
	c-15.2,0-27.2,11.2-27.2,29.6c0,11.2,3.2,20.8,11.2,27.2V64h-12c-8,0-14.4,6.4-18.4,12.8c-14.4,2.4-25.6,16.8-25.6,32v44.8
	c0,14.4,9.6,26.4,22.4,29.6l8,52c0,10.4,8,19.2,17.6,21.6l14.4,104c0,8-9.6,16-2.4,16h21.6c8,0,13.6-8,13.6-16l6.4-103.2
	c10.4-1.6,17.6-11.2,17.6-22.4v-52c16-3.2,24-15.2,24-29.6v-44.8C320,93.6,308.8,79.2,294.4,76.8z"/>
<path style="fill:#516865;" d="M320,412c0,10.4-11.2,20-21.6,20H197.6c-10.4,0-21.6-9.6-21.6-20v-45.6c0-10.4,11.2-22.4,21.6-22.4
	h100.8c10.4,0,21.6,11.2,21.6,22.4V412L320,412z"/>
<path style="fill:#435E5A;" d="M178.4,364.8c0-10.4,8.8-20.8,19.2-20.8h100.8c10.4,0,21.6,11.2,21.6,22.4V412
	c0,10.4-9.6,18.4-20.8,18.4"/>
<path style="fill:#353F3E;" d="M376,461.6c0,19.2-2.4,34.4-21.6,34.4H141.6c-19.2,0-21.6-15.2-21.6-34.4V452
	c0-19.2,18.4-35.2,37.6-35.2h180.8c19.2,0,37.6,16,37.6,35.2V461.6L376,461.6z"/>
<path style="fill:#111615;" d="M160,416h178.4c19.2,0,37.6,16,37.6,35.2v9.6c0,19.2,0,34.4-18.4,34.4"/>
<path style="fill:#EA9206;" d="M294.4,76.8C290.4,70.4,284,64,276,64h-12v-7.2c8-6.4,11.2-16,11.2-27.2c0-18.4-12-29.6-27.2-29.6
	c-15.2,0-27.2,11.2-27.2,29.6c0,11.2,3.2,20.8,11.2,27.2V64h-12c-8,0-14.4,6.4-18.4,12.8c-14.4,2.4-25.6,16.8-25.6,32v41.6L280,256
	c9.6-2.4,16-10.4,16-20.8v-52c16-3.2,24-15.2,24-29.6v-44.8C320,93.6,308.8,79.2,294.4,76.8z"/>
<rect x="176" y="376" style="fill:#F9B800;" width="144" height="24"/>
<polyline style="fill:#EDA503;" points="320,400 320,376 176,376 "/>
</svg>