<?xml version="1.0" encoding="utf-8"?>
<!-- Generator: Adobe Illustrator 28.0.0, SVG Export Plug-In . SVG Version: 6.00 Build 0)  -->
<svg version="1.1" id="Layer_1" xmlns="http://www.w3.org/2000/svg" xmlns:xlink="http://www.w3.org/1999/xlink" x="0px" y="0px"
	 viewBox="0 0 110 110" style="enable-background:new 0 0 110 110;" xml:space="preserve">
<style type="text/css">
	.st0{fill:#F4A10C;}
</style>
<g>
	<g>
		<path class="st0" d="M14.7,15.7c0-3.2-2.6-5.7-5.7-5.7s-5.7,2.5-5.7,5.7c0,3.1,2.5,5.7,5.7,5.7C12.1,21.3,14.7,18.8,14.7,15.7z"/>
		<path class="st0" d="M9,34.4c3.1,0,5.6-2.5,5.6-5.6s-2.5-5.7-5.6-5.7s-5.7,2.5-5.7,5.7C3.4,31.9,5.9,34.4,9,34.4z"/>
		<path class="st0" d="M22.1,34.4c3.1,0,5.7-2.5,5.7-5.6s-2.5-5.7-5.7-5.7c-3.1,0-5.7,2.5-5.7,5.7C16.5,31.9,19,34.4,22.1,34.4z"/>
		<path class="st0" d="M9,47.5c3.1,0,5.6-2.5,5.6-5.7c0-3.1-2.5-5.6-5.6-5.6s-5.7,2.5-5.7,5.6C3.4,45,5.9,47.5,9,47.5z"/>
		<path class="st0" d="M16.5,41.9c0,3.1,2.5,5.7,5.7,5.7c3.1,0,5.7-2.5,5.7-5.7c0-3.1-2.5-5.6-5.7-5.6C19,36.2,16.5,38.8,16.5,41.9z
			"/>
		<path class="st0" d="M35.3,47.5c3.1,0,5.6-2.5,5.6-5.7c0-3.1-2.5-5.6-5.6-5.6s-5.7,2.5-5.7,5.6C29.6,45,32.1,47.5,35.3,47.5z"/>
		<path class="st0" d="M9,49.4c-3.1,0-5.7,2.5-5.7,5.6s2.5,5.6,5.7,5.6c3.1,0,5.6-2.5,5.6-5.6C14.7,51.9,12.1,49.4,9,49.4z"/>
		<circle class="st0" cx="22.1" cy="55" r="5.7"/>
		<path class="st0" d="M35.3,49.4c-3.1,0-5.7,2.5-5.7,5.6s2.5,5.6,5.6,5.6s5.7-2.5,5.7-5.6C40.9,51.9,38.4,49.4,35.3,49.4z"/>
		<path class="st0" d="M48.4,60.7c3.1,0,5.6-2.5,5.6-5.6s-2.5-5.6-5.6-5.6s-5.7,2.5-5.7,5.6C42.7,58.1,45.3,60.7,48.4,60.7z"/>
		<path class="st0" d="M9,62.5c-3.1,0-5.7,2.5-5.7,5.7c0,3.1,2.5,5.6,5.7,5.6c3.1,0,5.6-2.5,5.6-5.6C14.7,65,12.1,62.5,9,62.5z"/>
		<circle class="st0" cx="22.1" cy="68.1" r="5.7"/>
		<path class="st0" d="M29.6,68.1c0,3.1,2.5,5.6,5.7,5.6c3.1,0,5.6-2.5,5.6-5.6s-2.5-5.7-5.7-5.7C32.1,62.5,29.6,65,29.6,68.1z"/>
		<path class="st0" d="M9,75.6c-3.1,0-5.7,2.5-5.7,5.6s2.5,5.6,5.7,5.6c3.1,0,5.6-2.5,5.6-5.6C14.7,78.1,12.1,75.6,9,75.6z"/>
		<path class="st0" d="M16.5,81.2c0,3.1,2.5,5.6,5.7,5.6c3.1,0,5.7-2.5,5.7-5.6s-2.5-5.6-5.7-5.6S16.5,78.1,16.5,81.2z"/>
		<path class="st0" d="M3.4,94.3c0,3.1,2.5,5.7,5.7,5.7c3.1,0,5.6-2.5,5.6-5.7c0-3.1-2.5-5.6-5.6-5.6C5.9,88.7,3.4,91.2,3.4,94.3z"
			/>
	</g>
</g>
<g>
	<g>
		<path class="st0" d="M67.4,15.7c0-3.2-2.6-5.7-5.7-5.7c-3.1,0-5.7,2.5-5.7,5.7c0,3.1,2.5,5.7,5.7,5.7
			C64.8,21.3,67.4,18.8,67.4,15.7z"/>
		<path class="st0" d="M61.7,34.4c3.1,0,5.6-2.5,5.6-5.6s-2.5-5.7-5.6-5.7c-3.1,0-5.7,2.5-5.7,5.7C56.1,31.9,58.6,34.4,61.7,34.4z"
			/>
		<path class="st0" d="M74.8,34.4c3.1,0,5.7-2.5,5.7-5.6s-2.5-5.7-5.7-5.7c-3.1,0-5.7,2.5-5.7,5.7C69.2,31.9,71.7,34.4,74.8,34.4z"
			/>
		<path class="st0" d="M61.7,47.5c3.1,0,5.6-2.5,5.6-5.7c0-3.1-2.5-5.6-5.6-5.6c-3.1,0-5.7,2.5-5.7,5.6C56.1,45,58.6,47.5,61.7,47.5
			z"/>
		<path class="st0" d="M69.2,41.9c0,3.1,2.5,5.7,5.7,5.7c3.1,0,5.7-2.5,5.7-5.7c0-3.1-2.5-5.6-5.7-5.6
			C71.7,36.2,69.2,38.8,69.2,41.9z"/>
		<path class="st0" d="M88,47.5c3.1,0,5.6-2.5,5.6-5.7c0-3.1-2.5-5.6-5.6-5.6s-5.7,2.5-5.7,5.6C82.3,45,84.8,47.5,88,47.5z"/>
		<path class="st0" d="M61.7,49.4c-3.1,0-5.7,2.5-5.7,5.6s2.5,5.6,5.7,5.6c3.1,0,5.6-2.5,5.6-5.6C67.4,51.9,64.8,49.4,61.7,49.4z"/>
		<circle class="st0" cx="74.8" cy="55" r="5.7"/>
		<path class="st0" d="M88,49.4c-3.1,0-5.7,2.5-5.7,5.6s2.5,5.6,5.6,5.6s5.7-2.5,5.7-5.6S91.1,49.4,88,49.4z"/>
		<path class="st0" d="M101.1,60.7c3.1,0,5.6-2.5,5.6-5.6s-2.5-5.6-5.6-5.6s-5.7,2.5-5.7,5.6C95.4,58.1,98,60.7,101.1,60.7z"/>
		<path class="st0" d="M61.7,62.5c-3.1,0-5.7,2.5-5.7,5.7c0,3.1,2.5,5.6,5.7,5.6c3.1,0,5.6-2.5,5.6-5.6C67.4,65,64.8,62.5,61.7,62.5
			z"/>
		<circle class="st0" cx="74.8" cy="68.1" r="5.7"/>
		<path class="st0" d="M82.3,68.1c0,3.1,2.5,5.6,5.7,5.6c3.1,0,5.6-2.5,5.6-5.6s-2.5-5.7-5.7-5.7C84.8,62.5,82.3,65,82.3,68.1z"/>
		<path class="st0" d="M61.7,75.6c-3.1,0-5.7,2.5-5.7,5.6s2.5,5.6,5.7,5.6c3.1,0,5.6-2.5,5.6-5.6C67.4,78.1,64.8,75.6,61.7,75.6z"/>
		<path class="st0" d="M69.2,81.2c0,3.1,2.5,5.6,5.7,5.6c3.1,0,5.7-2.5,5.7-5.6s-2.5-5.6-5.7-5.6C71.7,75.6,69.2,78.1,69.2,81.2z"/>
		<path class="st0" d="M56.1,94.3c0,3.1,2.5,5.7,5.7,5.7c3.1,0,5.6-2.5,5.6-5.7c0-3.1-2.5-5.6-5.6-5.6
			C58.6,88.7,56.1,91.2,56.1,94.3z"/>
	</g>
</g>
</svg>
