<?xml version="1.0" encoding="utf-8"?>
<!-- Generator: Adobe Illustrator 28.0.0, SVG Export Plug-In . SVG Version: 6.00 Build 0)  -->
<svg version="1.1"
	 id="Layer_1" xmlns:rdf="http://www.w3.org/1999/02/22-rdf-syntax-ns#" xmlns:dc="http://purl.org/dc/elements/1.1/" xmlns:svg="http://www.w3.org/2000/svg" xmlns:sodipodi="http://sodipodi.sourceforge.net/DTD/sodipodi-0.dtd" xmlns:cc="http://creativecommons.org/ns#" xmlns:inkscape="http://www.inkscape.org/namespaces/inkscape"
	 xmlns="http://www.w3.org/2000/svg" xmlns:xlink="http://www.w3.org/1999/xlink" x="0px" y="0px" viewBox="0 0 100 100"
	 style="enable-background:new 0 0 100 100;" xml:space="preserve">
<style type="text/css">
	.st0{fill:#F4A10C;}
	.st1{display:none;fill:#F4A10C;}
</style>
<g transform="translate(0,-952.36218)">
	<path class="st0" d="M1.4,1011.9c0,5.4,4.3,9.8,9.7,9.8s9.8-4.3,9.8-9.7c0-0.9-0.1-1.8-0.4-2.6l18.4-5.4c1.4,2.8,3.7,5,6.4,6.5
		l-14.8,27.3c-1-0.5-2.1-0.8-3.3-0.8c-4.2,0-7.6,3.4-7.6,7.5c0,4.2,3.4,7.6,7.5,7.6s7.6-3.4,7.6-7.5c0-2.2-0.9-4.2-2.4-5.6l15-27.6
		c1.5,0.5,3.2,0.8,4.9,0.8c2.1,0,4.2-0.4,6-1.2l5.4,16.4c-3.6,1.7-6.1,5.4-6.1,9.7c0,6,4.8,10.8,10.8,10.9c6,0,10.8-4.8,10.9-10.8
		c0-6-4.8-10.8-10.8-10.9c-0.9,0-1.8,0.1-2.7,0.4l-5.5-16.7c4.3-2.6,7.2-7.4,7.3-12.8c0-3.8-1.4-7.2-3.7-9.9l13.5-13.3
		c2.1,1.7,4.7,2.8,7.6,2.8c6.6,0,11.9-5.3,12-11.8c0-6.6-5.3-11.9-11.8-12c-6.6,0-11.9,5.3-12,11.8c0,2.9,1,5.5,2.7,7.6l-13.4,13.3
		c-2.6-2.3-6.1-3.7-9.9-3.7c-2.7,0-5.2,0.7-7.3,1.9l-14.5-15.6c0.9-1.4,1.4-3,1.4-4.7c0-4.8-3.8-8.7-8.6-8.7s-8.7,3.8-8.7,8.6
		c0,4.8,3.8,8.7,8.6,8.7c2.2,0,4.3-0.8,5.8-2.2l14.1,15.2c-3.6,2.8-6,7.1-6,12c0,1.7,0.3,3.4,0.9,5l-18.3,5.4
		c-1.6-3-4.9-5.1-8.5-5.1C5.8,1002.2,1.4,1006.5,1.4,1011.9L1.4,1011.9z"/>
</g>
<path class="st1" d="M61.7,39.5h-0.5c-0.1-0.8-0.2-1.6-0.4-2.3v-2.3c0-5.2-4.2-9.4-9.4-9.4h-2.6c-0.7-0.2-1.3-0.3-2-0.4v-0.5
	c0-0.7-0.6-1.3-1.3-1.3h-0.9c-0.7,0-1.3,0.6-1.3,1.3v0.5c-0.7,0.1-1.4,0.2-2,0.4h-2.5c-5.2,0-9.4,4.2-9.4,9.4v2.3
	c-0.2,0.8-0.3,1.6-0.4,2.4h-0.5c-0.7,0-1.3,0.6-1.3,1.3v0.9c0,0.7,0.6,1.3,1.3,1.3h0.5c0.1,0.8,0.2,1.6,0.4,2.4v2.2
	c0,5.2,4.2,9.4,9.4,9.4h1.9c0.9,0.2,1.8,0.4,2.7,0.5V58c0,0.7,0.6,1.3,1.3,1.3h0.9c0.7,0,1.3-0.6,1.3-1.3v-0.5
	c0.9-0.1,1.8-0.3,2.6-0.5h2c5.2,0,9.4-4.2,9.4-9.4v-2.2c0.2-0.8,0.3-1.5,0.4-2.4h0.5c0.7,0,1.3-0.6,1.3-1.3v-0.9
	C63.1,40.1,62.5,39.5,61.7,39.5z M28.3,42.2c-0.2,0-0.4-0.2-0.4-0.4v-0.9c0-0.2,0.2-0.4,0.4-0.4h0.4c0,0.3,0,0.6,0,0.9
	c0,0.3,0,0.6,0,0.9H28.3z M36.7,36.3c-0.9,1.5-1.4,3.2-1.4,5c0,1.9,0.5,3.6,1.4,5.1l-4.2,4.2c-1.9-2.6-3.1-5.8-3.1-9.2
	c0-3.4,1.1-6.5,3-9.2L36.7,36.3z M33.1,31.4c0.6-0.7,1.2-1.3,1.9-1.9l4.1,4.1c-0.4,0.3-0.7,0.6-1,0.9c-0.3,0.3-0.6,0.7-0.9,1
	L33.1,31.4z M37.3,47.1c0.5,0.7,1.2,1.4,1.9,1.9l-4.1,4.1c-0.7-0.6-1.3-1.2-1.9-1.9L37.3,47.1z M36.2,41.3c0-4.8,3.9-8.8,8.8-8.8
	c0,0,0,0,0,0c2.3,0,4.5,0.9,6.2,2.6c1.7,1.7,2.6,3.9,2.6,6.2c0,4.8-3.9,8.8-8.8,8.8c0,0,0,0,0,0C40.1,50.1,36.2,46.1,36.2,41.3z
	 M50.8,33.6l4.1-4.1c0.7,0.6,1.3,1.2,1.9,1.9l-4.1,4.1c-0.3-0.4-0.6-0.7-0.9-1C51.5,34.1,51.2,33.8,50.8,33.6z M52.7,47.1l4.1,4.1
	c-0.6,0.7-1.2,1.3-1.9,1.9L50.8,49C51.5,48.5,52.2,47.9,52.7,47.1z M53.3,46.4c0.9-1.5,1.4-3.2,1.4-5c0-1.8-0.5-3.6-1.4-5.1l4.2-4.2
	c1.9,2.6,3.1,5.8,3.1,9.2c0,3.4-1.1,6.6-3.1,9.2L53.3,46.4z M59.9,34.6c-0.6-1.2-1.3-2.4-2.1-3.4c0,0,0,0,0-0.1
	c-0.8-1-1.7-1.9-2.6-2.6c0,0,0,0-0.1,0c-1.1-0.9-2.3-1.6-3.6-2.2C56.1,26.4,59.8,30.1,59.9,34.6z M44.1,24.6c0-0.2,0.2-0.4,0.4-0.4
	h0.9c0.2,0,0.4,0.2,0.4,0.4V25c-0.3,0-0.6,0-0.9,0c0,0,0,0,0,0c-0.3,0-0.6,0-0.9,0C44.1,25,44.1,24.6,44.1,24.6z M45,25.9
	C45,25.9,45,25.9,45,25.9c3.5,0,6.6,1.1,9.2,3.1l-4.2,4.2c-1.5-0.9-3.2-1.4-5-1.4c0,0,0,0,0,0c-1.8,0-3.6,0.5-5.1,1.4l-4.2-4.2
	C38.4,26.9,41.6,25.9,45,25.9z M38.5,26.3c-1.8,0.8-3.5,2-5,3.4c-1.4,1.4-2.6,3.1-3.4,4.9C30.2,30,33.9,26.4,38.5,26.3z M30.1,48
	c0.8,1.8,1.9,3.4,3.3,4.8c1.4,1.4,3,2.5,4.7,3.3C33.8,55.9,30.3,52.4,30.1,48z M45.9,58c0,0.2-0.2,0.4-0.4,0.4h-0.9
	c-0.2,0-0.4-0.2-0.4-0.4v-0.4c0.3,0,0.6,0,0.9,0c0,0,0,0,0,0c0.3,0,0.6,0,0.9,0V58z M45,56.8C45,56.8,45,56.8,45,56.8
	c-3.5,0-6.6-1.1-9.2-3.1l4.2-4.2c1.5,0.9,3.2,1.4,5,1.4c0,0,0,0,0,0c1.9,0,3.6-0.5,5.1-1.4l4.2,4.2C51.6,55.6,48.4,56.8,45,56.8z
	 M51.9,56.1c1.2-0.5,2.2-1.2,3.2-2c0,0,0,0,0.1,0c1-0.8,1.9-1.7,2.6-2.6c0,0,0,0,0-0.1c0.8-1,1.5-2.2,2.1-3.4
	C59.7,52.4,56.2,55.9,51.9,56.1z M62.2,41.8c0,0.2-0.2,0.4-0.4,0.4h-0.4c0-0.3,0-0.6,0-0.9c0-0.3,0-0.6,0-0.9h0.4
	c0.2,0,0.4,0.2,0.4,0.4V41.8z"/>
</svg>
