<?xml version="1.0" encoding="utf-8"?>
<!-- Generator: Adobe Illustrator 28.1.0, SVG Export Plug-In . SVG Version: 6.00 Build 0)  -->
<svg version="1.1" id="Layer_1" xmlns="http://www.w3.org/2000/svg" xmlns:xlink="http://www.w3.org/1999/xlink" x="0px" y="0px"
	 viewBox="0 0 32 32" style="enable-background:new 0 0 32 32;" xml:space="preserve">
<style type="text/css">
	.st0{fill:#F4A10C;}
</style>
<path class="st0" d="M14.6,1.4C14.2,1.8,14,2.3,14,2.8V4H4C2.9,4,2,4.9,2,6v4c0,1.1,0.9,2,2,2h10v2H5c-0.6,0-1.2,0.3-1.6,0.8l-2,2.6
	c-0.3,0.4-0.3,0.8,0,1.2l2,2.6C3.8,21.7,4.4,22,5,22h9v10h4V22h10c1.1,0,2-0.9,2-2v-4c0-1.1-0.9-2-2-2H18v-2h9
	c0.6,0,1.2-0.3,1.6-0.8l2-2.6c0.3-0.4,0.3-0.8,0-1.2l-2-2.6C28.2,4.3,27.6,4,27,4h-9V2.8c0-1.1-0.9-2-2-2C15.5,0.8,15,1,14.6,1.4"/>
</svg>
