<?xml version="1.0" encoding="utf-8"?>
<!-- Generator: Adobe Illustrator 28.0.0, SVG Export Plug-In . SVG Version: 6.00 Build 0)  -->
<svg version="1.1" id="Layer_1" xmlns="http://www.w3.org/2000/svg" xmlns:xlink="http://www.w3.org/1999/xlink" x="0px" y="0px"
	 viewBox="0 0 100 100" style="enable-background:new 0 0 100 100;" xml:space="preserve">
<style type="text/css">
	.st0{display:none;}
	.st1{display:inline;}
	.st2{display:inline;fill:none;}
	.st3{fill:#F4A10C;}
</style>
<g class="st0">
	<path class="st1" d="M60.7,31.4c2.2-2.2,5.6,1.2,3.4,3.4c-4.2,4.2-8.3,8.3-12.5,12.5c-0.9,0.9-2.5,0.9-3.4,0
		C44,43.1,39.9,39,35.7,34.8c-2.2-2.2,1.2-5.6,3.4-3.4c3.6,3.6,7.2,7.2,10.8,10.8C53.5,38.6,57.1,35,60.7,31.4z M54.4,32.3
		c0-2.5-2-4.5-4.5-4.5c-2.5,0-4.5,2-4.5,4.5c0,2.5,2,4.5,4.5,4.5C52.4,36.8,54.4,34.8,54.4,32.3z M54.4,1.9c0-2.5-2-4.5-4.5-4.5
		c-2.5,0-4.5,2-4.5,4.5s2,4.5,4.5,4.5C52.4,6.4,54.4,4.4,54.4,1.9z M54.4,12.6c0-2.5-2-4.5-4.5-4.5c-2.5,0-4.5,2-4.5,4.5H54.4z
		 M45.4,21c0,2.5,2,4.5,4.5,4.5c2.5,0,4.5-2,4.5-4.5H45.4z M90,72.6H9.8c0-1.4,0-2.6,0-2.6c0,0,0.4-1.3,0.9-2.8l2.8-8.4
		c0.5-1.5,0.9-4.1,0.9-5.7V17.3c0-1.6,1.3-2.9,2.9-2.9h64.6c1.6,0,2.9,1.3,2.9,2.9v35.8c0,1.6,0.4,4.2,1,5.7l3,8.4
		c0.6,1.5,1,2.8,1,2.8S90,71.2,90,72.6z M60.3,67.5l-1.6-4.5H41l-1.5,4.5H60.3z M80.7,22c0-1.5-1.3-2.8-2.8-2.8h-56
		c-1.5,0-2.8,1.2-2.8,2.8v27.3c0,1.5,1.3,2.8,2.8,2.8h56c1.5,0,2.8-1.3,2.8-2.8C80.7,49.3,80.7,22,80.7,22z M9.8,73.9
		c0,1.6,1.3,3,2.9,3h66.8H87c1.6,0,2.9-1.3,2.9-3H9.8z"/>
</g>
<g class="st0">
	<path class="st1" d="M60.5,31.6c2.2-2.2,5.5,1.2,3.4,3.4c-4.2,4.2-8.3,8.3-12.5,12.5c-0.9,0.9-2.4,0.9-3.4,0
		c-4.2-4.2-8.3-8.3-12.5-12.5c-2.2-2.2,1.2-5.5,3.4-3.4c3.6,3.6,7.2,7.2,10.8,10.8C53.4,38.8,57,35.2,60.5,31.6z M54.2,32.5
		c0-2.5-2-4.5-4.5-4.5c-2.5,0-4.5,2-4.5,4.5c0,2.5,2,4.5,4.5,4.5C52.2,36.9,54.2,34.9,54.2,32.5z M54.2,2.2c0-2.5-2-4.5-4.5-4.5
		c-2.5,0-4.5,2-4.5,4.5c0,2.5,2,4.5,4.5,4.5C52.2,6.6,54.2,4.6,54.2,2.2z M54.2,12.9c0-2.5-2-4.5-4.5-4.5c-2.5,0-4.5,2-4.5,4.5H54.2
		z M45.3,21.2c0,2.5,2,4.5,4.5,4.5c2.5,0,4.5-2,4.5-4.5H45.3z M89.7,70.1c0,0-0.4-1.2-1-2.8l-3-8.4c-0.5-1.5-1-4.1-1-5.7V17.5
		c0-1.6-1.3-2.9-2.9-2.9H17.4c-1.6,0-2.9,1.3-2.9,2.9v35.7c0,1.6-0.4,4.2-0.9,5.7l-2.8,8.3c-0.5,1.5-0.9,2.8-0.9,2.8
		c0,0,0,1.3,0,2.9v0.4c0,1.6,1.3,2.9,2.9,2.9h60.9V73c0-1.5,2.3-1.3,2.3,0.2v3.2h1V73c0-1.5,2.3-1.3,2.3,0.2v3.2h7.4
		c1.6,0,2.9-1.3,2.9-2.9V73C89.7,71.4,89.7,70.1,89.7,70.1z M80.4,49.4c0,1.5-1.2,2.8-2.8,2.8H21.9c-1.5,0-2.8-1.2-2.8-2.8V22.2
		c0-1.5,1.2-2.8,2.8-2.8h55.8c1.5,0,2.8,1.2,2.8,2.8L80.4,49.4L80.4,49.4z M60.1,67.6H39.4l1.5-4.4h17.6L60.1,67.6z"/>
</g>
<g class="st0">
	<path class="st1" d="M40.5,11.7c-1.9,1.9-4.8-1-2.9-2.9c3.6-3.6,7.3-7.3,10.9-10.9c0.8-0.8,2.1-0.8,2.9,0C55,1.5,58.6,5.1,62.3,8.7
		c1.9,1.9-1,4.8-2.9,2.9c-3.1-3.1-6.3-6.3-9.4-9.4C46.8,5.4,43.6,8.5,40.5,11.7z M53.8,38c0-2.2-1.7-3.9-3.9-3.9
		c-2.2,0-3.9,1.7-3.9,3.9c0,2.2,1.7,3.9,3.9,3.9C52.1,41.9,53.8,40.2,53.8,38z M53.8,11.5c0-2.2-1.7-3.9-3.9-3.9
		c-2.2,0-3.9,1.8-3.9,3.9c0,2.2,1.7,3.9,3.9,3.9C52.1,15.4,53.8,13.7,53.8,11.5z M53.8,20.9c0-2.2-1.7-3.9-3.9-3.9
		c-2.2,0-3.9,1.7-3.9,3.9H53.8z M46,28.2c0,2.2,1.7,3.9,3.9,3.9c2.2,0,3.9-1.7,3.9-3.9H46z M84.8,73.2H15c0-1.3,0-2.2,0-2.2
		c0,0,0.4-1.1,0.8-2.4l2.4-7.3c0.4-1.3,0.8-3.6,0.8-5V25c0-1.4,1.2-2.6,2.6-2.6h56.3c1.4,0,2.6,1.2,2.6,2.6v31.2
		c0,1.4,0.4,3.7,0.9,5l2.6,7.3c0.5,1.3,0.9,2.4,0.9,2.4S84.8,71.9,84.8,73.2z M59,68.7l-1.4-3.9H42.1l-1.3,3.9H59z M76.7,29.1
		c0-1.3-1.1-2.4-2.4-2.4H25.5c-1.3,0-2.4,1.1-2.4,2.4v23.8c0,1.3,1.1,2.4,2.4,2.4h48.8c1.3,0,2.4-1.1,2.4-2.4V29.1z M15,74.3
		c0,1.4,1.2,2.6,2.6,2.6h58.3h6.5c1.4,0,2.6-1.2,2.6-2.6H15z"/>
</g>
<g class="st0">
	<path class="st1" d="M40.4,11.9c-1.9,1.9-4.8-1-2.9-2.9C41,5.3,44.7,1.7,48.3-1.9c0.8-0.8,2.1-0.8,2.9,0c3.6,3.6,7.2,7.2,10.9,10.9
		c1.9,1.9-1,4.8-2.9,2.9c-3.1-3.1-6.3-6.3-9.4-9.4C46.6,5.6,43.5,8.7,40.4,11.9z M53.6,38.2c0-2.1-1.7-3.9-3.9-3.9
		c-2.1,0-3.9,1.7-3.9,3.9c0,2.1,1.7,3.9,3.9,3.9C51.9,42,53.6,40.3,53.6,38.2z M53.6,11.8c0-2.1-1.7-3.9-3.9-3.9
		c-2.1,0-3.9,1.7-3.9,3.9s1.7,3.9,3.9,3.9C51.9,15.7,53.6,13.9,53.6,11.8z M53.6,21.1c0-2.1-1.7-3.9-3.9-3.9c-2.1,0-3.9,1.7-3.9,3.9
		H53.6z M45.9,28.3c0,2.1,1.7,3.9,3.9,3.9c2.1,0,3.9-1.7,3.9-3.9H45.9z M84.5,70.9c0,0-0.4-1.1-0.9-2.4l-2.6-7.3
		c-0.5-1.3-0.9-3.6-0.9-5V25.1c0-1.4-1.1-2.6-2.6-2.6H21.6c-1.4,0-2.6,1.2-2.6,2.6v31.1c0,1.4-0.4,3.7-0.8,5l-2.4,7.3
		c-0.4,1.3-0.8,2.4-0.8,2.4c0,0,0,1.2,0,2.6v0.4c0,1.4,1.2,2.6,2.6,2.6h53v-2.9c0-1.3,2-1.1,2,0.2v2.8h0.9v-2.9c0-1.3,2-1.1,2,0.2
		v2.8H82c1.4,0,2.6-1.1,2.6-2.6v-0.4C84.5,72.1,84.5,70.9,84.5,70.9z M76.4,52.9c0,1.3-1.1,2.4-2.4,2.4H25.5c-1.3,0-2.4-1.1-2.4-2.4
		V29.2c0-1.3,1.1-2.4,2.4-2.4H74c1.3,0,2.4,1.1,2.4,2.4C76.4,29.2,76.4,52.9,76.4,52.9z M58.8,68.7H40.7l1.3-3.9h15.4L58.8,68.7z"/>
</g>
<g class="st0">
	<path class="st1" d="M90,63.4H9.8c0-1.4,0-2.6,0-2.6c0,0,0.4-1.3,0.9-2.8l2.8-8.4c0.5-1.5,0.9-4.1,0.9-5.7V8c0-1.6,1.3-2.9,2.9-2.9
		h64.6C83.7,5.1,85,6.4,85,8v35.8c0,1.6,0.4,4.2,1,5.7l3,8.4c0.6,1.5,1,2.8,1,2.8S90,61.9,90,63.4z M60.3,58.3l-1.6-4.5H41l-1.5,4.5
		H60.3z M80.7,12.8c0-1.5-1.3-2.8-2.8-2.8h-56c-1.5,0-2.8,1.2-2.8,2.8V40c0,1.5,1.3,2.8,2.8,2.8h56c1.5,0,2.8-1.3,2.8-2.8
		C80.7,40,80.7,12.8,80.7,12.8z M9.8,64.7c0,1.6,1.3,3,2.9,3h66.8H87c1.6,0,2.9-1.3,2.9-3H9.8z"/>
</g>
<g class="st0">
	<path class="st1" d="M89.7,60.1c0,0-0.4-1.2-1-2.8l-3-8.4c-0.5-1.5-1-4.1-1-5.7V7.5c0-1.6-1.3-2.9-2.9-2.9H17.4
		c-1.6,0-2.9,1.3-2.9,2.9v35.7c0,1.6-0.4,4.2-0.9,5.7l-2.8,8.4c-0.5,1.5-0.9,2.8-0.9,2.8c0,0,0,1.3,0,2.9v0.4c0,1.6,1.3,2.9,2.9,2.9
		h60.9V63c0-1.5,2.3-1.3,2.3,0.2v3.2h1V63c0-1.5,2.3-1.3,2.3,0.2v3.2h7.4c1.6,0,2.9-1.3,2.9-2.9V63C89.7,61.4,89.7,60.1,89.7,60.1z
		 M80.4,39.4c0,1.5-1.2,2.8-2.8,2.8H21.9c-1.5,0-2.8-1.2-2.8-2.8V12.2c0-1.5,1.2-2.8,2.8-2.8h55.8c1.5,0,2.8,1.2,2.8,2.8L80.4,39.4
		L80.4,39.4z M60.1,57.6H39.4l1.5-4.4h17.6L60.1,57.6z"/>
</g>
<g class="st0">
	<path class="st1" d="M62.9,48.6c-0.7,0.6-1,1.7-0.6,2.6c0,0,0.9,2.2,0.9,4.4h0c0,0.1,0,0.1,0,0.2c0,0.6-0.5,1.1-1.1,1.1H39.7
		c-0.6,0-1.1-0.5-1.1-1.1c0-0.1,0-0.1,0-0.2h0c0-2.1,0.9-4.4,0.9-4.4c0.3-0.8,0-2-0.6-2.6c0,0-15.2-12.7-15.2-23.9
		c0-15,12.2-27.2,27.2-27.2c15,0,27.2,12.2,27.2,27.2C78.1,35.8,62.9,48.6,62.9,48.6z M65.3,26.6L65.3,26.6c0-0.2,0-0.3,0-0.4v-6.6
		c0-3.1-2.5-5.6-5.6-5.6h-0.3c-3.1,0-5.6,2.5-5.6,5.6v6.6c0-0.2,0-0.3,0.1-0.5c-0.1,0.2-0.1,0.4-0.1,0.5c0,0.8-0.3,1.5-0.9,2.1
		c-0.6,0.6-1.3,0.9-2.1,0.9c0,0-0.3,0-0.3,0c-1.6,0-2.9-1.3-2.9-2.9c0-0.1,0-6.5,0-6.5c0,0.1,0,0.2,0,0.3c0-0.1,0-0.2,0-0.3
		c0-3.1-2.5-5.6-5.6-5.6h-0.3c-3.1,0-5.6,2.5-5.6,5.6c0,0.1,0,6.5,0,6.5l0,0c0,0.7,0.6,1.3,1.3,1.3c0.7,0,1.3-0.6,1.3-1.3l0,0v-6.4
		c0-1.7,1.3-3,2.9-3h0.3c1.6,0,2.9,1.3,2.9,2.9c0-0.1,0-0.2,0-0.3c0,0.1,0,0.2,0,0.3l0,6.4c0,3.1,2.5,5.6,5.6,5.6c0,0,0.3,0,0.3,0
		c1.5,0,2.9-0.6,3.9-1.6c1.1-1.1,1.6-2.5,1.6-3.9c0,0.2,0,0.3-0.1,0.5c0.1-0.2,0.1-0.4,0.1-0.5v-6.6c0-1.6,1.3-2.9,2.9-2.9h0.3
		c1.6,0,2.9,1.3,2.9,2.9v6.6c0-0.1,0-0.2,0-0.3l0,0.1c-0.2,0.7,0.3,1.4,1,1.6C64.4,27.7,65.1,27.3,65.3,26.6L65.3,26.6z M62,61.4
		c0-1.2-1-2.2-2.2-2.2H41.9c-1.2,0-2.2,1-2.2,2.2V62c0,1.2,1,2.2,2.2,2.2h17.9c1.2,0,2.2-1,2.2-2.2L62,61.4L62,61.4z M62,68.1
		c0-1.2-1-2.2-2.2-2.2H41.9c-1.2,0-2.2,1-2.2,2.2v0.6c0,1.2,1,2.2,2.2,2.2h17.9c1.2,0,2.2-1,2.2-2.2L62,68.1L62,68.1z M57.5,75.2
		c0-1.2-1-2.2-2.2-2.2h-8.8c-1.2,0-2.2,1-2.2,2.2l0,0c0,1.2,1,2.2,2.2,2.2h8.8C56.5,77.4,57.5,76.4,57.5,75.2L57.5,75.2z"/>
</g>
<g class="st0">
	<path class="st1" d="M79.4,4.8l10.4,44.8c1.1,4.7-1.9,9.5-6.6,10.6L30.9,72.3c-0.4,0.1-0.8,0.1-1.1,0.1c-4.3,0.4-8.4-2.4-9.5-6.8
		L9.9,20.9c-0.3-1.3,0.5-2.6,1.8-3c0.1,0,0.1-0.1,0.2-0.1c0.1,0,0.1,0,0.2,0c1.3-0.2,2.6,0.6,2.9,1.9l10.7,46.1
		c0.3,1.2,1.4,1.9,2.6,1.6c1.2-0.3,1.9-1.4,1.6-2.6L18.6,16.3L75.9,3C76,3,76,3,76.1,2.9l0.4-0.1c0.1,0,0.1,0,0.1,0
		C77.9,2.7,79.1,3.5,79.4,4.8z M52.3,26.3c1.7-0.4,3.3-0.8,5-1.2c0.9-0.2,1.6-0.9,1.5-1.9c-0.1-0.9-1-1.7-1.9-1.5
		c-1.7,0.4-3.3,0.8-5,1.2c-0.9,0.2-1.6,0.9-1.5,1.9C50.5,25.7,51.4,26.6,52.3,26.3L52.3,26.3z M51.2,21.3c1.7-0.4,3.3-0.8,5-1.1
		c0.9-0.2,1.6-0.9,1.5-1.9c-0.1-0.9-1-1.7-1.9-1.5c-1.7,0.4-3.3,0.8-5,1.2c-0.9,0.2-1.6,0.9-1.5,1.9C49.3,20.7,50.2,21.6,51.2,21.3
		L51.2,21.3z M71.7,21.9c1.7-0.4,3.3-0.8,5-1.2c0.9-0.2,1.6-0.9,1.5-1.9c-0.1-0.9-1-1.7-1.9-1.5c-1.7,0.4-3.3,0.8-5,1.2
		c-0.9,0.2-1.6,0.9-1.5,1.9C69.8,21.3,70.7,22.1,71.7,21.9L71.7,21.9z M70.5,16.9c1.7-0.4,3.3-0.8,5-1.2c0.9-0.2,1.6-0.9,1.5-1.9
		c-0.1-0.9-1-1.7-1.9-1.5c-1.7,0.4-3.3,0.8-5,1.2c-0.9,0.2-1.6,0.9-1.5,1.9C68.7,16.3,69.6,17.1,70.5,16.9L70.5,16.9z M49.1,25.5
		c-0.4-1.7-0.8-3.3-1.2-5C47.7,19.6,47,18.9,46,19c-0.9,0.1-1.7,1-1.5,1.9c0.4,1.7,0.8,3.3,1.2,5c0.2,0.9,0.9,1.6,1.9,1.5
		C48.5,27.3,49.3,26.4,49.1,25.5L49.1,25.5z M44.1,26.7c-0.4-1.7-0.8-3.3-1.2-5c-0.2-0.9-0.9-1.6-1.9-1.5c-0.9,0.1-1.7,1-1.5,1.9
		c0.4,1.7,0.8,3.3,1.2,5c0.2,0.9,0.9,1.6,1.9,1.5C43.5,28.5,44.3,27.6,44.1,26.7L44.1,26.7z M68.4,21c-0.4-1.7-0.8-3.3-1.2-5
		c-0.2-0.9-0.9-1.6-1.9-1.5c-0.9,0.1-1.7,1-1.5,1.9c0.4,1.7,0.8,3.3,1.2,5c0.2,0.9,0.9,1.6,1.9,1.5C67.8,22.8,68.7,21.9,68.4,21
		L68.4,21z M63.5,22.2c-0.4-1.7-0.8-3.3-1.2-5c-0.2-0.9-0.9-1.6-1.9-1.5c-0.9,0.1-1.7,1-1.5,1.9c0.4,1.7,0.8,3.3,1.2,5
		c0.2,0.9,0.9,1.6,1.9,1.5C62.9,24,63.7,23.1,63.5,22.2L63.5,22.2z M60.7,38.4l19.6-4.5l0,0c0.7-0.2,1.1-0.9,1-1.6
		c-0.2-0.7-0.9-1.1-1.6-1l0,0l-19.6,4.5l0,0c-0.7,0.2-1.1,0.9-1,1.6C59.3,38.2,60,38.6,60.7,38.4L60.7,38.4z M62,44.4l19.6-4.5l0,0
		c0.7-0.2,1.1-0.9,1-1.6c-0.2-0.7-0.9-1.1-1.6-1l0,0l-19.6,4.5l0,0c-0.7,0.2-1.1,0.9-1,1.6C60.6,44.1,61.3,44.5,62,44.4L62,44.4z
		 M63.4,50.3L83,45.7l0,0c0.7-0.2,1.1-0.9,1-1.6c-0.2-0.7-0.9-1.1-1.6-1l0,0l-19.6,4.5l0,0c-0.7,0.2-1.1,0.9-1,1.6
		C62,50,62.7,50.4,63.4,50.3L63.4,50.3z M64.8,56.2l19.6-4.5l0,0c0.7-0.2,1.1-0.9,1-1.6c-0.2-0.7-0.9-1.1-1.6-1l0,0l-19.6,4.5l0,0
		c-0.7,0.2-1.1,0.9-1,1.6C63.4,55.9,64.1,56.3,64.8,56.2L64.8,56.2z M32.2,45l19.6-4.5l0,0c0.7-0.2,1.1-0.9,1-1.6
		c-0.2-0.7-0.9-1.1-1.6-1l0,0l-19.6,4.5l0,0c-0.7,0.2-1.1,0.9-1,1.6C30.8,44.7,31.5,45.2,32.2,45L32.2,45z M33.6,50.9l19.6-4.5l0,0
		c0.7-0.2,1.1-0.9,1-1.6c-0.2-0.7-0.9-1.1-1.6-1l0,0L33,48.4l0,0c-0.7,0.2-1.1,0.9-1,1.6C32.2,50.7,32.9,51.1,33.6,50.9L33.6,50.9z
		 M35,56.8l19.6-4.5l0,0c0.7-0.2,1.1-0.9,1-1.6c-0.2-0.7-0.9-1.1-1.6-1l0,0l-19.6,4.5l0,0c-0.7,0.2-1.1,0.9-1,1.6
		C33.6,56.6,34.3,57,35,56.8L35,56.8z M36.3,62.7l19.6-4.5l0,0c0.7-0.2,1.1-0.9,1-1.6c-0.2-0.7-0.9-1.1-1.6-1l0,0l-19.6,4.5l0,0
		c-0.7,0.2-1.1,0.9-1,1.6C34.9,62.5,35.6,62.9,36.3,62.7L36.3,62.7z"/>
</g>
<g class="st0">
	<path class="st1" d="M82.7,3.5C68.9,0.7,55.1,4.9,41.2,5.7c0.3,1.2,0.5,2.5,0.5,3.8c0,3-0.9,6-2.7,8.7l-0.3,0.5l3.3,3.4
		c0.9,0.9,0.8,1.8,0.6,2.4c-0.3,1-1.4,1.9-2.5,2.3c-0.3,0.1-0.7,0.1-1,0.1c-0.8,0-1.6-0.3-2.1-0.9L34.3,23l-0.4,0.3
		c-2.2,1.4-4.4,2.2-6.7,2.5c-1.2,0.1-2.3,0.1-3.4,0c0,15.6,0,31.3,0,46.9c0,1.6,1.3,3.4,3,3.7c18.7,3.7,37.3-5.2,56-1.4
		c1.6,0.3,3-0.6,3-2.3c0-21.8,0-43.7,0-65.5C85.7,5.6,84.4,3.8,82.7,3.5z M46.8,48.7c-0.2,2.7-1.1,5.2-1.9,6.9
		c-0.8,1.7-1.3,1.2-2.3,1.4c-1,0.2-3.8,2.3-6,3.2c-2.2,1-7.1,1.9-8,0.6c-0.9-1.2-2.4-3.1-1.1-4c1.4-1-0.8-0.9,1.9-2.4
		c2.7-1.6,0.9-2.8,1.9-3.8c0.7-0.7,1.5-2,1.9-2.6c-0.3,0.3-0.9,0.4-2.2-0.5c-2.1-1.6-2.6-2.5-1.8-2.8c0.8-0.4,2.1-0.7,2.1-0.7
		c0,0-2.1-1.9-1.9-3.2c0.2-1.2,2.8-0.4,2.8-0.5c0,0,3.1,1.5,4,0.4c0.9-1.1,1.7-1.8,1.7-1.8c0,0-4.3,0-0.5-2.4c0,0-1.1-0.6,0.3-1.5
		c1.4-0.9,1.7-0.8,3-1.2c1.3-0.3,3.3-0.6,2,0.8c0,0,5.5-1.6,5.4,0.7c-0.2,2.4,0,2.8,0,2.8c0,0,3.2,0,1.5,1.8
		c-1.7,1.8-2.1,2.6-2.1,2.6c-0.5,0.2-1.1,0.3-1.6,0.5C46,43.3,47,46,46.8,48.7z M81.8,54.1c-2.2,3.4-4.6,4.5-5.1,5
		c0,0,5.2,2.3,4,3.3c-1.2,1-4.4,2.4-6.5,1.6c0,0-1.6,1.3-3,0.9c-1.4-0.4-2.6-0.9-2.6-0.9c0,0-2.5,1.5-3.9,2.4
		c-1.4,0.9-1.4,0.9-1.4,0.9c0,0-2.7-3.5-3.8-0.8c-1.1,2.7-1.7,3.5-1.7,3.5c0,0-1.7-0.8-3.1-0.5c-1.4,0.2-2.7,0.5-3.3,2
		c-0.6,1.6-0.7,1.9-1.5,1.3c-0.7-0.6-2.7-0.5-1.3-1.4c1.5-0.9,2.8-2.4,4.1-4c1.3-1.6,1.6-4.6,4.6-4.8c3-0.2,6.2-4.8,6.2-4.8
		c0,0-3.6,4.6-6.4,2.6c-2.8-2-5.1,0.6-6.2-0.3C50,59,58,53.2,56.1,50.8c-1.9-2.4-2,0.4-2,0.4S51.5,50.5,55,48
		c3.5-2.5,5.2-1.5,5.7-2.5c0.5-1,0.8-3.6,0.8-5.7c0,0-1.2,1-2.3-0.4c-1.2-1.4,1.3-5.2,1.3-5.2c0,0-6.6,3-7.6,2.8
		c-0.9-0.2-1.6-1-0.8-2.6c0.8-1.5,1.4-3.2,0.7-4.4c-0.6-1.2-1.8-0.7-2-1.6c-0.2-0.9-0.9,4.1-1.5,4c-0.6-0.1,0.2-3.4,0.1-5.5
		c-0.2-2.1,2.3-4.8,2.3-4.8c0,0-4.1,2.9-3.4,1.2c0.7-1.7,3.3-13.9,4.2-15.2c0.9-1.2,2.4,0.3,5-0.7c2.6-1,4.4-0.7,2.5,1.3
		c-2,1.9-6.1,8-3.2,6.7c2.8-1.3,6.3-3.2,7.6-2.3c1.3,0.9,1,1.6,0.1,4.2c-0.9,2.7-1.6,5.9-3.7,7.5c-2.1,1.6-1.9,2-1.9,2
		c0,0,2.8-2.1,4.7-0.4c1.9,1.6,6.5,7.5,5.3,9.6c0-0.1,5.7,2.8,5.8,6.2c0,0.1-1.3,0.4-1.3,0.4c0,0,2.5,1.8,2.5,3.7
		c0,1.9-1.4,2.5-1.4,2.5c0.5,0.1,1,0.2,1.6,0.3c0,0,0.5-1.7,2.7-1.4C80.8,48,84,50.7,81.8,54.1z M46.6,37.8c-0.3,1-1.1,2-1.6,1.4
		c-0.4-0.6,0.3-1.1,0.3-1.1S46.9,36.7,46.6,37.8z M27,24.6c2.1-0.3,4.2-1,6.2-2.3l1.3-0.8l3.4,3.6c0.5,0.5,1.2,0.7,1.9,0.5
		c0.8-0.2,1.5-0.9,1.7-1.5c0.1-0.3,0.1-0.7-0.4-1.2l-3.9-4.1l0.8-1.2c1.6-2.5,2.5-5.2,2.5-8c0-7.4-5.9-12.9-13.5-12
		c-7.5,0.9-13.6,7.9-13.6,15.4c0,3.3,1.2,6.3,3.4,8.5C19.4,23.9,23.1,25.1,27,24.6z M20,12c0,0.7-0.6,1.3-1.2,1.4
		c-0.7,0.1-1.2-0.4-1.2-1.1c0-5.2,4.3-10.1,9.5-10.7c0.7-0.1,1.2,0.4,1.2,1.1C28.3,3.3,27.7,4,27,4C23.2,4.5,20,8.1,20,12z"/>
</g>
<g class="st0">
	<path class="st1" d="M42.6,67.2c2.5,0,4.7-0.7,6.7-1.9c1.2,3.9,2.5,8,3.7,12.1H19c-1.8,0-3.4-1.5-3.4-3.4V44.7c9-2.4,18-4.7,18-4.7
		c2.7-0.7,5.5,0.1,7.4,2c-6.3,0.8-11.2,6.1-11.2,12.6c0,2.5,0.7,4.8,2.1,6.9l-2.1,2.4c-1,1.2-0.9,2.3-0.7,2.9
		c0.4,1.2,1.5,2.1,2.8,2.3c0.2,0,0.5,0.1,0.7,0.1c1,0,2-0.4,2.7-1.2l1.7-1.9C39,66.8,40.8,67.2,42.6,67.2z M34.8,18.1
		c0,0-3.3-10.7-6.3-20.6H19c-1.8,0-3.4,1.5-3.4,3.4v30.1c7.5-2,14.1-3.7,14.1-3.7C33.8,26.2,36.1,22.1,34.8,18.1z M56,41.9
		c0,0,5.6,18.2,10.9,35.5h14.7c1.8,0,3.4-1.5,3.4-3.4V26.6c-12.1,3.2-23.8,6.2-23.8,6.2C57.1,33.9,54.8,38,56,41.9z M81.6-2.5h-32
		h-7.2c2.7,8.9,5.3,17.3,5.3,17.3c1.2,4,5.5,6.4,9.5,5.3c0,0,14.3-3.7,27.7-7.2v-6v-6C84.9-1,83.4-2.5,81.6-2.5z M53.8,54.5
		c0,6.2-5,11.2-11.2,11.2c-1.7,0-3.4-0.4-5.1-1.3l-0.7-0.4l-0.5,0.6l-2,2.2c-0.5,0.6-1.1,0.7-1.6,0.7c-0.2,0-0.3,0-0.4,0
		c-0.8-0.2-1.5-0.7-1.7-1.3c-0.2-0.5,0-1,0.4-1.4l2.3-2.7l0.5-0.6l-0.4-0.6c-1.3-1.9-2-4.1-2-6.4c0-6.2,5-11.2,11.2-11.2
		C48.8,43.4,53.8,48.4,53.8,54.5z M50.1,54.5c0-4.1-3.4-7.5-7.5-7.5c-0.5,0-1,0.4-1,1c0,0.5,0.4,1,1,1c3.1,0,5.6,2.5,5.6,5.6
		c0,0.5,0.4,1,1,1S50.1,55.1,50.1,54.5z"/>
</g>
<g class="st0">
	<path class="st1" d="M83.3,72.4c0,1.8-1.4,2.8-3.2,2.4c-20-4-39.9,5.5-59.9,1.5c-1.8-0.3-3.2-2.2-3.2-4c0-23.4,0-46.7,0-70.1
		c0-1.8,1.4-2.8,3.2-2.4c20,4,39.9-5.5,59.9-1.5c1.8,0.4,3.2,2.2,3.2,4C83.3,25.7,83.3,49.1,83.3,72.4z M43.3,19.6
		c-0.7,1.8,3.7-1.3,3.7-1.3c0,0-2.7,2.9-2.5,5.1c0.2,2.2-0.7,5.8-0.1,5.9c0.6,0.1,1.4-5.2,1.6-4.3c0.2,1,1.5,0.5,2.1,1.7
		s0.1,3-0.8,4.7c-0.9,1.7-0.2,2.5,0.8,2.7c1,0.3,8.1-2.9,8.1-2.9c0,0-2.6,4.1-1.3,5.6c1.3,1.5,2.5,0.4,2.5,0.4c0,2.3-0.3,5-0.8,6.1
		c-0.5,1.1-2.4,0-6.1,2.7c-3.7,2.7-1,3.4-1,3.4s0.2-3,2.2-0.4c2,2.6-6.6,8.8-5.4,9.8c1.2,1,3.6-1.8,6.6,0.3c3,2.1,6.8-2.8,6.8-2.8
		c0,0-3.5,4.9-6.7,5.1c-3.2,0.2-3.5,3.4-4.9,5.1c-1.4,1.7-2.8,3.3-4.4,4.3c-1.6,1,0.6,0.9,1.4,1.5c0.8,0.7,0.9,0.3,1.6-1.4
		c0.7-1.7,2-1.9,3.5-2.2c1.5-0.3,3.3,0.6,3.3,0.6c0,0,0.7-0.9,1.8-3.7c1.1-2.9,4,0.9,4,0.9c0,0,0,0,1.5-1c1.5-1,4.2-2.6,4.2-2.6
		c0,0,1.3,0.5,2.8,1c1.4,0.5,3.2-0.9,3.2-0.9c2.3,0.9,5.7-0.6,7-1.7c1.3-1.1-4.2-3.6-4.2-3.6c0.5-0.5,3.1-1.7,5.4-5.3
		c2.4-3.6-1-6.5-3.3-6.8c-2.3-0.3-2.9,1.5-2.9,1.4c-0.6-0.1-1.1-0.2-1.7-0.3c0,0,1.5-0.6,1.5-2.6c0-2-2.7-4-2.7-4
		c0,0,1.4-0.3,1.4-0.5c-0.1-3.6-6.2-6.7-6.2-6.6c1.3-2.2-3.6-8.5-5.7-10.2c-2.1-1.8-5,0.4-5,0.4c0,0-0.3-0.4,2-2.1
		c2.3-1.7,3-5.1,4-8c1-2.8,1.2-3.5-0.1-4.5c-1.3-1-5.1,1-8.1,2.4c-3,1.4,1.3-5.1,3.5-7.2c2.1-2.1,0.2-2.4-2.6-1.4
		c-2.8,1-4.4-0.6-5.3,0.7C46.8,4.7,44,17.9,43.3,19.6z M35.3,31c-1.4,0.3-1.7,0.3-3.2,1.2c-1.5,1-0.4,1.6-0.4,1.6
		c-4.1,2.6,0.6,2.6,0.6,2.5c0,0-0.8,0.8-1.8,1.9c-1,1.2-4.3-0.4-4.3-0.4c0,0-2.8-0.8-3,0.5c-0.2,1.4,2,3.4,2,3.4
		c0,0-1.5,0.4-2.3,0.8c-0.8,0.4-0.3,1.3,1.9,3c2.3,1.7,2.6,0,2.6,0c0,0-1.3,2.2-2.4,3.3c-1.1,1.1,0.8,2.3-2.1,4
		c-2.9,1.6-0.6,1.5-2.1,2.6c-1.5,1,0.2,3,1.1,4.3c1,1.4,6.2,0.4,8.6-0.7c2.4-1,5.3-3.2,6.4-3.4c1.1-0.2,1.7,0.3,2.5-1.5
		c0.8-1.8,1.9-4.5,2-7.4c0.2-2.9-0.9-5.8-0.9-5.8c0.6-0.2,1.2-0.4,1.7-0.5c0,0,0.5-0.9,2.3-2.8c1.8-2-1.6-2-1.6-2c0,0-0.2-0.5,0-3
		c0.2-2.5-5.7-0.7-5.7-0.8C38.9,30.3,36.7,30.6,35.3,31z M40.1,35.5c0,0,1.7-1.5,1.3-0.4c-0.4,1.1-1.2,2.2-1.7,1.5
		C39.3,35.9,40.1,35.5,40.1,35.5z"/>
</g>
<g class="st0">
	<path class="st1" d="M88.1,51.9c-1.6,3.6-6.9,6.5-11.8,6.4l-17.2-0.5L52.8,71c-1.8,3.7-7.2,6.6-11.8,6.4c-4.6-0.2-6.7-3.5-4.9-7.2
		l6.3-13.3l-16.1-1.1c-4.3-0.4-6.5-3.6-4.9-7.2c0.6-1.4,1.8-2.7,3.2-3.7c1.7,0.6,3.4,1.1,5.2,1.3c4,0.6,8.1,0.2,12.1-1.2l0.6-0.2
		l3.9,6c1.6,2.4,3.8,2.8,5,2.8c0.1,0,0.2,0,0.3,0c2.2-0.1,4.4-1.3,5.3-3.1c0.5-1,0.8-2.6-0.4-4.6l-4.6-7.1l0.4-0.4
		c3.2-3.4,5.4-7.5,6.4-11.9c1.6-0.6,3.3-0.9,5-0.8c4.6,0.2,7.4,3.1,6,6.6l-5.2,12.6l17.2,0.5C87,45.4,89.7,48.3,88.1,51.9z
		 M30.4,43.5c-6.1-0.9-11.5-4.1-15.2-9.1c-3.7-5-5.2-11.1-4.3-17.2C12.5,5.9,22.3-2.6,33.7-2.6c1.1,0,2.3,0.1,3.4,0.2
		c6.1,0.9,11.5,4.1,15.2,9.1c3.7,5,5.2,11.1,4.4,17.2c-0.7,4.7-2.8,9-6.1,12.5l-1.9,2l5.7,8.9c0.7,1.1,0.4,1.7,0.3,1.9
		c-0.5,0.9-1.7,1.6-3,1.6l-0.2,0c-0.8,0-1.9-0.3-2.7-1.5l-5-7.8l-2.6,0.9C37.6,43.6,33.9,44,30.4,43.5z M35.5,8.5
		c1.2,0.2,2.3-0.6,2.4-1.8c0.2-1.2-0.6-2.3-1.8-2.4c-9-1.3-17.4,4.9-18.7,13.9c-0.2,1.2,0.6,2.3,1.8,2.4c1.2,0.2,2.3-0.6,2.4-1.8
		C22.7,12.1,28.9,7.5,35.5,8.5z"/>
</g>
<g class="st0">
	<path class="st1" d="M45.3,66.5c-9.2-1.3-17.3-6.2-22.8-13.6c-5.5-7.4-7.9-16.6-6.5-25.8C18.4,10.1,33.2-2.6,50.3-2.6
		c1.7,0,3.4,0.1,5.1,0.4c9.2,1.3,17.3,6.2,22.8,13.6c5.5,7.5,7.9,16.6,6.5,25.8c-1,7-4.2,13.5-9.1,18.7l-2.8,3l8.5,13.3
		c1.1,1.6,0.6,2.5,0.5,2.8c-0.7,1.3-2.6,2.3-4.5,2.4l-0.2,0c-1.2,0-2.9-0.4-4.1-2.3l-7.5-11.7l-3.9,1.3
		C56.1,66.7,50.6,67.2,45.3,66.5z M53,14c1.8,0.3,3.4-1,3.6-2.7c0.3-1.7-1-3.4-2.7-3.6c-13.5-2-26,7.4-28,20.8
		c-0.3,1.7,1,3.4,2.7,3.6c1.7,0.3,3.4-1,3.6-2.7C33.7,19.5,43,12.6,53,14z"/>
</g>
<g class="st0">
	<path class="st1" d="M73.8,44.7c-0.4,0.4-0.6,0.7-0.7,0.9C73.3,45.2,73.5,44.9,73.8,44.7z M87.8,36.2l-7.6,7.6l-3.5,3.5
		c-0.5,0.9-1.8,0.9-3.3,0.9l-3.8,0H44.2v18.2H20.7V48.2h-3.3c-4.1,0-7.4-3.3-7.4-7.4V21.1c0-4.1,3.3-7.4,7.4-7.4h3.3v-1.4
		c0-2.2,1.8-4.1,4.1-4.1h15.4c2.2,0,4.1,1.8,4.1,4.1v3.3c0,0,0,0,0,0c0,1.1-0.9,2-2,2H17.4c-1.9,0-3.5,1.6-3.5,3.5v19.7
		c0,1.9,1.6,3.5,3.5,3.5h52.2l4.6,0c0.6-0.7,1.6-1.7,3.2-3.3l7.6-7.6c1.4-1.3,1.4-3.5,0-4.9l-7.6-7.6l-2.1-2.1
		c-0.5-0.5-0.9-0.9-1.2-1.2l-4.6,0c-1.1,0-2-0.9-2-2s0.9-2,2-2l3.8,0c1.5,0,2.8,0,3.3,0.9l1.5,1.5l2.1,2.1l7.6,7.6
		C90.6,28.6,90.6,33.3,87.8,36.2z M73.8,44.7c-0.3,0.2-0.5,0.5-0.7,0.9C73.2,45.4,73.4,45.1,73.8,44.7z M65.8,31l-5.6,5.6
		c-0.8,0.8-1.1,2-0.6,3.1c0.5,1.1,1.6,1.9,2.8,1.9c0.7,0,1.5-0.3,2-0.9L72,33c1.1-1.1,1.1-3,0-4.1l-7.7-7.7c-1.4-1.4-4-0.8-4.8,1
		c-0.4,1.1-0.2,2.3,0.6,3.1L65.8,31z M48,39.7c0.5,1.1,1.6,1.9,2.8,1.9c0.7,0,1.5-0.3,2-0.9l7.7-7.7c1.1-1.1,1.1-3,0-4.1l-7.7-7.7
		c-1.4-1.4-4-0.8-4.8,1c-0.4,1.1-0.2,2.3,0.7,3.2l5.6,5.6l-5.6,5.6C47.8,37.4,47.6,38.6,48,39.7z"/>
</g>
<g class="st0">
	<path class="st1" d="M50,36.7l-6.4,6.4l-3.7-3.7c0.3-0.2,0.6-0.5,0.9-0.8l4.8-4.8c0.3-0.3,0.5-0.6,0.8-0.9L50,36.7z M89.6,55.8
		L85,51.2c-2.1-2.1-5.6-2.1-7.7,0L77,51.4c-1,1-1.6,2.4-1.6,3.9c0,1.4,0.5,2.7,1.5,3.7c0,0.1,0.1,0.1,0.2,0.2l4.7,4.7
		c1.2,1.2,1.2,3.3,0,4.5l-0.2,0.2c-1.2,1.2-3.3,1.2-4.5,0l-2.8-2.8c0.4-1.1,0.2-2.4-0.7-3.3l-0.1-0.1l1.1-1.1l-6.7-6.7l-6.4,6.4
		l6.7,6.7l1.1-1.1l0.1,0.1c0.6,0.6,1.3,0.9,2.1,0.9c0.4,0,0.8-0.1,1.2-0.3l2.8,2.8c1.1,1.1,2.5,1.6,3.9,1.6c1.4,0,2.8-0.5,3.9-1.6
		l0.2-0.2c2.1-2.1,2.1-5.6,0-7.7l-4.6-4.6c0-0.1-0.1-0.1-0.2-0.2c-0.6-0.6-0.9-1.4-0.9-2.3c0-0.9,0.3-1.7,0.9-2.3l0.2-0.2
		c1.2-1.2,3.3-1.2,4.6,0l4.6,4.6c0.4,0.4,1.2,0.4,1.6,0C90.1,57,90.1,56.3,89.6,55.8z M71.3,49.6c1-1,1-2.7,0-3.7L58.8,33.3
		c-0.5-0.5-1.2-0.8-1.9-0.8c-0.7,0-1.4,0.3-1.9,0.8L40.1,48.2c-0.5,0.5-0.8,1.2-0.8,1.9s0.3,1.4,0.8,1.9l12.6,12.6c1,1,2.7,1,3.7,0
		L71.3,49.6z M48,25.4c0-2.9-1.1-5.7-3.2-7.8L33.5,6.4c-2.1-2.1-4.8-3.2-7.8-3.2c-2.9,0-5.7,1.1-7.8,3.2l-4.8,4.8
		C9,15.5,9,22.4,13.2,26.7L24.5,38c2.1,2.1,4.8,3.2,7.8,3.2c2.9,0,5.7-1.1,7.8-3.2l4.8-4.8C46.9,31.1,48,28.4,48,25.4z M21.7,13.4
		c-1.6,1.5-3.8-1.1-2.2-2.6c1.7-1.6,3.9-3.4,6.4-3.1c2.4,0.3,4.1,1.7,5.7,3.3c1.6,1.5-1,3.7-2.6,2.2c-0.9-0.9-2.1-2.1-3.5-2.1
		C24.1,11,22.8,12.4,21.7,13.4L21.7,13.4z"/>
</g>
<g class="st0">
	<path class="st1" d="M47.5,34.6l-5.1,5.1c-2.2,2.2-5.2,3.5-8.4,3.5c-3.2,0-6.1-1.2-8.4-3.5L13.5,27.6c-2.2-2.2-3.5-5.2-3.5-8.4
		c0-3.2,1.2-6.1,3.5-8.4l5.1-5.1c2.2-2.2,5.2-3.5,8.4-3.5s6.1,1.2,8.4,3.5l12.1,12.1C52.1,22.5,52.1,30,47.5,34.6z M89.5,52.7l-5-5
		c-1.1-1.1-2.6-1.7-4.2-1.7c-1.6,0-3,0.6-4.2,1.7l-0.2,0.2c-2.2,2.2-2.3,5.9-0.1,8.2c0.1,0.1,0.1,0.2,0.2,0.2l5.1,5.1
		c0.6,0.6,1,1.5,1,2.4c0,0.9-0.4,1.8-1,2.4l-0.2,0.2c-1.3,1.3-3.5,1.3-4.9,0l-3.1-3.1c0.5-1.2,0.2-2.6-0.7-3.5l-0.1-0.1l1.2-1.2
		L49.2,34.6l-0.8,0.8l-5.2,5.2l-0.8,0.9l24.1,24.1l1.2-1.2l0.1,0.1c0.6,0.6,1.4,0.9,2.3,0.9c0.5,0,0.9-0.1,1.3-0.3l3,3
		c1.1,1.1,2.6,1.7,4.1,1.7c1.5,0,3-0.6,4.2-1.7l0.2-0.2c1.1-1.1,1.7-2.6,1.7-4.2c0-1.6-0.6-3-1.7-4.2l-5-5c0-0.1-0.1-0.1-0.2-0.2
		c-1.3-1.3-1.3-3.5,0-4.9l0.2-0.2c1.3-1.3,3.5-1.3,4.9,0.1l5,5c0.5,0.5,1.2,0.5,1.7,0C90,54,90,53.2,89.5,52.7z M23.5,13.3
		c1.1-1.1,2.5-2.5,4.2-2.5c1.5,0,2.8,1.3,3.7,2.3c1.7,1.6,4.5-0.7,2.8-2.4c-1.8-1.7-3.6-3.3-6.2-3.5c-2.7-0.3-5.1,1.6-6.9,3.3
		C19.5,12.1,21.8,14.9,23.5,13.3L23.5,13.3z"/>
</g>
<g class="st0">
	<path class="st1" d="M69.8,30.1H52.2v-1.9c1-0.4,1.8-1.4,1.8-2.5v-2.5c0-1.5-1.2-2.7-2.7-2.7h-2.6c-1.5,0-2.7,1.2-2.7,2.7v2.5
		c0,1.2,0.7,2.2,1.8,2.5v1.9H30c2.3-6.2,7.5-11.2,14.2-13.1c0.3-0.1,0.5-0.3,0.5-0.5c0-0.3-0.1-0.5-0.3-0.7
		c-2.4-1.8-3.8-4.5-3.8-7.4c0-5.1,4.1-9.2,9.2-9.2c5.1,0,9.2,4.1,9.2,9.2c0,2.9-1.4,5.6-3.8,7.4c-0.2,0.2-0.3,0.4-0.3,0.7
		c0,0.3,0.2,0.5,0.5,0.5C62.3,18.9,67.5,23.9,69.8,30.1z M51.2,31v-3.6c1,0,1.8-0.8,1.8-1.8v-2.5c0-1-0.8-1.8-1.8-1.8h-2.6
		c-1,0-1.8,0.8-1.8,1.8v2.5c0,1,0.8,1.8,1.8,1.8V31H27.4v8.5c0.5-0.1,1-0.1,1.5-0.1c5.2,0,9.4,4.2,9.4,9.4c0,2.6-1.1,5-2.9,6.8
		c1.6,0.6,3.2,1.3,4.6,2.3c1.5-0.9,3-1.5,4.7-2c-2.2-1.6-3.6-4.2-3.6-7.1c0-4.9,3.9-8.8,8.8-8.8c4.9,0,8.8,3.9,8.8,8.8
		c0,2.9-1.4,5.5-3.6,7.1c1.7,0.5,3.2,1.2,4.7,2c1.4-0.9,2.9-1.7,4.6-2.3c-1.9-1.8-2.9-4.2-2.9-6.8c0-5.2,4.2-9.4,9.4-9.4
		c0.5,0,1,0.1,1.5,0.1V31C72.4,31,51.2,31,51.2,31z M33.5,56c0-0.2,0-0.5,0.2-0.6c2.1-1.6,3.3-4,3.3-6.6c0-4.5-3.7-8.2-8.2-8.2
		s-8.2,3.7-8.2,8.2c0,2.6,1.2,5,3.3,6.6c0.2,0.1,0.3,0.4,0.2,0.6c0,0.2-0.2,0.4-0.4,0.5c-8,2.2-13.6,9.4-13.8,17.6h20.4
		c0.2-6.4,3.5-12,8.4-15.4c-1.5-0.9-3.1-1.7-4.9-2.1C33.7,56.4,33.6,56.2,33.5,56z M75.9,56.4c-0.2-0.1-0.4-0.3-0.4-0.5
		c0-0.2,0.1-0.5,0.2-0.6c2.1-1.6,3.3-4,3.3-6.6c0-4.5-3.7-8.2-8.2-8.2c-4.5,0-8.2,3.7-8.2,8.2c0,2.6,1.2,5,3.3,6.6
		c0.2,0.1,0.3,0.4,0.2,0.6c0,0.2-0.2,0.4-0.4,0.5c-1.8,0.5-3.4,1.2-4.9,2.1c4.9,3.4,8.2,9,8.4,15.4h20.4
		C89.5,65.8,83.9,58.7,75.9,56.4z"/>
</g>
<g class="st0">
	<path class="st1" d="M47.8,33.4c-1-0.5-1.8-1.6-1.8-2.8v-2.5c0-1.7,1.4-3.1,3.1-3.1h2.6c1.7,0,3.1,1.4,3.1,3.1v2.5
		c0,1.2-0.7,2.3-1.8,2.8v1.2h17.8c-1.3-8.1-7.2-15-15.3-17.2c-0.3-0.1-0.5-0.3-0.5-0.5c0-0.3,0.1-0.5,0.3-0.7
		c2.4-1.8,3.8-4.5,3.8-7.4c0-5.1-4.1-9.2-9.2-9.2c-5.1,0-9.2,4.1-9.2,9.2c0,2.9,1.4,5.6,3.8,7.4c0.2,0.2,0.3,0.4,0.3,0.7
		c0,0.3-0.2,0.5-0.5,0.5c-8.1,2.2-14,9.1-15.3,17.2h18.9L47.8,33.4L47.8,33.4z M38.2,58.7c-1.3-0.8-2.8-1.4-4.3-1.8
		c-0.2-0.1-0.4-0.3-0.4-0.5c0-0.2,0.1-0.5,0.2-0.6c2.1-1.6,3.3-4,3.3-6.6c0-4.5-3.7-8.2-8.2-8.2s-8.2,3.7-8.2,8.2
		c0,2.6,1.2,5,3.3,6.6c0.2,0.1,0.3,0.4,0.2,0.6c0,0.2-0.2,0.4-0.4,0.5c-8,2.2-13.6,9.4-13.9,17.6h19.8
		C29.9,68.1,33.2,62.3,38.2,58.7z M76,56.9c-0.2-0.1-0.4-0.3-0.4-0.5c0-0.2,0.1-0.5,0.2-0.6c2.1-1.6,3.3-4,3.3-6.6
		c0-4.5-3.7-8.2-8.2-8.2c-4.5,0-8.2,3.7-8.2,8.2c0,2.6,1.2,5,3.3,6.6c0.2,0.1,0.3,0.4,0.2,0.6c0,0.2-0.2,0.4-0.4,0.5
		c-1.5,0.4-3,1-4.3,1.8c5.1,3.6,8.3,9.4,8.5,15.8h19.8C89.6,66.3,84,59.1,76,56.9z M55,56.9l-1.3-0.4l1.1-0.8c2.1-1.6,3.3-4,3.3-6.6
		c0-4.5-3.7-8.2-8.2-8.2c-4.5,0-8.2,3.7-8.2,8.2c0,2.6,1.2,5,3.3,6.5l1.1,0.8l-1.3,0.4c-7.9,2.2-13.6,9.4-13.8,17.5h37.8
		C68.5,66.3,62.9,59.1,55,56.9z M77.1,37.5c0-0.9-0.7-1.6-1.6-1.6H51.8v-3.5c1,0,1.8-0.8,1.8-1.8v-2.5c0-1-0.8-1.8-1.8-1.8h-2.6
		c-1,0-1.8,0.8-1.8,1.8v2.5c0,1,0.8,1.8,1.8,1.8V36H24.3c-0.9,0-1.6,0.7-1.6,1.6c0,0.9,0.7,1.6,1.6,1.6h51.3
		C76.4,39.1,77.1,38.4,77.1,37.5z"/>
</g>
<g class="st0">
	<g class="st1">
		<path d="M51.5,73.1H10c0-16.2,1.3-33.3,12-41.5c-3.9-2.9-6.5-7.5-6.5-12.8c0-8.8,7.1-15.9,15.9-15.9c8.8,0,15.9,7.1,15.9,15.9
			c0,5.3-2.6,9.9-6.5,12.8C50.6,41.4,51.5,56.9,51.5,73.1z M79.2,41.3c-0.8,0.5-1.8,0.8-2.8,0.8c-1.1,0-2.1-0.3-2.9-0.9
			c0,6.1-0.1,12.1-0.1,18.2c-0.1,0.1-0.2,0.1-0.3,0.2L55.7,70.5c-1.8,1.1-1.4,2.4-0.1,2.4h17l4,0v0c1.4,0.1,2.8-0.8,2.8-2.6
			c0-9.6,0-19.3,0-28.9C79.3,41.3,79.3,41.3,79.2,41.3z M88.3,39.6c-2.2-1-4.4-2.1-6.6-3.1c0,0.1,0,0.2,0,0.4c0,1.9-1,3.5-2.4,4.4
			c0,0,0.1,0,0.1,0.1c2.3,1.1,4.7,2.2,7,3.3C89.5,46.1,91.4,41.1,88.3,39.6z M73.4,32.6c-2-0.9-3.9-1.9-5.9-2.8
			c0-0.6-0.2-1.1-0.5-1.5c-0.3-0.7-0.8-1.4-1.8-1.8c-2.9-1.3-5.8-2.6-8.7-4c-2.2-1-4.2,0.9-4.6,2.9c-0.2,1-0.4,2.1-0.6,3.2
			c-0.3,1.6,0.9,2.9,2.2,3.5c3.1,1.5,6.2,3,9.3,4.5c1.3,0.6,3,0,3.9-1.1c1.5,0.7,3,1.4,4.5,2.1c0-0.2-0.1-0.5-0.1-0.7
			C71.2,35.1,72.1,33.6,73.4,32.6z M80.3,36.9c0-2.1-1.7-3.9-3.9-3.9c-2.1,0-3.9,1.7-3.9,3.9c0,2.1,1.7,3.9,3.9,3.9
			C78.6,40.7,80.3,39,80.3,36.9z M57,59.9l14-8.8l0,0c1.1-0.7,1.4-2.1,0.7-3.2c-0.7-1.1-2.1-1.4-3.2-0.7l0,0l-14,8.8l0,0
			c-1.1,0.7-1.4,2.1-0.7,3.2C54.4,60.2,55.9,60.6,57,59.9L57,59.9z M57,66.9l14-8.8l0,0c1.1-0.7,1.4-2.1,0.7-3.2
			c-0.7-1.1-2.1-1.4-3.2-0.7l0,0l-14,8.8l0,0c-1.1,0.7-1.4,2.1-0.7,3.2C54.4,67.3,55.9,67.6,57,66.9L57,66.9z"/>
	</g>
</g>
<g class="st0">
	<path class="st1" d="M51.1,39.3c-1.3,0-1.5,2-0.2,2c0.9,0,1.9,0,2.6,0.7c0.6,0.6,0.6,1.6,0.6,2.3c0,1.3,2,1.5,2,0.2
		c0-1.4-0.2-2.7-1-3.8C54.1,39.6,52.4,39.4,51.1,39.3z M87.9,66.4c0-17.5-11.8-32.2-27.9-36.6c4.2-3.1,7-8.1,7-13.8
		c0-9.5-7.7-17.2-17.2-17.2c-9.5,0-17.2,7.7-17.2,17.2c0,5.7,2.8,10.6,7,13.8c-16.1,4.5-27.9,19.1-27.9,36.6h35.3v-5.5h5.4v5.5H87.9
		z M51.9,58.9h-4c-1.7,0-3.4-0.7-4.6-1.9c-1.2-1.2-1.9-2.9-1.9-4.6l0-9.4c0-3.6,2.9-6.5,6.5-6.5h4c3.6,0,6.5,2.9,6.5,6.5v9.4
		C58.4,56,55.5,58.9,51.9,58.9z M89.9,73.7c0,1.3-1,2.3-2.3,2.3H12.2C11,76,10,75,10,73.7c0-1.3,1-2.3,2.3-2.3h75.4
		C88.9,71.4,89.9,72.5,89.9,73.7z"/>
</g>
<g class="st0">
	<path class="st1" d="M18.2,47.5c0.2-1.8,0.6-3.6,1.1-5.4c0.4,1.4,1.2,2.7,2.2,3.8C20.3,46.3,19.2,46.8,18.2,47.5z M66.9,23.7
		c-0.4-0.1-0.7-0.4-0.7-0.8c-0.1-0.4,0.1-0.8,0.4-1c2.3-1.7,3.7-4.4,3.7-7.2c0-5-4-9-9-9s-9,4-9,9c0,2.9,1.3,5.5,3.7,7.2
		c0.3,0.2,0.5,0.6,0.4,1c-0.1,0.4-0.4,0.7-0.7,0.8c-1.6,0.4-3.2,1.1-4.7,1.9c-0.3,0.2-0.7,0.2-1,0c-1.5-0.8-3-1.5-4.7-1.9
		c-0.4-0.1-0.7-0.4-0.7-0.8c-0.1-0.4,0.1-0.8,0.4-1c2.3-1.7,3.7-4.4,3.7-7.2c0-5-4-9-9-9s-9,4-9,9c0,2.9,1.3,5.5,3.7,7.2
		c0.3,0.2,0.5,0.6,0.4,1c-0.1,0.4-0.3,0.7-0.7,0.8c-3,0.8-5.9,3-8.3,6c1-0.3,2-0.5,3-0.5c5.5,0,9.9,4.4,9.9,9.9c0,2.5-1,4.9-2.7,6.7
		c1.5,0.6,3,1.3,4.3,2.2c1.4-0.8,2.8-1.4,4.4-1.8c-2.2-1.6-3.6-4.2-3.6-7.1c0-4.9,4-8.9,8.9-8.9s8.9,4,8.9,8.9
		c0,2.9-1.4,5.5-3.6,7.1c1.5,0.4,3,1,4.4,1.8c1.3-0.9,2.8-1.6,4.3-2.2c-1.7-1.8-2.7-4.2-2.7-6.7c0-5.5,4.4-9.9,9.9-9.9
		c1.4,0,2.7,0.3,3.9,0.8C72.8,26.9,70,24.6,66.9,23.7z M78.4,45.8c1.2,0.4,2.3,1,3.4,1.6c-0.2-1.9-0.6-3.8-1.1-5.7
		C80.3,43.3,79.5,44.7,78.4,45.8z M33,46.4c-0.1-0.4,0.1-0.8,0.4-1c2-1.5,3.2-3.8,3.2-6.3c0-4.4-3.5-7.9-7.9-7.9s-7.9,3.5-7.9,7.9
		c0,2.5,1.2,4.8,3.2,6.3c0.3,0.2,0.5,0.6,0.4,1s-0.4,0.7-0.7,0.8c-7.8,2.2-13.3,9.1-13.7,17h20.2c0.3-6.2,3.5-11.6,8.2-15
		c-1.4-0.9-3-1.6-4.7-2C33.4,47.1,33.1,46.8,33,46.4z M76.2,47.2c-0.4-0.1-0.7-0.4-0.7-0.8c-0.1-0.4,0.1-0.8,0.4-1
		c2-1.5,3.2-3.8,3.2-6.3c0-4.4-3.5-7.9-7.9-7.9c-4.4,0-7.9,3.5-7.9,7.9c0,2.5,1.2,4.8,3.2,6.3c0.3,0.2,0.5,0.6,0.4,1
		c-0.1,0.4-0.4,0.7-0.7,0.8c-1.7,0.5-3.2,1.2-4.7,2c4.7,3.4,7.9,8.8,8.2,15h20.2C89.4,56.3,83.9,49.4,76.2,47.2z"/>
</g>
<g class="st0">
	<path class="st1" d="M46.5,37.2c1.7-1.7,2.8-3.8,3.1-6.2c0.3,2.3,1.4,4.5,3.1,6.2c-1,0.4-2.1,0.8-3.1,1.4
		C48.6,38,47.6,37.6,46.5,37.2z M29,34.3c-0.3,1.3-0.5,2.5-0.6,3.9c0.1,0,0.2,0,0.4,0c0,0,0.1,0,0.1,0c0.7-0.4,1.5-0.7,2.2-1
		C30.2,36.4,29.5,35.4,29,34.3z M70.4,38.2c0.1,0,0.3,0,0.4,0c-0.1-1.3-0.3-2.6-0.6-3.9c-0.5,1.1-1.2,2-2.1,2.9
		C68.9,37.5,69.7,37.8,70.4,38.2z M54.6,18.4c-0.1-0.3,0.1-0.7,0.3-0.9c2.4-1.7,3.7-4.4,3.7-7.3c0-5-4.1-9.1-9.1-9.1
		c-5,0-9.1,4.1-9.1,9.1c0,2.9,1.4,5.6,3.7,7.3c0.3,0.2,0.4,0.5,0.3,0.9c-0.1,0.3-0.3,0.6-0.6,0.7c-0.4,0.1-0.7,0.2-1.1,0.3
		c3.6,1.4,6.2,4.7,6.8,8.6c0.5-3.9,3.2-7.2,6.8-8.6c-0.4-0.1-0.7-0.2-1.1-0.3C54.9,19,54.7,18.7,54.6,18.4z M78.2,54.7
		c1.2,0.4,2.3,1,3.3,1.6c-0.2-1.7-0.6-3.3-1.2-4.9C79.8,52.7,79.1,53.8,78.2,54.7z M21.7,54.7c-1.2-1.2-2-2.6-2.4-4.2
		c-0.8,1.9-1.4,4-1.6,6.2C18.9,55.9,20.2,55.3,21.7,54.7z M65.4,37.8c-0.1-0.3,0.1-0.7,0.3-0.9c2.4-1.7,3.7-4.4,3.7-7.3
		c0-5-4.1-9.1-9.1-9.1c-5,0-9.1,4.1-9.1,9.1c0,2.9,1.4,5.6,3.7,7.3c0.3,0.2,0.4,0.5,0.3,0.9c-0.1,0.3-0.3,0.6-0.6,0.7
		c-0.9,0.2-1.7,0.5-2.6,0.9c3.8,1,6.7,4.5,6.7,8.6c0,2.9-1.4,5.5-3.6,7.1c1.6,0.4,3.1,1.1,4.5,1.9c1.4-0.9,2.8-1.7,4.4-2.2
		c-1.8-1.8-2.7-4.2-2.7-6.8c0-4.1,2.5-7.6,6.1-9.1c-0.5-0.2-0.9-0.3-1.4-0.4C65.8,38.4,65.5,38.1,65.4,37.8z M43.8,37.8
		c-0.1-0.3,0.1-0.7,0.3-0.9c2.4-1.7,3.7-4.4,3.7-7.3c0-5-4.1-9.1-9.1-9.1c-5,0-9.1,4.1-9.1,9.1c0,2.9,1.4,5.6,3.7,7.3
		c0.3,0.2,0.4,0.5,0.3,0.9c-0.1,0.3-0.3,0.6-0.6,0.7c-0.3,0.1-0.7,0.2-1,0.3c3.7,1.4,6.4,5,6.4,9.2c0,2.6-1,5-2.7,6.8
		c1.6,0.6,3,1.3,4.4,2.2c1.4-0.8,2.9-1.4,4.5-1.9C42.5,53.5,41,50.9,41,48c0-4,2.6-7.4,6.3-8.5c-0.9-0.4-1.9-0.7-2.8-1
		C44.2,38.4,43.9,38.1,43.8,37.8z M33.1,55.3c-0.1-0.3,0.1-0.7,0.3-0.9c2.1-1.5,3.3-3.9,3.3-6.4c0-4.4-3.6-8-8-8c-4.4,0-8,3.6-8,8
		c0,2.5,1.2,4.9,3.3,6.4c0.3,0.2,0.4,0.5,0.3,0.9S24,55.9,23.7,56c-7.8,2.2-13.4,9.2-13.8,17.2h20.3c0.3-6.3,3.5-11.7,8.3-15.2
		c-1.5-0.9-3.1-1.6-4.8-2.1C33.4,55.9,33.2,55.6,33.1,55.3z M76.2,56c-0.3-0.1-0.6-0.4-0.6-0.7c-0.1-0.3,0.1-0.7,0.3-0.9
		c2.1-1.5,3.3-3.9,3.3-6.4c0-4.4-3.6-8-8-8c-4.4,0-8,3.6-8,8c0,2.5,1.2,4.9,3.3,6.4c0.3,0.2,0.4,0.5,0.3,0.9
		c-0.1,0.3-0.3,0.6-0.6,0.7c-1.7,0.5-3.3,1.2-4.8,2.1c4.8,3.4,8,8.9,8.3,15.2H90C89.6,65.1,84,58.1,76.2,56z"/>
</g>
<g class="st0">
	<path class="st1" d="M88.8,53l-4-2.8l-4.5-3.2c0,0-0.4-0.3-0.4-0.3l0.1-0.4c0-0.2,0-0.4,0-0.6c0-2.8-0.2-5.7-0.4-8.1l-0.1-1.5
		l1.2,0.9l2.6,1.8l2.6,1.8c1.3,0.9,2.6,0.3,3.3-0.7c0.7-1,0.8-2.4-0.5-3.3l-2.1-1.5l-7.3-5.1c0,0-0.3-0.2-0.3-0.2l0-0.3l0-0.1l0-0.1
		c0,0,0-0.3,0-0.3l0.2-0.2c1.3-1.2,2-2.9,2-4.6c0-3.5-2.8-6.3-6.3-6.3c-3.5,0-6.3,2.8-6.3,6.3c0,1.8,0.7,3.4,2,4.6
		c0,0,0.2,0.2,0.2,0.3l0,0.3c0,0,0,0.1,0,0.1l0,0.3l-0.3,0.2l-5.9,4.1l-1.8,1.2l-0.4,0.3l-0.4-0.3l-7.7-5.4c0,0-0.3-0.2-0.3-0.2
		l0-0.3l0-0.1l0-0.1c0,0,0-0.3,0-0.3l0.2-0.2c1.3-1.2,2-2.9,2-4.6c0-3.5-2.8-6.3-6.3-6.3c-3.5,0-6.3,2.8-6.3,6.3
		c0,1.8,0.7,3.4,2,4.6l0.2,0.2l0,0.3c0,0.1,0,0.1,0,0.2l0,0.3l-0.3,0.2l-2.2,1.6l-5.4,3.8l-0.4,0.3l-0.4-0.3l-7.7-5.4
		c0,0-0.3-0.2-0.3-0.3l0-0.3c0,0,0-0.1,0-0.1l0-0.3l0.2-0.2c1.3-1.2,2-2.9,2-4.6c0-3.5-2.8-6.3-6.3-6.3c-3.5,0-6.3,2.8-6.3,6.3
		c0,1.8,0.7,3.4,2,4.6c0,0,0.2,0.2,0.2,0.2l0,0.3l0,0.1l0,0.1c0,0,0,0.3,0,0.4l-0.3,0.2L10.9,37c-1.2,0.9-1.1,2-0.5,2.8
		c0.8,1.1,2.3,1.7,3.7,0.8l3.7-2.6l1.4-1l1.2-0.8l-0.1,1.5c-0.1,2.4-0.3,5.2-0.3,8c0,0.2,0,0.4,0.1,0.6l0.1,0.4L19.8,47l-8.9,6.2
		c-1.2,0.9-1.1,2-0.5,2.8c0.8,1.1,2.3,1.7,3.7,0.8l4.4-3.1l5.8-4l0.2-0.1l0.2,0c0.1,0,0.2,0,0.4,0h0.2l0.2,0.1L36.1,57
		c1,0.7,1.8,0.5,2.3,0.2l0,0l0,0c0.3-0.1,0.5-0.2,0.7-0.3l1.3-0.9l8.9-6.2l0.2-0.1l0.2,0c0.1,0,0.2,0,0.4,0h0.2l0.2,0.1L61,57
		c1,0.7,1.8,0.5,2.3,0.2l0,0l0,0c0.3-0.1,0.5-0.2,0.7-0.3l10.2-7.2l0.2-0.1l0.2,0c0.1,0,0.2,0,0.4,0h0.2l0.2,0.1L86,57
		c0.6,0.4,1.2,0.6,1.8,0.4c0.6-0.1,1.1-0.5,1.4-1c0.4-0.5,0.5-1.1,0.5-1.7C89.8,54,89.4,53.4,88.8,53z M45.3,37.6
		c-0.2,2.4-0.3,5.2-0.3,8c0,0.2,0,0.4,0.1,0.6l0.1,0.4L44.8,47l-6.9,4.8l-0.4,0.3l-0.4-0.3l-6.8-4.7L30,46.8l0.1-0.4
		c0-0.2,0-0.4,0-0.6c0-2.8-0.2-5.7-0.4-8.1l-0.1-1.5l1.2,0.9l1.2,0.8l4,2.8c1,0.7,1.8,0.5,2.3,0.2l0,0l0,0c0.3-0.1,0.5-0.2,0.7-0.3
		l3.7-2.6l1.4-1l1.2-0.8L45.3,37.6z M70.3,37.6c-0.2,2.4-0.3,5.2-0.3,8c0,0.2,0,0.4,0.1,0.6l0.1,0.4L69.8,47l-4.1,2.8l-2.8,2
		l-0.4,0.3l-0.4-0.3l-4.5-3.2l-2.3-1.6L55,46.8l0.1-0.4c0-0.2,0-0.4,0-0.6c0-2.8-0.2-5.7-0.4-8.1l-0.1-1.5l1.2,0.9l4,2.8l1.2,0.8
		c1,0.7,1.8,0.5,2.3,0.2l0,0l0.1,0c0.3-0.1,0.5-0.2,0.7-0.3l3.4-2.4l1.7-1.2l1.2-0.8L70.3,37.6z"/>
</g>
<g class="st0">
	<g class="st1">
		<g>
			<path d="M49.9,77.4c-5.5,0-10-4.5-10-10V47.5H19.9c-5.5,0-10-4.5-10-10s4.5-10,10-10l19.9,0v-20c0-5.5,4.5-10,10-10s10,4.5,10,10
				v19.9h19.9c5.5,0,10,4.5,10,10s-4.5,10-10,10H59.8v19.9C59.8,72.9,55.4,77.4,49.9,77.4z M48.5,5.8L48.5,5.8c1,0,3.2,0.4,3.2,3.6
				l0,0c0,1.1,0.9,2,2,2c1.1,0,2-0.9,2-2l0,0c0-2.3-0.7-4.2-2.1-5.6c-2.1-2.1-4.9-2.1-5.2-2.1l0,0c-1.1,0-2,0.9-2,2
				C46.5,5,47.4,5.8,48.5,5.8L48.5,5.8z M78.6,35.1L78.6,35.1c1,0,3.2,0.4,3.2,3.6l0,0c0,1.1,0.9,2,2,2c1.1,0,2-0.9,2-2l0,0
				c0-2.3-0.7-4.2-2.1-5.6c-2.1-2.1-4.9-2.1-5.2-2.1l0,0c-1.1,0-2,0.9-2,2C76.6,34.2,77.5,35.1,78.6,35.1L78.6,35.1z"/>
		</g>
	</g>
</g>
<g class="st0">
	<path class="st1" d="M79.5,38.3C79.5,38.2,79.5,38.2,79.5,38.3c3.3-3.4,6-6.1,6-6.1c0.8-0.8,1.2-1.8,1.2-2.9c0-1.1-0.4-2.1-1.2-2.9
		l-0.1-0.1c-0.8-0.8-1.8-1.2-2.9-1.2c-1.1,0-2.1,0.4-2.9,1.2l-0.5,0.5c-0.2-0.3-0.4-0.6-0.7-0.9c0,0,0,0,0,0c3.4-3.4,6-6.1,6-6.1
		c1.6-1.6,1.6-4.2,0-5.8L84.3,14c-1.6-1.6-4.2-1.6-5.8,0l-1.1,1.1c-0.2-0.3-0.4-0.6-0.7-0.9c0,0,0,0,0,0l6-6
		c0.8-0.8,1.2-1.8,1.2-2.9c0-1.1-0.4-2.1-1.2-2.9c0,0-0.1-0.1-0.1-0.1c-1.6-1.6-4.2-1.6-5.8,0l-9.2,9.2c-0.2-0.3-0.4-0.6-0.7-0.9
		c0,0,0,0,0,0c3.4-3.4,6-6.1,6-6.1c1.6-1.6,1.6-4.2,0-5.8c0,0-0.1-0.1-0.1-0.1c-0.8-0.8-1.8-1.2-2.9-1.2c-1.1,0-2.1,0.4-2.9,1.2
		L45.3,20.5c-0.2-0.2-0.4-0.5-0.6-0.7c0,0-0.1-0.1-0.2-0.2c2.2-2.2,6.2-6.2,6.2-6.2c0.7-0.7,1.1-1.7,1.1-2.7c0-1-0.4-2-1.1-2.7
		l-0.4-0.4c-1.5-1.5-4-1.5-5.5,0c0,0-12.6,12.6-12.6,12.6c-0.1,0.1-0.1,0.1-0.2,0.2c0,0-0.1,0.1-0.1,0.1l0,0l0,0
		c-0.1,0.1-0.2,0.2-0.3,0.2c-0.1,0.1-0.3,0.3-0.4,0.4c-1.8,1.8-3.2,3.8-4.3,6l-1.6,1.6L22.1,32c-0.1,0.1-0.2,0.3-0.3,0.4
		c0,0-0.1,0.1-0.1,0.1c-0.2,0.1-0.4,0.3-0.6,0.5c-10.1,10.1-10.1,26.7,0,36.8s26.7,10.1,36.8,0c0.3-0.3,0.5-0.6,0.8-0.8l0.1-0.1
		c0.2-0.1,0.4-0.3,0.6-0.5c0,0,20.2-20.2,20.2-20.2c2.6-2.6,2.7-6.6,0.5-9.4C79.8,38.6,79.7,38.4,79.5,38.3z M75.9,44.6
		c0,0-20.2,20.2-20.2,20.2c-0.1,0-0.2,0.1-0.3,0.2c-0.1,0.1-0.3,0.2-0.4,0.4l-0.3,0.3c-0.2,0.2-0.4,0.4-0.6,0.6
		c-8.2,8.2-21.4,8.2-29.6,0c-8.2-8.2-8.2-21.5,0-29.6c0.1-0.1,0.2-0.2,0.3-0.3c0.1-0.1,0.2-0.2,0.4-0.3c0.1-0.1,0.2-0.2,0.3-0.3
		c0.1-0.1,0.1-0.2,0.1-0.2c0,0,12.6-12.6,12.6-12.6c0.3-0.3,0.8-0.5,1.2-0.5s0.9,0.2,1.2,0.5l0.4,0.4c0.7,0.7,0.7,1.8,0,2.4
		l-7.6,7.6c-0.7,0.7-0.9,1.7-0.6,2.6c0.3,0.9,1.1,1.6,2.1,1.7c0.1,0,0.2,0,0.3,0c0.8,0.1,1.8-0.1,2.3-0.7l22.9-22.9
		c0.4-0.4,0.8-0.6,1.4-0.6c0.5,0,1,0.2,1.4,0.6c0.4,0.5,0.6,0.9,0.6,1.5s-0.2,1-0.6,1.4l-20,20c-0.6,0.6-0.8,1.3-0.7,2.1
		c0.1,0.8,0.5,1.5,1.2,1.9c0.1,0,0.1,0.1,0.2,0.1c1,0.7,2.4,0.6,3.3-0.3l23-23c0.8-0.8,2-0.8,2.7,0c0.4,0.5,0.6,0.9,0.7,1.5
		c0,0.5-0.2,1-0.6,1.4l-23,23c-0.9,0.9-1,2.2-0.3,3.2c0.1,0.1,0.1,0.2,0.2,0.2c0.4,0.7,1.1,1.1,1.9,1.2c0.8,0.1,1.5-0.2,2.1-0.7
		l18.1-18c0.4-0.4,0.8-0.6,1.4-0.6c0.5,0,1,0.2,1.4,0.6c0.8,0.8,0.8,2.1,0.1,2.8c0,0-21,21-21,21c-0.6,0.6-0.8,1.4-0.7,2.2
		c0,0.1,0,0.2,0.1,0.4c0.1,1,0.8,1.8,1.7,2.1c0.9,0.3,1.9,0.1,2.6-0.6l15.6-15.6c0.4-0.4,0.8-0.6,1.4-0.6c0.5,0,1,0.2,1.4,0.6
		C76.7,42.6,76.7,43.8,75.9,44.6z"/>
</g>
<g class="st0">
	<path class="st1" d="M83.3,31c0,1.4-1.1,2.5-2.5,2.5c-1.4,0-2.5-1.1-2.5-2.5c0-15.7-12.8-28.6-28.6-28.6C34,2.4,21.2,15.3,21.2,31
		S34,59.6,49.8,59.6c0.6,0,1.2,0.2,1.7,0.7c0.5,0.5,0.8,1.1,0.8,1.8c0,5.7,4.6,10.2,10.2,10.2s10.2-4.6,10.2-10.2
		c0-1.4,1.1-2.5,2.5-2.5c1.4,0,2.5,1.1,2.5,2.5c0,8.4-6.8,15.2-15.2,15.2c-7.6,0-13.9-5.6-15-12.9C30.1,63.3,16.2,48.7,16.2,31
		c0-18.5,15.1-33.5,33.5-33.5C68.3-2.5,83.3,12.5,83.3,31z M55.7,43c0,6,4.9,10.9,10.9,10.9c6,0,10.9-4.9,10.9-10.9
		c0-1.4-1.1-2.5-2.5-2.5c-1.4,0-2.5,1.1-2.5,2.5c0,3.3-2.7,5.9-5.9,5.9c-3.3,0-5.9-2.7-5.9-5.9c0-3.3,2.7-5.9,5.9-5.9
		c1,0,1.9-0.6,2.3-1.5c0.1-0.3,0.2-0.7,0.2-1c0-10.9-8.9-19.8-19.8-19.8c-10.9,0-19.8,8.9-19.8,19.8c0,1.4,1.1,2.5,2.5,2.5
		s2.5-1.1,2.5-2.5c0-8.2,6.6-14.8,14.8-14.8c7.5,0,13.6,5.5,14.6,12.7C59.2,33.7,55.7,37.9,55.7,43z"/>
</g>
<g class="st0">
	<path class="st1" d="M87.2,31.1c0,1.4-1.1,2.5-2.5,2.5s-2.5-1.1-2.5-2.5c0-15.8-12.8-28.6-28.6-28.6c-15.8,0-28.6,12.8-28.6,28.6
		c0,4.6,1.1,9,3.1,12.9c-1.4,1.5-2.3,3.4-2.6,5.5c-3.5-5.3-5.5-11.6-5.5-18.4c0-18.5,15.1-33.6,33.6-33.6
		C72.2-2.5,87.2,12.6,87.2,31.1z M51.4,64.6c1.1,7.3,7.4,12.9,15,12.9c8.4,0,15.2-6.8,15.2-15.2c0-1.4-1.1-2.5-2.5-2.5
		s-2.5,1.1-2.5,2.5c0,5.7-4.6,10.3-10.3,10.3c-5.7,0-10.2-4.6-10.2-10.3c0-0.7-0.3-1.4-0.8-1.9c-0.5-0.4-1.1-0.7-1.7-0.7
		c-4.2,0-8.2-0.9-11.8-2.6c-1.4,1.5-3.3,2.5-5.4,2.8C40.9,62.5,46,64.2,51.4,64.6z M59.5,43.1c0,6,4.9,10.9,10.9,10.9
		s10.9-4.9,10.9-10.9c0-1.4-1.1-2.5-2.5-2.5s-2.5,1.1-2.5,2.5c0,3.3-2.7,5.9-5.9,5.9c-3.3,0-5.9-2.7-5.9-5.9c0-3.3,2.7-5.9,5.9-5.9
		c1,0,1.9-0.6,2.3-1.5c0.1-0.3,0.2-0.7,0.2-1c0-10.9-8.9-19.8-19.8-19.8c-10.9,0-19.8,8.9-19.8,19.8c0,1.4,1.1,2.5,2.5,2.5
		c1.4,0,2.5-1.1,2.5-2.5c0-8.2,6.6-14.8,14.8-14.8c7.5,0,13.6,5.5,14.7,12.7C63.1,33.7,59.5,38,59.5,43.1z M42.4,36.1
		c0,3.9,3.1,7,7,7c3.9,0,7-3.1,7-7c0-3.9-3.1-7-7-7C45.6,29.1,42.4,32.3,42.4,36.1z M35,57.5c3.9,0,7-3.1,7-7c0-3.9-3.1-7-7-7
		c0,0,0,0,0,0c0,0,0,0,0,0c-3.9,0-7,3.1-7,7C28.1,54.4,31.2,57.5,35,57.5z M20.7,57.9c-3.9,0-7,3.1-7,7c0,3.9,3.1,7,7,7
		c3.9,0,7-3.1,7-7C27.7,61.1,24.5,57.9,20.7,57.9z"/>
</g>
<g class="st0">
	<path class="st1" d="M53.7,55.3c0,2.6-2.1,4.7-4.7,4.7c-2.6,0-4.7-2.1-4.7-4.7c0-2.6,2.1-4.7,4.7-4.7
		C51.6,50.6,53.7,52.7,53.7,55.3z M89,31.9l-4.3-4.3l-4.3-4.3c-0.8-0.8-2-1.2-3.1-0.9c-1.2,0.3-2.1,1.3-2.4,2.4
		c-0.3,1.1,0,2.2,0.9,3.1c0,0,4.2,4.2,6.3,6.3l-0.7,0.7l-5.6,5.6c-0.8,0.8-1.2,2-0.9,3.1c0.3,1.2,1.3,2.1,2.4,2.4
		c1.1,0.3,2.2,0,3.1-0.9l8.7-8.6C90.2,35.2,90.2,33.2,89,31.9z M76.1,36.5c1.3-1.3,1.3-3.4,0-4.7l-4.3-4.3l-0.8-0.8v14.9L76.1,36.5z
		 M47.4,36.5c1.3-1.3,1.3-3.4,0-4.7L43,27.6l-0.8-0.8v14.9L47.4,36.5z M23.9,40.5c-0.8,0.8-1.2,2-0.9,3.1c0.3,1.2,1.3,2.1,2.4,2.4
		c0.5,0.1,1.1,0.1,1.6,0v-8.7L23.9,40.5z M25.5,22.4c-1.2,0.3-2.1,1.3-2.4,2.4c-0.3,1.1,0,2.2,0.9,3.1c0,0,1.5,1.5,3.2,3.2v-8.7
		C26.6,22.2,26,22.2,25.5,22.4z M52.6,40.5c-0.8,0.8-1.2,2-0.9,3.1c0.3,1.2,1.3,2.1,2.4,2.4c0.5,0.1,1.1,0.1,1.6,0v-8.7L52.6,40.5z
		 M54.2,22.4c-1.2,0.3-2.1,1.3-2.4,2.4c-0.3,1.1,0,2.2,0.9,3.1c0,0,1.5,1.5,3.2,3.2v-8.7C55.3,22.2,54.7,22.2,54.2,22.4z M68.7,16.5
		v47.2c0,5.1-4.2,9.3-9.3,9.3H38.6c-5.1,0-9.3-4.2-9.3-9.3V16.5c0-5.1,4.2-9.3,9.3-9.3h15.6c0-2.2,1.8-3.9,3.9-3.9
		c2.2,0,3.9,1.8,3.9,3.9c0,0.1,0,0.3,0,0.4C65.9,8.7,68.7,12.3,68.7,16.5z M64.4,16.5c0-2.7-2.2-4.9-4.9-4.9H38.6
		c-2.7,0-4.9,2.2-4.9,4.9v47.2c0,2.7,2.2,4.9,4.9,4.9h20.9c2.7,0,4.9-2.2,4.9-4.9V16.5z M61.5,20.5c-1.2-3.3-4.3-5.6-7.9-5.6h-9.2
		c-4.7,0-8.5,3.8-8.5,8.5v21.4c0,4,2.8,7.4,6.6,8.3c0.7-2,2.3-3.5,4.2-4.2h-2.4c-2.3,0-4.1-1.8-4.1-4.1V23.3c0-2.3,1.8-4.1,4.1-4.1
		h9.2c2.3,0,4.1,1.8,4.1,4.1v21.4c0,2.3-1.8,4.1-4.1,4.1h-2.4c2,0.7,3.5,2.2,4.2,4.2c3.8-0.9,6.6-4.2,6.6-8.3V23.3
		C62.1,22.3,61.9,21.4,61.5,20.5z M24.3,31.9L20,27.6l-4.3-4.3c-0.8-0.8-2-1.2-3.1-0.9c-1.2,0.3-2.1,1.3-2.4,2.4
		c-0.3,1.1,0,2.2,0.9,3.1c0,0,4.2,4.2,6.3,6.3l-0.7,0.7L11,40.5c-0.8,0.8-1.2,2-0.9,3.1c0.3,1.2,1.3,2.1,2.4,2.4
		c1.1,0.3,2.2,0,3.1-0.9l8.7-8.6C25.6,35.2,25.6,33.2,24.3,31.9z"/>
</g>
<g class="st0">
	<path class="st1" d="M53.7,55.3c0,2.6-2.1,4.7-4.7,4.7c-2.6,0-4.7-2.1-4.7-4.7c0-2.6,2.1-4.7,4.7-4.7
		C51.6,50.6,53.7,52.7,53.7,55.3z M68.7,16.5v47.2c0,5.1-4.2,9.3-9.3,9.3H38.6c-5.1,0-9.3-4.2-9.3-9.3V16.5c0-5.1,4.2-9.3,9.3-9.3
		h15.6c0-2.2,1.8-3.9,3.9-3.9c2.2,0,3.9,1.8,3.9,3.9c0,0.1,0,0.3,0,0.4C65.9,8.7,68.7,12.3,68.7,16.5z M64.4,16.5
		c0-2.7-2.2-4.9-4.9-4.9H38.6c-2.7,0-4.9,2.2-4.9,4.9v47.2c0,2.7,2.2,4.9,4.9,4.9h20.9c2.7,0,4.9-2.2,4.9-4.9V16.5z M61.5,20.5
		c-1.2-3.3-4.3-5.6-7.9-5.6h-9.2c-4.7,0-8.5,3.8-8.5,8.5v21.4c0,4,2.8,7.4,6.6,8.3c0.7-2,2.3-3.5,4.2-4.2h-2.4
		c-2.3,0-4.1-1.8-4.1-4.1V23.3c0-2.3,1.8-4.1,4.1-4.1h9.2c2.3,0,4.1,1.8,4.1,4.1v21.4c0,2.3-1.8,4.1-4.1,4.1h-2.4
		c2,0.7,3.5,2.2,4.2,4.2c3.8-0.9,6.6-4.2,6.6-8.3V23.3C62.1,22.3,61.9,21.4,61.5,20.5z"/>
</g>
<g class="st0">
	<polygon class="st1" points="60.8,20.4 60.8,20.4 60.8,20.4 	"/>
	<path class="st2" d="M63.1,20.5c0,0,0.1,0,0.2-0.1c0.1-0.1,0.1-0.2,0-0.4c-0.1-0.1-0.2-0.1-0.4,0c-0.1,0.1-0.1,0.1-0.1,0.2
		c0,0,0,0.1,0.1,0.2S63.1,20.5,63.1,20.5z"/>
	<circle class="st2" cx="35.5" cy="22" r="0.7"/>
	<path class="st1" d="M89.2,30c0.8-0.6,0.9-1.8,0.2-2.5c-0.6-0.8-1.8-0.9-2.6-0.2c-0.1,0.1-0.3,0.2-0.4,0.3c-0.1-0.7-0.4-1.4-0.9-2
		c-1.5-1.8-4.1-2-5.8-0.5c-0.9,0.7-1.4,1.7-1.5,2.8c0,0.4,0,0.8,0.1,1.2c-0.5-0.2-0.8-0.5-0.9-0.6c-0.1-0.1-0.2-0.1-0.3-0.2
		c-2.2-2.6-4.9-4.7-8.1-6.3c0.5-1.3,0.7-2.7,0.7-4.2c0-7.1-5.8-12.9-13-12.9c-7.1,0-13,5.8-13,13c0,1.3,0.2,2.6,0.6,3.8
		c-2.2,1-4.3,2.3-6.1,3.9c0,0-0.1,0-0.1,0c-0.1-1.6-0.7-3.2-1.9-4.5c-2.6-2.6-6.8-2.6-9.4,0c-0.9,0.9-1.5,2-1.8,3.2
		c-3.6,1.4-6.6,4.1-8.3,7.5c-0.1,0-0.2,0-0.3,0c-3.7,0-6.6,3-6.6,6.6v1.2c0,3.7,3,6.6,6.6,6.6c0.3,0,0.6-0.1,1-0.1
		c2.6,4.4,7.4,7.3,12.9,7.3c1.3,0,2.6-0.2,3.8-0.5c0.2,0.3,0.4,1.8,0.4,2.3v6.3c0,2.3,1.9,4.2,4.2,4.2s4.2-1.9,4.2-4.2v-2.6
		c3.9,1.5,8.4,2.3,13.3,2.3c4.4,0,8.4-0.6,12.1-1.8v2.1c0,2.3,1.9,4.2,4.2,4.2s4.2-1.9,4.2-4.2v-6.3c0-0.2,0-0.4-0.1-0.6
		c3.4-3.1,5.5-7.4,5.5-12.7c0-3.1-0.7-6-2-8.7C82.8,33.4,85.9,32.7,89.2,30z M82,27.8c0.2-0.2,0.6-0.2,0.7,0.1
		c0.2,0.2,0.2,0.6-0.1,0.7c-0.1,0.1-0.3,0.1-0.4,0.1c-0.1,0-0.2,0-0.4-0.2c-0.1-0.1-0.1-0.3-0.1-0.4C81.8,28,81.9,27.9,82,27.8z
		 M24.6,33.3c-0.8,0-1.5-0.7-1.5-1.5s0.7-1.5,1.5-1.5c0.8,0,1.5,0.7,1.5,1.5S25.4,33.3,24.6,33.3z M68.7,29c-0.4,0.9-1.4,1.4-2.3,1
		c-1.1-0.4-2.2-0.7-3.3-1c-1.9-0.4-3.8-0.7-5.8-0.8c-2.3,0-4.6,0.2-6.8,0.8c-1.1,0.3-2.2,0.6-3.3,1c-0.9,0.4-2-0.1-2.3-1
		c-0.4-0.9,0.1-2,1-2.3c0.4-0.1,0.8-0.2,1.1-0.4c1.4-0.5,2.7-0.8,4.1-1.1c-2.3-1.7-3.8-4.4-3.8-7.4c0-5.1,4.2-9.3,9.3-9.3
		c5.2,0,9.3,4.2,9.3,9.3c0,3-1.5,5.7-3.8,7.4c1.4,0.3,2.8,0.6,4.1,1.1c0.4,0.1,0.8,0.2,1.1,0.4C68.6,27,69,28.1,68.7,29z"/>
</g>
<g class="st0">
	<path class="st1" d="M60.8,20.4C60.8,20.4,60.8,20.4,60.8,20.4C60.8,20.4,60.8,20.4,60.8,20.4L60.8,20.4z M55,18.3
		c-4.6,0-8.4,3.8-8.4,8.4c0,4.6,3.8,8.4,8.4,8.4c4.6,0,8.4-3.8,8.4-8.4C63.4,22.1,59.7,18.3,55,18.3z M55-2.5
		c-4.6,0-8.4,3.8-8.4,8.4c0,4.6,3.8,8.4,8.4,8.4c4.6,0,8.4-3.8,8.4-8.4C63.4,1.3,59.7-2.5,55-2.5z M82.5,47.7
		c0.6-0.5,0.7-1.5,0.2-2.1c-0.5-0.6-1.5-0.7-2.1-0.2c-0.1,0.1-0.2,0.2-0.3,0.3c-0.1-0.6-0.3-1.2-0.7-1.7c-1.2-1.5-3.4-1.7-4.9-0.4
		c-0.7,0.6-1.1,1.4-1.2,2.3c0,0.3,0,0.7,0.1,1c-0.4-0.2-0.7-0.4-0.7-0.5c0,0,0,0,0,0l0,0c-0.1-0.1-0.2-0.1-0.3-0.2
		c-3.9-4.6-10.2-7.7-17.3-7.7c-5.8,0-11.1,2.1-15,5.4c0,0,0,0-0.1,0c0-1.4-0.6-2.7-1.6-3.7c-2.2-2.2-5.6-2.2-7.8,0
		c-0.8,0.8-1.2,1.7-1.5,2.7c-3,1.1-5.5,3.4-6.9,6.3c-0.1,0-0.2,0-0.3,0c-3,0-5.5,2.5-5.5,5.5v1c0,3,2.5,5.5,5.5,5.5
		c0.3,0,0.5,0,0.8-0.1c2.2,3.6,6.2,6.1,10.7,6.1c1.1,0,2.2-0.2,3.2-0.4c0.1,0.1,0.2,0.3,0.3,0.4c0,0,0,0,0,0v6.5
		c0,1.9,1.6,3.5,3.5,3.5c1.9,0,3.5-1.6,3.5-3.5v-1.9c3.2,1.2,7,1.9,11,1.9c3.6,0,7-0.5,10-1.5v1.5c0,1.9,1.6,3.5,3.5,3.5
		s3.5-1.6,3.5-3.5v-5.5c2.8-2.6,4.5-6.1,4.5-10.5c0-2.6-0.6-5-1.6-7.3C77.2,50.6,79.8,50,82.5,47.7z M30,49.3c0,0.7-0.6,1.2-1.3,1.2
		c-0.7,0-1.3-0.6-1.3-1.2c0-0.7,0.6-1.3,1.3-1.3C29.4,48,30,48.6,30,49.3z M76.5,46.5c-0.1-0.1-0.1-0.2-0.1-0.3c0-0.1,0-0.2,0.2-0.3
		c0.2-0.2,0.5-0.1,0.6,0.1c0.1,0.2,0.1,0.5-0.1,0.6c-0.1,0.1-0.2,0.1-0.3,0.1C76.7,46.7,76.6,46.7,76.5,46.5z M48,48.6
		c-0.8,0.3-1.6-0.1-1.9-0.9c-0.3-0.8,0.1-1.6,0.9-1.9l0,0c3-1.2,6.2-1.7,9.5-1.6c3,0.1,5.8,0.6,8.6,1.6l0,0c0.8,0.3,1.2,1.2,0.9,1.9
		c-0.3,0.8-1.2,1.2-1.9,0.9l0,0c-2.4-0.9-4.9-1.4-7.5-1.4C53.5,47.1,50.7,47.6,48,48.6L48,48.6z"/>
</g>
<g class="st0">
	<path class="st1" d="M89.1,26.4c0.8-0.6,0.9-1.8,0.2-2.5c-0.6-0.8-1.8-0.9-2.6-0.2c-0.1,0.1-0.3,0.2-0.4,0.3
		c-0.1-0.7-0.4-1.4-0.9-2c-1.5-1.8-4.1-2-5.8-0.5c-0.9,0.7-1.4,1.7-1.5,2.8c0,0.4,0,0.8,0.1,1.2c-0.5-0.2-0.8-0.5-0.9-0.6
		c0,0,0,0,0,0l0,0c-0.1-0.1-0.2-0.1-0.3-0.2c-4.7-5.6-12.3-9.2-20.8-9.2c-7,0-13.4,2.5-18,6.5c0,0,0,0-0.1-0.1
		c-0.1-1.6-0.7-3.2-1.9-4.5c-2.6-2.6-6.8-2.6-9.4,0c-0.9,0.9-1.5,2.1-1.8,3.2c-3.6,1.4-6.6,4.1-8.3,7.5c-0.1,0-0.2,0-0.3,0
		c-3.7,0-6.6,3-6.6,6.6V36c0,3.7,3,6.6,6.6,6.6c0.3,0,0.6-0.1,1-0.1c2.6,4.4,7.4,7.3,12.9,7.3c1.3,0,2.6-0.2,3.8-0.5
		c0.1,0.2,0.2,0.3,0.4,0.5c0,0,0,0,0,0v7.8c0,2.3,1.9,4.2,4.2,4.2c2.3,0,4.2-1.9,4.2-4.2v-2.3c3.9,1.5,8.4,2.3,13.3,2.3
		c4.4,0,8.5-0.6,12.1-1.8v1.8c0,2.3,1.9,4.2,4.2,4.2c2.3,0,4.2-1.9,4.2-4.2V51c3.4-3.1,5.4-7.4,5.4-12.6c0-3.1-0.7-6-2-8.7
		C82.8,29.8,85.9,29.1,89.1,26.4z M25.9,28.3c0,0.8-0.7,1.5-1.5,1.5c-0.8,0-1.5-0.7-1.5-1.5c0-0.8,0.7-1.5,1.5-1.5
		C25.3,26.8,25.9,27.4,25.9,28.3z M81.9,25c-0.1-0.1-0.1-0.3-0.1-0.4c0-0.1,0.1-0.2,0.2-0.4c0.2-0.2,0.6-0.2,0.7,0.1
		c0.2,0.2,0.2,0.6-0.1,0.8c-0.1,0.1-0.3,0.1-0.4,0.1C82.1,25.2,82,25.1,81.9,25z M47.7,27.5c-0.9,0.4-2-0.1-2.3-1.1
		c-0.4-0.9,0.1-2,1-2.3l0,0c3.6-1.4,7.5-2,11.5-2c3.6,0.1,7,0.7,10.3,2l0,0c0.9,0.4,1.4,1.4,1.1,2.3c-0.4,0.9-1.4,1.4-2.3,1.1l0,0
		c-2.9-1.1-5.9-1.7-9.1-1.7C54.3,25.7,50.9,26.2,47.7,27.5L47.7,27.5z"/>
</g>
<g class="st0">
	<path class="st1" d="M71.6,49.6l2.4-0.7l-2-1.5c-0.9-0.6-1.6-1.4-2.1-2.3c0.9-0.2,1.7-0.7,2.3-1.4c1.1-1.4,1.2-3.3,0.2-4.7
		l-1.6-2.4c1.4-1.6,3.4-2.6,5.7-2.6c4.2,0,7.5,3.4,7.5,7.5c0,2.4-1.1,4.6-3.1,6l-2,1.5l2.4,0.7c6.8,1.9,8.4,7.6,8.6,16.3H63
		C63.1,57.5,64.8,51.5,71.6,49.6z M70.9,42.6c-0.1,0.1-0.2,0.3-0.4,0.4c-0.1,0.1-0.2,0.1-0.3,0.2c0,0-0.1,0.1-0.1,0.1
		c-0.1,0.1-0.3,0.1-0.4,0.2c0,0,0,0,0,0c-0.2,0.1-0.5,0.1-0.7,0.1c-0.3,0-0.6-0.1-0.8-0.2l-8.5-3.1c-0.1,0.1-0.2,0.1-0.3,0.2
		c-0.5,0.3-1.1,0.6-1.7,0.9c-0.1,0.1-0.3,0.1-0.4,0.2c-0.7,0.3-1.4,0.5-2.1,0.8c-0.2,0-0.4,0.1-0.7,0.2c-0.5,0.1-1.1,0.3-1.6,0.3
		c-0.3,0-0.5,0.1-0.7,0.1C51.5,43,50.7,43,50,43c0,0,0,0,0,0c0,0,0,0-0.1,0c-0.8,0-1.5-0.1-2.2-0.2c-0.2,0-0.5-0.1-0.7-0.1
		c-0.5-0.1-1.1-0.2-1.6-0.3c-0.2,0-0.5-0.1-0.7-0.2c-0.7-0.2-1.4-0.5-2.1-0.8c-0.1-0.1-0.2-0.1-0.4-0.2c-0.6-0.3-1.1-0.6-1.7-0.9
		c-0.1,0-0.2-0.1-0.3-0.2l-8.5,3.1c-0.3,0.1-0.5,0.2-0.8,0.2c-0.4,0-0.8-0.1-1.1-0.3c0,0-0.1,0-0.1-0.1c-0.1-0.1-0.2-0.1-0.3-0.2
		c-0.1-0.1-0.3-0.2-0.4-0.4c-0.6-0.8-0.7-1.9-0.1-2.8l4.5-6.8c-0.1-0.2-0.2-0.4-0.3-0.6c-0.2-0.4-0.4-0.8-0.5-1.2
		c-0.1-0.3-0.2-0.6-0.3-0.9c-0.1-0.4-0.2-0.7-0.3-1c-0.1-0.3-0.2-0.7-0.2-1c-0.1-0.3-0.1-0.6-0.2-0.9c-0.1-0.4-0.1-0.8-0.2-1.2
		c0-0.2,0-0.5,0-0.7c0-0.4-0.1-0.9-0.1-1.3c0-10.4,8.4-18.8,18.8-18.8c10.4,0,18.8,8.4,18.8,18.8c0,0.5,0,0.9-0.1,1.4
		c0,0.2,0,0.4-0.1,0.6c0,0.4-0.1,0.8-0.2,1.2c-0.1,0.3-0.1,0.6-0.2,0.9c-0.1,0.3-0.2,0.7-0.3,1.1c-0.1,0.3-0.2,0.7-0.3,1
		c-0.1,0.3-0.2,0.6-0.3,0.9c-0.2,0.4-0.4,0.8-0.6,1.2c-0.1,0.2-0.2,0.4-0.2,0.6l3.2,4.9l0,0l1.2,1.8C71.6,40.7,71.5,41.8,70.9,42.6z
		 M69,41.1C69,41.1,69,41.1,69,41.1l-3.8-5.9l-1.4-2.1c0-0.1,0.1-0.2,0.1-0.3c0.3-0.5,0.6-0.9,0.8-1.4c0.1-0.2,0.2-0.4,0.2-0.5
		c0.3-0.6,0.5-1.2,0.7-1.8c0.1-0.2,0.1-0.4,0.2-0.6c0.1-0.4,0.2-0.9,0.3-1.3c0.1-0.3,0.1-0.6,0.1-0.9c0.1-0.4,0.1-0.9,0.1-1.3
		c0-0.2,0.1-0.4,0.1-0.6c0-4.5-1.8-8.6-4.8-11.6c-3-3-7.1-4.8-11.6-4.8c-9.1,0-16.4,7.4-16.4,16.4c0,0.2,0,0.4,0.1,0.6
		c0,0.5,0,0.9,0.1,1.3c0,0.3,0.1,0.6,0.1,0.9c0.1,0.5,0.2,0.9,0.3,1.3c0,0.2,0.1,0.4,0.2,0.6c0.2,0.6,0.4,1.2,0.7,1.8
		c0.1,0.2,0.2,0.4,0.3,0.5c0.2,0.5,0.5,1,0.8,1.4c0,0.1,0.1,0.2,0.1,0.3l-1.4,2.1L31,41c0,0,0,0.1,0,0.1l6.9-2.5l2.7-1
		c0,0,0.1,0.1,0.1,0.1c0.2,0.1,0.4,0.2,0.5,0.4c0.2,0.1,0.5,0.3,0.7,0.4c0.2,0.1,0.4,0.2,0.6,0.3c0.3,0.1,0.5,0.3,0.8,0.4
		c0.2,0.1,0.3,0.1,0.5,0.2c0.4,0.2,0.9,0.4,1.3,0.5c0.1,0,0.3,0.1,0.4,0.1c0.3,0.1,0.7,0.2,1.1,0.3c0.2,0,0.3,0.1,0.5,0.1
		c0.4,0.1,0.7,0.1,1.1,0.1c0.1,0,0.3,0.1,0.4,0.1c0.5,0,1,0.1,1.5,0.1c0.5,0,1,0,1.5-0.1c0.2,0,0.3,0,0.4-0.1c0.4,0,0.7-0.1,1.1-0.1
		c0.2,0,0.3-0.1,0.5-0.1c0.4-0.1,0.7-0.2,1.1-0.3c0.1,0,0.3-0.1,0.4-0.1c0.4-0.1,0.9-0.3,1.3-0.5c0.2-0.1,0.3-0.1,0.5-0.2
		c0.3-0.1,0.5-0.3,0.8-0.4c0.2-0.1,0.4-0.2,0.6-0.3c0.2-0.1,0.5-0.3,0.7-0.4c0.2-0.1,0.4-0.2,0.5-0.4c0,0,0.1,0,0.1-0.1l2.7,1
		L69,41.1z M27.7,43.6c-1.1-1.4-1.2-3.3-0.2-4.7l1.6-2.5c-1.4-1.6-3.4-2.6-5.6-2.6c-4.1,0-7.5,3.4-7.5,7.5c0,2.4,1.1,4.6,3.1,6
		l2,1.5l-2.4,0.7c-6.8,1.9-8.5,7.8-8.6,16.3h26.9c-0.1-8.6-1.7-14.4-8.6-16.3l-2.4-0.7l2-1.5c0.9-0.6,1.6-1.4,2.1-2.3
		C29.1,44.9,28.3,44.4,27.7,43.6z M43.6,16.3c0.3,0,0.5-0.2,0.5-0.5s-0.2-0.5-0.5-0.5h-2.4c-0.3,0-0.5,0.2-0.5,0.5s0.2,0.5,0.5,0.5
		H43.6L43.6,16.3z M43.6,13.9c0.3,0,0.5-0.2,0.5-0.5s-0.2-0.5-0.5-0.5h-2.4c-0.3,0-0.5,0.2-0.5,0.5s0.2,0.5,0.5,0.5H43.6L43.6,13.9z
		 M47.8,16.3c0.3,0,0.5-0.2,0.5-0.5v-2.4c0-0.3-0.2-0.5-0.5-0.5s-0.5,0.2-0.5,0.5v2.4C47.3,16.1,47.5,16.3,47.8,16.3L47.8,16.3z
		 M45.4,16.3c0.3,0,0.5-0.2,0.5-0.5v-2.4c0-0.3-0.2-0.5-0.5-0.5s-0.5,0.2-0.5,0.5v2.4C44.9,16.1,45.1,16.3,45.4,16.3L45.4,16.3z
		 M52,16.3c0.3,0,0.5-0.2,0.5-0.5s-0.2-0.5-0.5-0.5h-2.4c-0.3,0-0.5,0.2-0.5,0.5s0.2,0.5,0.5,0.5H52L52,16.3z M52,13.9
		c0.3,0,0.5-0.2,0.5-0.5s-0.2-0.5-0.5-0.5h-2.4c-0.3,0-0.5,0.2-0.5,0.5s0.2,0.5,0.5,0.5H52L52,13.9z M53.8,16.3
		c0.3,0,0.5-0.2,0.5-0.5v-2.4c0-0.3-0.2-0.5-0.5-0.5s-0.5,0.2-0.5,0.5v2.4C53.3,16.1,53.5,16.3,53.8,16.3L53.8,16.3z M56.2,16.3
		c0.3,0,0.5-0.2,0.5-0.5v-2.4c0-0.3-0.2-0.5-0.5-0.5s-0.5,0.2-0.5,0.5v2.4C55.7,16.1,55.9,16.3,56.2,16.3L56.2,16.3z M62.6,22.6
		c0.5,0,0.9-0.4,0.9-0.9s-0.4-0.9-0.9-0.9h-4c-0.5,0-0.9,0.4-0.9,0.9s0.4,0.9,0.9,0.9H62.6L62.6,22.6z M62.6,26.6
		c0.5,0,0.9-0.4,0.9-0.9s-0.4-0.9-0.9-0.9h-4c-0.5,0-0.9,0.4-0.9,0.9s0.4,0.9,0.9,0.9H62.6L62.6,26.6z M51.5,26.6
		c0.5,0,0.9-0.4,0.9-0.9v-4c0-0.5-0.4-0.9-0.9-0.9s-0.9,0.4-0.9,0.9v4C50.6,26.2,51,26.6,51.5,26.6L51.5,26.6z M55.5,26.6
		c0.5,0,0.9-0.4,0.9-0.9v-4c0-0.5-0.4-0.9-0.9-0.9s-0.9,0.4-0.9,0.9v4C54.6,26.2,55,26.6,55.5,26.6L55.5,26.6z M48.4,22.6
		c0.5,0,0.9-0.4,0.9-0.9s-0.4-0.9-0.9-0.9h-4c-0.5,0-0.9,0.4-0.9,0.9s0.4,0.9,0.9,0.9H48.4L48.4,22.6z M48.4,26.6
		c0.5,0,0.9-0.4,0.9-0.9s-0.4-0.9-0.9-0.9h-4c-0.5,0-0.9,0.4-0.9,0.9s0.4,0.9,0.9,0.9H48.4L48.4,26.6z M41.3,26.6
		c0.5,0,0.9-0.4,0.9-0.9v-4c0-0.5-0.4-0.9-0.9-0.9s-0.9,0.4-0.9,0.9v4C40.5,26.2,40.9,26.6,41.3,26.6L41.3,26.6z M37.3,26.6
		c0.5,0,0.9-0.4,0.9-0.9v-4c0-0.5-0.4-0.9-0.9-0.9s-0.9,0.4-0.9,0.9v4C36.5,26.2,36.9,26.6,37.3,26.6L37.3,26.6z M42.4,35
		c0.4,0,0.6-0.3,0.6-0.6s-0.3-0.6-0.6-0.6h-2.9c-0.4,0-0.6,0.3-0.6,0.6s0.3,0.6,0.6,0.6H42.4L42.4,35z M42.4,32.1
		c0.4,0,0.6-0.3,0.6-0.6s-0.3-0.6-0.6-0.6h-2.9c-0.4,0-0.6,0.3-0.6,0.6s0.3,0.6,0.6,0.6H42.4L42.4,32.1z M47.6,35
		c0.4,0,0.6-0.3,0.6-0.6v-2.9c0-0.4-0.3-0.6-0.6-0.6s-0.6,0.3-0.6,0.6v2.9C46.9,34.7,47.2,35,47.6,35L47.6,35z M44.6,35
		c0.4,0,0.6-0.3,0.6-0.6v-2.9c0-0.4-0.3-0.6-0.6-0.6S44,31.1,44,31.4v2.9C44,34.7,44.3,35,44.6,35L44.6,35z M52.8,35
		c0.4,0,0.6-0.3,0.6-0.6s-0.3-0.6-0.6-0.6h-2.9c-0.4,0-0.6,0.3-0.6,0.6s0.3,0.6,0.6,0.6H52.8L52.8,35z M52.8,32.1
		c0.4,0,0.6-0.3,0.6-0.6s-0.3-0.6-0.6-0.6h-2.9c-0.4,0-0.6,0.3-0.6,0.6s0.3,0.6,0.6,0.6H52.8L52.8,32.1z M55,35
		c0.4,0,0.6-0.3,0.6-0.6v-2.9c0-0.4-0.3-0.6-0.6-0.6s-0.6,0.3-0.6,0.6v2.9C54.4,34.7,54.7,35,55,35L55,35z M58,35
		c0.4,0,0.6-0.3,0.6-0.6v-2.9c0-0.4-0.3-0.6-0.6-0.6s-0.6,0.3-0.6,0.6v2.9C57.3,34.7,57.6,35,58,35L58,35z"/>
</g>
<g class="st0">
	<path class="st1" d="M10,62.6c0.2-16.3,5.4-25.3,16.2-28.3c0.4-0.1,0.6-0.4,0.7-0.8c0.1-0.4-0.1-0.8-0.4-1
		c-3.4-2.5-5.4-6.4-5.4-10.6c0-7.3,5.9-13.2,13.2-13.2c7.3,0,13.2,5.9,13.2,13.2c0,4.2-2,8-5.4,10.6c-0.3,0.2-0.5,0.6-0.4,1
		c0.1,0.4,0.3,0.7,0.7,0.8c1.9,0.5,3.8,1.3,5.5,2.2c-6.8,5.8-8.2,15.8-8.2,26.2H10z M87.4,62.6c0-5.3-0.4-10-1.4-14
		c-0.9,0.3-1.9,0.5-2.9,0.5c-4.9,0-8.9-4-8.9-8.9c0-1.8,0.6-3.5,1.5-4.9c-0.9-0.4-1.8-0.8-2.9-1l-2-0.6l1.7-1.2
		c3.4-2.5,5.4-6.4,5.4-10.6c0-7.3-5.9-13.2-13.2-13.2c-7.3,0-13.2,5.9-13.2,13.2c0,4.2,2,8,5.4,10.6l1.7,1.2l-2,0.6
		c-11.9,3.3-14.6,13.7-14.7,28.3h23H87.4z M76.1,40.2c0,3.8,3.1,6.9,6.9,6.9c3.8,0,6.9-3.1,6.9-6.9c0-3.8-3.1-6.9-6.9-6.9
		C79.2,33.3,76.1,36.4,76.1,40.2z"/>
</g>
<g class="st0">
	<path class="st1" d="M57.6,55.7c1.6-1.6,4.1,0.9,2.5,2.5c-3.1,3.1-6.1,6.1-9.2,9.2c-0.7,0.7-1.8,0.7-2.5,0
		c-3.1-3.1-6.1-6.1-9.2-9.2c-1.6-1.6,0.9-4.1,2.5-2.5c2.7,2.7,5.3,5.3,8,8C52.3,61,54.9,58.4,57.6,55.7z M52.9,55
		c0-1.8-1.5-3.3-3.3-3.3c-1.8,0-3.3,1.5-3.3,3.3c0,1.8,1.5,3.3,3.3,3.3C51.4,58.3,52.9,56.8,52.9,55z M52.9,44.8
		c0-1.8-1.5-3.3-3.3-3.3c-1.8,0-3.3,1.5-3.3,3.3c0,1.8,1.5,3.3,3.3,3.3C51.4,48.1,52.9,46.6,52.9,44.8z M52.9,34.6
		c0-1.8-1.5-3.3-3.3-3.3c-1.8,0-3.3,1.5-3.3,3.3c0,1.8,1.5,3.3,3.3,3.3C51.4,37.9,52.9,36.4,52.9,34.6z M66.4,77.2
		c1.6,0,2.9-1.3,2.9-2.9c0-1.6-1.3-2.9-2.9-2.9H32.9c-1.6,0-2.9,1.3-2.9,2.9c0,1.6,1.3,2.9,2.9,2.9H66.4L66.4,77.2z M46.4,9.3
		c-3.1-1.2-6.7-0.5-9.2,2c-3.3,3.4-3.3,8.8,0.1,12.1l0.4,0.3c5.5,5.5,15.2,4.7,21.6-1.7c6.4-6.4,7.1-16.1,1.5-21.6
		C60.6,0.2,60.4,0,60.4,0C57-3.3,51.6-3.3,48.3,0.1C45.8,2.6,45.2,6.2,46.4,9.3L46.4,9.3z M58.4,7.1c-0.7,0-1.3-0.6-1.3-1.3
		c0-1.1-0.9-2-2-2c-0.7,0-1.3-0.6-1.3-1.3c0-0.7,0.6-1.3,1.3-1.3c2.5,0,4.6,2.1,4.6,4.6C59.7,6.5,59.1,7.1,58.4,7.1L58.4,7.1z"/>
</g>
<g class="st0">
	<path class="st1" d="M58.8,53.5c1.8-1.8,4.5,1,2.8,2.8c-3.4,3.4-6.8,6.8-10.2,10.2c-0.8,0.7-2,0.7-2.8,0
		c-3.4-3.4-6.8-6.8-10.2-10.2c-1.8-1.8,1-4.5,2.8-2.8c2.9,2.9,5.9,5.9,8.8,8.8C52.9,59.4,55.9,56.5,58.8,53.5z M53.6,52.7
		c0-2-1.6-3.6-3.6-3.6c-2,0-3.6,1.6-3.6,3.6s1.6,3.6,3.6,3.6C52,56.4,53.6,54.7,53.6,52.7z M53.6,41.4c0-2-1.6-3.7-3.6-3.7
		c-2,0-3.6,1.6-3.6,3.7c0,2,1.6,3.6,3.6,3.6C52,45,53.6,43.4,53.6,41.4z M53.6,30.1c0-2-1.6-3.7-3.6-3.7c-2,0-3.6,1.6-3.6,3.7
		c0,2,1.6,3.6,3.6,3.6C52,33.7,53.6,32.1,53.6,30.1z M68.6,77.4c1.8,0,3.2-1.4,3.2-3.2s-1.4-3.2-3.2-3.2H31.4
		c-1.8,0-3.2,1.4-3.2,3.2s1.4,3.2,3.2,3.2H68.6L68.6,77.4z M60.5,3c0.1-0.1,0.1-0.1,0.2-0.2c1.2-1.2,2.6-4,1.7-4.9
		c-0.9-0.9-3.6,0.4-4.9,1.7c-0.1,0.1-0.1,0.2-0.2,0.2c-4,0.7-10.9,5.2-15.2,9.5c-5.6,5.6-5.7,9.8-3.2,12.2c2.4,2.4,6.4,2.2,12.1-3.4
		C55.3,13.9,59.8,7,60.5,3z M42.4,14.3c0.5,0.4,0.6,1.2,0.2,1.7c-0.7,0.9-0.5,2.1,0.3,2.7c0.5,0.4,0.6,1.2,0.2,1.7
		c-0.4,0.5-1.2,0.6-1.7,0.2c-1.9-1.5-2.3-4.3-0.8-6.2C41.1,14,41.9,13.9,42.4,14.3L42.4,14.3z"/>
</g>
<g class="st0">
	<path class="st1" d="M74.2,77.3H37.6c-1.8,0-3.2-1.4-3.2-3.2c0-1.8,1.4-3.2,3.2-3.2h36.6c1.7,0,3.2,1.4,3.2,3.2
		C77.4,75.9,76,77.3,74.2,77.3L74.2,77.3z M56.7,39.2c0,0.7,0.6,1.1,1.2,0.8l2.1-1.3c0.6-0.3,0.5-1.4-0.1-1.7L58.1,36
		c-0.6-0.4-1.7-0.1-1.6,0.6L56.7,39.2z M54.8,48c0,0.7,0.6,1.1,1.3,0.8l2.1-1.3c0.6-0.3,0.5-1.4-0.1-1.7l-1.8-0.9
		c-0.6-0.4-1.7-0.1-1.6,0.6L54.8,48z M46.9,47.2c0,0.7,0.6,1.1,1.3,0.8l2.1-1.3c0.6-0.3,0.5-1.4-0.1-1.7L48.3,44
		c-0.6-0.4-1.7-0.1-1.6,0.6L46.9,47.2z M49.7,56c0,0.7,0.6,1.1,1.3,0.8l2.1-1.3c0.6-0.3,0.5-1.4-0.1-1.7l-1.8-0.9
		c-0.6-0.4-1.7-0.1-1.6,0.6L49.7,56z M63,54.2c0,0.7,0.6,1.1,1.3,0.8l2.1-1.3c0.6-0.3,0.5-1.4-0.1-1.7L64.4,51
		c-0.6-0.4-1.7-0.1-1.6,0.6L63,54.2z M58.3,59.3c0,0.7,0.6,1.1,1.3,0.8l2.1-1.3c0.6-0.3,0.5-1.4-0.1-1.7l-1.8-0.9
		c-0.6-0.4-1.7-0.1-1.6,0.6L58.3,59.3z M48.7,38.5c0,0.7,0.6,1.1,1.3,0.8L52,38c0.6-0.3,0.5-1.4-0.1-1.7l-1.8-0.9
		c-0.6-0.4-1.7-0.1-1.6,0.6L48.7,38.5z M51.3,65.4c0,0.7,0.6,1.1,1.3,0.8l2.1-1.3c0.6-0.3,0.5-1.4-0.1-1.7l-1.8-0.9
		c-0.6-0.4-1.7-0.1-1.6,0.6L51.3,65.4z M65.7,66c0,0.7,0.6,1.1,1.2,0.8l2.1-1.3c0.6-0.3,0.5-1.4-0.1-1.7l-1.8-0.9
		c-0.6-0.4-1.7-0.1-1.6,0.6L65.7,66z M42.6,55.8c0,0.7,0.6,1.1,1.3,0.8l2.1-1.3c0.6-0.3,0.5-1.4-0.1-1.7l-1.8-0.9
		c-0.6-0.4-1.7-0.1-1.6,0.6L42.6,55.8z M41.1,8.2C41.1,8.1,41,7.9,41,7.8l0-0.2c0-0.2,0.1-0.3,0.4-0.4c0.1,0,0.2,0,0.3,0.1l4.1,4.1
		c0.7,0.7,1.9,0.7,2.6,0l0.2-0.2c0.4-0.4,0.6-0.8,0.6-1.3c0-0.5-0.2-1-0.6-1.3c-4.9-4.9-6.4-6.4-7-6.9l0,0l-0.4-0.5
		c-2.3-2.3-5.4-3.6-8.7-3.6S26.3-1.2,24,1.2c-4.8,4.8-4.8,12.6,0,17.4c0.1,0.1,0.2,0.2,0.4,0.3l0.4,0.5c0.2,0.2,10.9,10.9,10.9,10.9
		c0.4,0.4,0.9,0.6,1.4,0.6c0.6,0,1.1-0.2,1.5-0.6c0.4-0.4,0.6-0.9,0.6-1.4c0-0.5-0.2-1-0.6-1.4L30.1,19C30,18.9,30,18.7,30,18.5
		c0-0.2,0.2-0.3,0.5-0.3l0.2,0c0.1,0,0.2,0,0.3,0.1l11.4,11.4c0.8,0.7,2.1,0.7,2.9-0.1c0.4-0.4,0.6-0.9,0.6-1.4c0-0.5-0.2-1-0.6-1.4
		L35.5,17c-0.1-0.1-0.1-0.3-0.1-0.4c0-0.1,0.1-0.3,0.4-0.4c0.2-0.1,0.4-0.1,0.6,0.1l12.5,12.5c0.4,0.4,0.9,0.6,1.4,0.6
		c0.4,0,0.9-0.1,1.4-0.6c0.4-0.4,0.6-0.9,0.6-1.4c0-0.5-0.2-1.1-0.6-1.4L39.1,13.4C39,13.3,39,13,39.2,12.7c0.1-0.1,0.2-0.2,0.4-0.2
		c0.1,0,0.2,0,0.3,0.1l10.9,10.9c0.4,0.4,0.9,0.6,1.4,0.6c0.4,0,0.9-0.1,1.5-0.6c0.4-0.4,0.6-0.9,0.6-1.4c0-0.5-0.2-1-0.6-1.4
		L41.1,8.2z"/>
</g>
<g class="st0">
	<path class="st1" d="M53.3,50.8c3.1-4.4,7.8-5.1,7.8-5.1C60.2,49.4,50.2,55.2,53.3,50.8z M55.5,29.7c0,0,0,4.7,3.7,8.5
		C63,42.1,59,31.2,55.5,29.7z M49.5,32.3c0,0-2.3,4.1-1,9.2C49.9,46.8,51.8,35.3,49.5,32.3z M40.1,44.6c0,0,0.5,4.7,4.7,8
		C49.1,56,43.7,45.6,40.1,44.6z M58.2,57.6c0,0,0.5,4.7,4.7,8C67.1,68.9,61.8,58.6,58.2,57.6z M69.3,47.2c0,0-3.4,3.2-3.6,8.6
		C65.6,61.1,70.7,50.7,69.3,47.2z M44.5,60.5c0,0,2.8,3.8,8.1,4.6C58,65.8,48.2,59.5,44.5,60.5z M76.1,77.4c2,0,3.6-1.6,3.6-3.6
		s-1.6-3.6-3.6-3.6H34.3c-2,0-3.6,1.6-3.6,3.6s1.6,3.6,3.6,3.6H76.1L76.1,77.4z M39.3,11.5c0.1,0,0.2,0,0.3,0.1l10.2,10.2
		c0.7,0.7,1.9,0.7,2.7,0c0.4-0.4,0.5-0.8,0.5-1.3c0-0.5-0.2-0.9-0.5-1.3L40.8,7.4c-0.1-0.1-0.1-0.3-0.1-0.3l0-0.2
		c0-0.2,0.1-0.3,0.4-0.4c0.1,0,0.2,0,0.3,0.1l3.9,3.9c0.7,0.7,1.8,0.7,2.5,0l0.2-0.2c0.3-0.3,0.5-0.8,0.5-1.3c0-0.5-0.2-0.9-0.5-1.2
		c-4.6-4.6-6-6-6.6-6.5l0,0L41,0.8c-2.2-2.2-5.1-3.4-8.2-3.4c-3.1,0-6,1.2-8.2,3.4c-4.5,4.5-4.5,11.9,0,16.4l0.8,0.8
		c0.1,0.1,10.3,10.3,10.3,10.3c0.3,0.3,0.8,0.5,1.3,0.5c0.5,0,1-0.2,1.4-0.6c0.3-0.4,0.5-0.8,0.5-1.3c0-0.5-0.2-1-0.5-1.3l-8-8
		c-0.1-0.1-0.1-0.3-0.1-0.4c0-0.1,0.2-0.2,0.4-0.3l0.2,0c0.1,0,0.2,0,0.3,0.1L42,27.7c0.7,0.7,1.9,0.7,2.7-0.1
		c0.3-0.4,0.5-0.8,0.5-1.3c0-0.5-0.2-1-0.5-1.3l-9.2-9.2c-0.1-0.1-0.1-0.3-0.1-0.3c0-0.1,0.1-0.2,0.3-0.4c0.2-0.1,0.4-0.1,0.5,0
		L48,26.8c0.4,0.3,0.8,0.5,1.3,0.5c0.4,0,0.9-0.1,1.4-0.6c0.4-0.3,0.6-0.8,0.6-1.3s-0.2-1-0.6-1.3L38.9,12.4
		c-0.1-0.1-0.1-0.4,0.1-0.7C39,11.6,39.1,11.5,39.3,11.5z"/>
</g>
<g class="st0">
	<path class="st1" d="M42,9.6c-1.6,1.6-4.1-0.9-2.5-2.5C42.6,4.1,45.6,1,48.7-2c0.7-0.7,1.8-0.7,2.5,0c3.1,3.1,6.1,6.1,9.2,9.2
		c1.6,1.6-0.9,4.1-2.5,2.5c-2.6-2.6-5.3-5.3-7.9-7.9C47.3,4.3,44.6,7,42,9.6z M46.7,10.4c0,1.8,1.5,3.3,3.3,3.3
		c1.8,0,3.3-1.5,3.3-3.3c0-1.8-1.5-3.3-3.3-3.3C48.1,7.1,46.7,8.5,46.7,10.4z M46.7,20.5c0,1.8,1.5,3.3,3.3,3.3
		c1.8,0,3.3-1.5,3.3-3.3c0-1.8-1.5-3.3-3.3-3.3C48.1,17.3,46.7,18.7,46.7,20.5z M46.7,30.7c0,1.8,1.5,3.3,3.3,3.3
		c1.8,0,3.3-1.5,3.3-3.3c0-1.8-1.5-3.3-3.3-3.3C48.1,27.4,46.7,28.9,46.7,30.7z M52,56c0-1.1-0.9-2-2-2c-1.1,0-2,0.9-2,2l-2.4,13.3
		h8.5L52,56z M66.6,71.7H33.2c-1.6,0-2.9,1.3-2.9,2.9s1.3,2.9,2.9,2.9h33.4c1.6,0,2.9-1.3,2.9-2.9S68.2,71.7,66.6,71.7z M55,40.2
		c-3.7,5-4.3,9.1-4.3,11.2l7.1-7.1c0.4-0.4,1.1-0.4,1.6,0c0.4,0.4,0.4,1.1,0,1.6l-6.9,6.9c2.5-0.3,7.3-1.4,11.6-4.5
		c6-4.4,8.2-17.5,8.2-17.5S60.4,32.9,55,40.2z M27.6,30.8c0,0,2.3,13.1,8.2,17.5c4.2,3.1,9.1,4.1,11.6,4.5l-6.9-6.9
		c-0.4-0.4-0.4-1.1,0-1.6c0.4-0.4,1.1-0.4,1.6,0l7.1,7.1c0-2.1-0.5-6.2-4.3-11.2C39.4,32.9,27.6,30.8,27.6,30.8z"/>
</g>
<g class="st0">
	<path class="st1" d="M32.7,24c-3.5,3.5-8.9-1.9-5.4-5.4c6.7-6.7,13.3-13.3,20-20c1.5-1.5,3.9-1.5,5.4,0c6.7,6.7,13.3,13.3,20,20
		c3.5,3.5-1.9,8.9-5.4,5.4c-5.8-5.8-11.5-11.5-17.3-17.3C44.2,12.4,38.4,18.2,32.7,24z M42.8,25.5c0,4,3.2,7.1,7.2,7.1
		c3.9,0,7.1-3.2,7.1-7.1c0-3.9-3.2-7.1-7.1-7.1C46,18.4,42.8,21.6,42.8,25.5z M42.8,47.7c0,3.9,3.2,7.1,7.2,7.1
		c3.9,0,7.1-3.2,7.1-7.1c0-4-3.2-7.1-7.1-7.1C46,40.6,42.8,43.7,42.8,47.7z M42.8,69.9c0,3.9,3.2,7.1,7.2,7.1c3.9,0,7.1-3.2,7.1-7.1
		c0-3.9-3.2-7.1-7.1-7.1S42.8,65.9,42.8,69.9z"/>
</g>
<g class="st0">
	<path class="st1" d="M67.2,50.5c3.5-3.5,8.9,1.9,5.4,5.4c-6.7,6.7-13.3,13.3-20,20c-1.5,1.5-3.9,1.5-5.4,0
		c-6.7-6.7-13.3-13.3-20-20c-3.5-3.5,1.9-8.9,5.4-5.4c5.8,5.8,11.5,11.5,17.3,17.3C55.7,62,61.5,56.3,67.2,50.5z M57.1,48.9
		c0-4-3.2-7.1-7.2-7.1c-3.9,0-7.1,3.2-7.1,7.1c0,3.9,3.2,7.1,7.1,7.1C53.9,56.1,57.1,52.9,57.1,48.9z M57.1,26.8
		c0-3.9-3.2-7.1-7.2-7.1c-3.9,0-7.1,3.2-7.1,7.1c0,4,3.2,7.1,7.1,7.1C53.9,33.9,57.1,30.7,57.1,26.8z M57.1,4.6
		c0-3.9-3.2-7.1-7.2-7.1c-3.9,0-7.1,3.2-7.1,7.1c0,3.9,3.2,7.1,7.1,7.1C53.9,11.8,57.1,8.6,57.1,4.6z"/>
</g>
<g class="st0">
	<path class="st1" d="M36.7,54.5c3.5,3.5-1.9,8.9-5.4,5.4c-6.7-6.7-13.3-13.3-20-20c-1.5-1.5-1.5-3.9,0-5.4c6.7-6.7,13.3-13.3,20-20
		c3.5-3.5,8.9,1.9,5.4,5.4c-5.8,5.8-11.5,11.5-17.3,17.3C25.1,43,30.9,48.8,36.7,54.5z M38.2,44.4c4,0,7.1-3.2,7.1-7.2
		c0-3.9-3.2-7.1-7.1-7.1c-3.9,0-7.1,3.2-7.1,7.1C31.1,41.2,34.3,44.4,38.2,44.4z M60.4,44.4c3.9,0,7.1-3.2,7.1-7.2
		c0-3.9-3.2-7.1-7.1-7.1c-4,0-7.1,3.2-7.1,7.1C53.3,41.2,56.4,44.4,60.4,44.4z M82.6,44.4c3.9,0,7.1-3.2,7.1-7.2
		c0-3.9-3.2-7.1-7.1-7.1c-3.9,0-7.1,3.2-7.1,7.1C75.4,41.2,78.6,44.4,82.6,44.4z"/>
</g>
<g class="st0">
	<path class="st1" d="M63.2,19.9c-3.5-3.5,1.9-8.9,5.4-5.4c6.7,6.7,13.3,13.3,20,20c1.5,1.5,1.5,3.9,0,5.4c-6.7,6.7-13.3,13.3-20,20
		c-3.5,3.5-8.9-1.9-5.4-5.4C69,48.8,74.7,43,80.5,37.2C74.7,31.5,69,25.7,63.2,19.9z M61.6,30.1c-4,0-7.1,3.2-7.1,7.2
		c0,3.9,3.2,7.1,7.1,7.1c3.9,0,7.1-3.2,7.1-7.1C68.8,33.3,65.6,30.1,61.6,30.1z M39.5,30.1c-3.9,0-7.1,3.2-7.1,7.2
		c0,3.9,3.2,7.1,7.1,7.1c4,0,7.1-3.2,7.1-7.1C46.6,33.3,43.4,30.1,39.5,30.1z M17.3,30.1c-3.9,0-7.1,3.2-7.1,7.2
		c0,3.9,3.2,7.1,7.1,7.1c3.9,0,7.1-3.2,7.1-7.1C24.5,33.3,21.3,30.1,17.3,30.1z"/>
</g>
<g class="st0">
	<path class="st1" d="M79.7,34.1c0-6.6,10.3-6.6,10.3,0c0,12.7,0,25.3,0,38c0,2.8-2.3,5.1-5.1,5.1c-12.7,0-25.4,0-38,0
		c-6.6,0-6.6-10.2,0-10.2c11,0,21.9,0,32.9,0C79.7,56,79.7,45.1,79.7,34.1z M68.5,42.2c-3.8-3.8-9.8-3.8-13.6,0
		c-3.8,3.8-3.7,9.8,0,13.6c3.8,3.8,9.8,3.8,13.6,0C72.3,52.1,72.3,46,68.5,42.2z M47.5,21.2c-3.8-3.8-9.8-3.8-13.6,0
		c-3.8,3.8-3.7,9.8,0,13.6c3.8,3.8,9.8,3.8,13.6,0C51.2,31,51.2,24.9,47.5,21.2z M26.4,0.1c-3.8-3.8-9.8-3.8-13.6,0
		C9,3.9,9,9.9,12.8,13.7c3.8,3.8,9.8,3.8,13.6,0C30.1,9.9,30.1,3.8,26.4,0.1z"/>
</g>
<g class="st0">
	<path class="st1" d="M53.1,67c6.6,0,6.6,10.3,0,10.3c-12.7,0-25.3,0-38,0c-2.8,0-5.1-2.3-5.1-5.1c0-12.7,0-25.4,0-38
		c0-6.6,10.2-6.6,10.3,0c0,11,0,21.9,0,32.9C31.2,67,42.2,67,53.1,67z M45,55.8c3.8-3.8,3.8-9.8,0-13.6c-3.8-3.8-9.8-3.7-13.6,0
		c-3.8,3.8-3.8,9.8,0,13.6C35.1,59.6,41.2,59.6,45,55.8z M66.1,34.8c3.8-3.8,3.8-9.8,0-13.6c-3.8-3.8-9.8-3.7-13.6,0
		c-3.8,3.8-3.8,9.8,0,13.6C56.2,38.5,62.3,38.5,66.1,34.8z M87.1,13.7c3.8-3.8,3.8-9.8,0-13.6c-3.8-3.8-9.8-3.7-13.6,0
		c-3.8,3.8-3.8,9.8,0,13.6C77.3,17.4,83.4,17.4,87.1,13.7z"/>
</g>
<g class="st0">
	<path class="st1" d="M20.2,40.4c0,6.6-10.3,6.6-10.3,0c0-12.7,0-25.3,0-38c0-2.8,2.3-5.1,5.1-5.1c12.7,0,25.4,0,38,0
		c6.6,0,6.6,10.2,0,10.2c-11,0-21.9,0-32.9,0C20.2,18.5,20.2,29.5,20.2,40.4z M31.4,32.3c3.8,3.8,9.8,3.8,13.6,0
		c3.8-3.8,3.7-9.8,0-13.6c-3.8-3.8-9.8-3.8-13.6,0C27.6,22.4,27.6,28.5,31.4,32.3z M52.5,53.3c3.8,3.8,9.8,3.8,13.6,0
		c3.8-3.8,3.7-9.8,0-13.6c-3.8-3.8-9.8-3.8-13.6,0C48.7,43.5,48.7,49.6,52.5,53.3z M73.5,74.4c3.8,3.8,9.8,3.8,13.6,0
		c3.8-3.8,3.7-9.8,0-13.6c-3.8-3.8-9.8-3.8-13.6,0C69.8,64.6,69.8,70.7,73.5,74.4z"/>
</g>
<g>
	<path class="st3" d="M46.2,14c-8,0-8-12.4,0-12.4c15.4,0,30.7,0,46.1,0c3.4,0,6.2,2.8,6.2,6.2c0,15.4,0,30.7,0,46.1
		c0,8-12.4,8-12.4,0c0-13.3,0-26.6,0-39.9C72.7,14,59.5,14,46.2,14z M56,27.5C51.5,32,51.5,39.4,56,44c4.5,4.5,11.9,4.5,16.5,0
		c4.6-4.6,4.6-11.9,0-16.5C68,22.9,60.6,22.9,56,27.5z M30.5,53c-4.6,4.6-4.5,11.9,0,16.5c4.6,4.6,11.9,4.5,16.5,0
		c4.6-4.6,4.6-11.9,0-16.5C42.4,48.5,35,48.5,30.5,53z M4.9,78.6c-4.6,4.6-4.5,11.9,0,16.5c4.5,4.5,11.9,4.5,16.5,0
		c4.5-4.5,4.6-11.9,0-16.5C16.9,74,9.5,74,4.9,78.6z"/>
</g>
<g class="st0">
	<path class="st1" d="M56.9,62.5H43l3.9-15.7c0-1.3,1.7-3.1,3.4-3.1c1.8,0,3,1.8,3,3.1L56.9,62.5z M75.5,66H24.4
		c-2.4,0-4.4,2-4.4,4.4s2,4.4,4.4,4.4h51.1c2.4,0,4.4-2,4.4-4.4S77.9,66,75.5,66z M59,19.7c-6.7,9-7.7,16.3-7.7,20L64.1,27
		c0.8-0.8,2-0.8,2.8,0c0.8,0.8,0.8,2,0,2.8L54.5,42.1c4.5-0.6,13.1-2.5,20.6-8C85.8,26.2,89.9,2.9,89.9,2.9S68.7,6.6,59,19.7z
		 M10,2.9c0,0,4.1,23.4,14.7,31.2c7.5,5.5,16.2,7.4,20.6,8L33,29.8c-0.8-0.8-0.8-2,0-2.8c0.8-0.8,2-0.8,2.8,0l12.7,12.7
		c0-3.8-1-11.1-7.7-20C31.2,6.6,10,2.9,10,2.9z"/>
</g>
<g class="st0">
	<path class="st1" d="M56.9,62.5H43l3.9-15.7c0-1.3,1.7-3.1,3.4-3.1c1.8,0,3,1.8,3,3.1L56.9,62.5z M59,19.7c-6.7,9-7.7,16.3-7.7,20
		L64.1,27c0.8-0.8,2-0.8,2.8,0c0.8,0.8,0.8,2,0,2.8L54.5,42.1c4.5-0.6,13.1-2.5,20.6-8C85.8,26.2,89.9,2.9,89.9,2.9
		S68.7,6.6,59,19.7z M10,2.9c0,0,4.1,23.4,14.7,31.2c7.5,5.5,16.2,7.4,20.6,8L33,29.8c-0.8-0.8-0.8-2,0-2.8c0.8-0.8,2-0.8,2.8,0
		l12.7,12.7c0-3.8-1-11.1-7.7-20C31.2,6.6,10,2.9,10,2.9z"/>
</g>
<g class="st0">
	<path class="st1" d="M75.4,73.5c0,2.1-1.7,3.8-3.8,3.8H28c-2.1,0-3.8-1.7-3.8-3.8c0-2.1,1.7-3.8,3.8-3.8h43.6
		C73.7,69.7,75.4,71.4,75.4,73.5z M74.7,29.5c1.3-2.1,2.1-4.5,2.1-7.1C76.7,15,70.7,9,63.3,9c-0.1,0-0.2,0-0.4,0
		C62,2.5,56.5-2.5,49.7-2.5C43-2.5,37.4,2.4,36.4,8.8C29,8.8,23,14.8,23,22.2c0,2.6,0.7,5,2,7c-3.8,2.4-6.4,6.6-6.4,11.4
		c0,7.4,6,13.4,13.4,13.4c2.7,0,5.2-0.8,7.3-2.2l2.5-10.6l-6.1-5.9c-0.9-0.8-1.1-2.2-0.5-3.2c0.5-0.9,1.4-1.4,2.4-1.4
		c0.2,0,0.4,0,0.6,0.1l6,1.4l2.3-7.3c0.3-1.1,1.3-1.8,2.4-1.9c0.1,0,0.1,0,0.2,0c1.1,0,2,0.6,2.5,1.6l3.5,7.7l6.3-1.5
		c0.2,0,0.4-0.1,0.6-0.1c1,0,1.9,0.5,2.4,1.4c0.6,1.1,0.4,2.4-0.5,3.2l-6.1,5.9l2.6,10.9c2.1,1.3,4.5,2,7.1,2
		c7.4,0,13.4-6,13.4-13.4C81,36.1,78.5,31.9,74.7,29.5z M54.9,40.5l7.2-7l-8.5,2l-4.4-9.7l-3.1,9.7l-8.5-2l7.2,7l-6.2,26.2l22.5,0
		L54.9,40.5z"/>
</g>
<g class="st0">
	<path class="st1" d="M78.6,34.5c1.5-2.4,2.4-5.2,2.4-8.2c0-8.6-6.9-15.5-15.5-15.5c-0.1,0-0.3,0-0.4,0C63.9,3.3,57.5-2.5,49.7-2.5
		c-7.7,0-14.1,5.7-15.3,13.1c-8.5,0-15.5,7-15.5,15.5c0,3,0.9,5.7,2.3,8.1c-4.4,2.7-7.4,7.6-7.4,13.2c0,8.6,6.9,15.5,15.5,15.5
		c3.1,0,6-0.9,8.4-2.5l2.9-12.2l-7-6.9c-1-1-1.2-2.5-0.6-3.7c0.6-1,1.6-1.6,2.7-1.6c0.2,0,0.5,0,0.7,0.1l7,1.6l2.7-8.5
		c0.4-1.2,1.5-2.1,2.8-2.2c0.1,0,0.1,0,0.2,0c1.2,0,2.3,0.7,2.8,1.8l4,8.9l7.3-1.7C63.5,36,63.7,36,64,36c1.1,0,2.2,0.6,2.7,1.6
		c0.7,1.2,0.4,2.8-0.6,3.7l-7,6.9l3,12.6c2.4,1.5,5.2,2.4,8.2,2.4c8.6,0,15.5-6.9,15.5-15.5C85.8,42.1,82.9,37.2,78.6,34.5z
		 M55.6,47.2l8.3-8.1l-9.8,2.3l-5.1-11.2l-3.6,11.2l-9.8-2.3l8.3,8.1l-7.2,30.3l26,0L55.6,47.2z"/>
</g>
<g class="st0">
	<path class="st1" d="M67,26.6c-0.3,0.2-0.4,0.7-0.3,1c0,0,0.4,0.9,0.4,1.7h0c0,0,0,0,0,0.1c0,0.2-0.2,0.4-0.4,0.4h-8.9
		c-0.2,0-0.4-0.2-0.4-0.4c0,0,0,0,0-0.1h0c0-0.9,0.4-1.7,0.4-1.7c0.1-0.3,0-0.8-0.3-1c0,0-6-5.1-6-9.5c0-6,4.8-10.8,10.8-10.8
		c6,0,10.8,4.8,10.8,10.8C73.1,21.6,67,26.6,67,26.6z M68,17.9L68,17.9c0-0.1,0-0.1,0-0.1v-2.6c0-1.2-1-2.2-2.2-2.2h-0.1
		c-1.2,0-2.2,1-2.2,2.2v2.6c0-0.1,0-0.1,0-0.2c0,0.1,0,0.1,0,0.2c0,0.3-0.1,0.6-0.3,0.8c-0.2,0.2-0.5,0.3-0.8,0.3c0,0-0.1,0-0.1,0
		c-0.6,0-1.2-0.5-1.2-1.2c0,0,0-2.6,0-2.6c0,0,0,0.1,0,0.1c0,0,0-0.1,0-0.1c0-1.2-1-2.2-2.2-2.2h-0.1c-1.2,0-2.2,1-2.2,2.2
		c0,0,0,2.6,0,2.6l0,0c0,0.3,0.2,0.5,0.5,0.5c0.3,0,0.5-0.2,0.5-0.5l0,0v-2.5c0-0.7,0.5-1.2,1.2-1.2h0.1c0.6,0,1.2,0.5,1.2,1.2
		c0,0,0-0.1,0-0.1c0,0,0,0.1,0,0.1v2.5c0,1.2,1,2.2,2.2,2.2h0.1c0.6,0,1.1-0.2,1.6-0.6c0.4-0.4,0.6-1,0.6-1.6c0,0.1,0,0.1,0,0.2
		c0-0.1,0.1-0.2,0.1-0.2v-2.6c0-0.6,0.5-1.2,1.2-1.2h0.1c0.6,0,1.2,0.5,1.2,1.2v2.6c0,0,0-0.1,0-0.1l0,0c-0.1,0.3,0.1,0.6,0.4,0.6
		C67.7,18.4,67.9,18.2,68,17.9L68,17.9z M66.7,31.7c0-0.5-0.4-0.9-0.9-0.9h-7.1c-0.5,0-0.9,0.4-0.9,0.9V32c0,0.5,0.4,0.9,0.9,0.9
		h7.1c0.5,0,0.9-0.4,0.9-0.9V31.7z M66.7,34.4c0-0.5-0.4-0.9-0.9-0.9h-7.1c-0.5,0-0.9,0.4-0.9,0.9v0.3c0,0.5,0.4,0.9,0.9,0.9h7.1
		c0.5,0,0.9-0.4,0.9-0.9V34.4z M64.9,37.2c0-0.5-0.4-0.9-0.9-0.9h-3.5c-0.5,0-0.9,0.4-0.9,0.9l0,0c0,0.5,0.4,0.9,0.9,0.9H64
		C64.5,38,64.9,37.7,64.9,37.2L64.9,37.2z M62.3,0.2c12.2,0,22,9.9,22,22c0,12.2-9.9,22-22,22c-3.9,0-7.5-1-10.7-2.8
		c-0.4,0.8-0.8,1.5-1.3,2.2c3.6,2,7.7,3.2,12,3.2c13.6,0,24.6-11,24.6-24.6c0-13.6-11-24.6-24.6-24.6C50.1-2.4,40.1,6.4,38.1,18
		c0.9,0,1.7,0.2,2.5,0.3C42.4,8,51.4,0.2,62.3,0.2z M51.2,34.1c0-7.8-6.3-14.1-14.1-14.1c-7.8,0-14.1,6.3-14.1,14.1
		c0,4.5,2.1,8.6,5.7,11.3l1.8,1.3l-2.1,0.6c-12.7,3.5-15.6,14.6-15.7,30.2h48.6c-0.1-15.6-2.9-26.7-15.6-30.2l-2.1-0.6l1.8-1.3
		C49.1,42.7,51.2,38.6,51.2,34.1z"/>
</g>
<g class="st0">
	<path class="st1" d="M40.8,18.4C40,18.2,39.2,18,38.3,18c2-11.6,12.1-20.4,24.2-20.4c13.6,0,24.6,11,24.6,24.6
		c0,13.6-11,24.6-24.6,24.6c-4.5,0-8.7-1.2-12.3-3.3c0.5-0.7,0.9-1.4,1.3-2.2c3.2,1.9,7,2.9,11,2.9c12.2,0,22-9.9,22-22
		c0-12.2-9.9-22-22-22C51.6,0.2,42.6,8,40.8,18.4z M51.1,34.1c0-7.8-6.3-14.1-14.1-14.1S23,26.4,23,34.1c0,4.5,2.1,8.6,5.7,11.3
		l1.8,1.3l-2.1,0.6c-12.7,3.5-15.6,14.6-15.7,30.2h48.6c-0.1-15.6-2.9-26.7-15.6-30.2l-2.1-0.6l1.8-1.3C49,42.7,51.1,38.6,51.1,34.1
		z M62.5,6.5c-6.6,0-12.1,5.4-12.1,12.1c0,1.8,1.4,3.2,3.2,3.2c0.9,0,1.7-0.4,2.3-0.9c0.6-0.6,0.9-1.4,0.9-2.3
		c0-3.1,2.5-5.6,5.6-5.6c3.1,0,5.6,2.5,5.6,5.6s-2.5,5.6-5.6,5.6c-0.9,0-1.7,0.4-2.3,0.9c-0.6,0.6-0.9,1.4-0.9,2.3
		c0,1.8,1.4,3.2,3.2,3.2c6.6,0,12.1-5.4,12.1-12.1C74.6,11.9,69.2,6.5,62.5,6.5z M62.5,32.7c-1.8,0-3.2,1.4-3.2,3.2
		c0,1.8,1.5,3.2,3.2,3.2c1.8,0,3.2-1.5,3.2-3.2S64.3,32.7,62.5,32.7z"/>
</g>
<g class="st0">
	<path class="st1" d="M52.6,4.3c18,0,32.6,14.6,32.6,32.6c0,18-14.6,32.6-32.6,32.6c-7,0-13.4-2.2-18.7-5.9l-19.2,6.9l10.5-15.9
		C21.9,49.5,20,43.5,20,36.9C20,18.9,34.6,4.3,52.6,4.3 M52.6-0.4C32-0.4,15.3,16.3,15.3,36.9c0,6.1,1.5,12.1,4.4,17.5l-8.9,13.4
		c-1.1,1.7-1,3.9,0.2,5.5c0.9,1.2,2.3,1.8,3.7,1.8c0.5,0,1.1-0.1,1.6-0.3l16.9-6.1c5.8,3.6,12.5,5.4,19.4,5.4
		C73.2,74.3,90,57.5,90,36.9C90,16.4,73.2-0.4,52.6-0.4L52.6-0.4z M52.6,12.6c-10.3,0-18.7,8.4-18.7,18.7c0,2.8,2.2,5,5,5
		c1.4,0,2.6-0.6,3.5-1.5c0.9-0.9,1.5-2.1,1.5-3.5c0-4.8,3.9-8.8,8.8-8.8c4.8,0,8.8,3.9,8.8,8.8c0,4.8-3.9,8.8-8.8,8.8
		c-1.4,0-2.6,0.6-3.5,1.5c-0.9,0.9-1.5,2.2-1.5,3.5c0,2.8,2.2,5,5,5c10.3,0,18.7-8.4,18.7-18.7C71.3,21,62.9,12.6,52.6,12.6z
		 M52.6,53.3c-2.8,0-5,2.2-5,5c0,2.8,2.3,5,5,5c2.8,0,5-2.2,5-5C57.6,55.6,55.4,53.3,52.6,53.3z"/>
</g>
<g class="st0">
	<path class="st1" d="M30.9,64c-2.8,0-5-2.2-5-5c0-1.4,0.6-2.6,1.5-3.5c0.9-0.9,2.1-1.5,3.5-1.5c4.8,0,8.8-3.9,8.8-8.8
		s-3.9-8.8-8.8-8.8c-4.8,0-8.8,3.9-8.8,8.8c0,1.4-0.6,2.6-1.5,3.5c-0.9,0.9-2.1,1.5-3.5,1.5c-2.8,0-5-2.2-5-5
		c0-10.3,8.4-18.7,18.7-18.7c0.5,0,0.9,0,1.4,0.1c1.3,4.4,5.4,7.7,10.3,7.7c1.1,0,2.1-0.2,3.1-0.5c2.5,3.2,4,7.2,4,11.5
		C49.6,55.6,41.2,64,30.9,64z M25.9,72.3c0,2.8,2.2,5,5,5c2.8,0,5-2.2,5-5c0-2.8-2.2-5-5-5C28.1,67.3,25.9,69.5,25.9,72.3z
		 M87.4,23.5c0-14.3-11.6-25.9-25.9-25.9c-14.3,0-25.9,11.6-25.9,25.9c0,3.8,3.1,6.9,6.9,6.9c1.9,0,3.6-0.8,4.9-2c1.2-1.2,2-3,2-4.9
		c0-6.7,5.4-12.1,12.1-12.1c6.7,0,12.1,5.4,12.1,12.1c0,6.7-5.4,12.1-12.1,12.1c-1.9,0-3.6,0.8-4.9,2c-1.2,1.2-2,3-2,4.9
		c0,3.8,3.1,6.9,6.9,6.9C75.8,49.4,87.4,37.8,87.4,23.5z M54.6,60.9c0,3.8,3.1,6.9,7,6.9c3.8,0,6.9-3.1,6.9-6.9
		c0-3.8-3.1-6.9-6.9-6.9C57.7,53.9,54.6,57,54.6,60.9z"/>
</g>
</svg>
