<?xml version="1.0" encoding="utf-8"?>
<!-- Generator: Adobe Illustrator 28.1.0, SVG Export Plug-In . SVG Version: 6.00 Build 0)  -->
<svg version="1.1" id="Layer_1" xmlns="http://www.w3.org/2000/svg" xmlns:xlink="http://www.w3.org/1999/xlink" x="0px" y="0px"
	 viewBox="0 0 90 90" style="enable-background:new 0 0 90 90;" xml:space="preserve">
<style type="text/css">
	.st0{fill:#0B00E2;}
	.st1{fill:#FFD700;}
</style>
<path className="st0" d="M72.2,60.2h7.6v9.3h-4.4v-4.9h-19v-5.5H33.6v5.3h-19v5.2h-4.4V60h7.3l-1.3-17.6l-1.6-2c-0.8-0.9-1.2-2-1.2-3.3
	v-8v-2.1c0-0.4,0.2-0.9,0.5-1.2c2-1.6,4.1-2.7,4.5-2.9c0.1,0,0.1-0.1,0.1-0.1v-1.2c-0.3-0.5-0.4-1.1-0.5-1.5c-0.2,0-0.4-0.3-0.6-1.2
	c-0.3-1.1,0-1.3,0.3-1.3c0,0,0,0,0.1,0c-0.2-0.6-0.2-1.2-0.1-1.8c0.2-0.6,0.5-1.2,0.9-1.6c0.3-0.3,0.5-0.5,0.9-0.7
	c0.3-0.2,0.5-0.4,0.8-0.4l0,0c0.3-0.1,0.4-0.1,0.7-0.2c0.1,0,0.2,0,0.4,0c0.6,0,1.2,0.2,1.5,0.4c0.6,0.4,0.9,0.9,0.9,0.9
	s1.7,0.1,0.9,3.6c0.3,0.1,0.4,0.4,0.1,1.3c-0.3,0.9-0.4,1.1-0.6,1.1c-0.1,0-0.1,0-0.1,0c-0.1,0.4-0.2,0.8-0.4,1.2v1.3
	c0,0.1,0,0.1,0.1,0.1c0.4,0.2,2.5,1.2,4.5,2.9c0.4,0.3,0.5,0.7,0.5,1.2v2.1v8c0,1.2-0.4,2.4-1.2,3.3l-1.6,1.9L24.4,60h4.8v-5.3h11.8
	l-1.4-20l-1.8-2.1c-0.8-1.1-1.3-2.3-1.2-3.7l0.1-8.9v-2.4c0-0.5,0.3-1,0.6-1.3c2.1-1.8,4.5-2.9,5-3.1c0.1,0,0.1-0.1,0.1-0.2v-1.2
	c-0.4-0.5-0.4-1.2-0.5-1.7c-0.2,0-0.4-0.3-0.7-1.2c-0.4-1.2,0-1.4,0.3-1.4c0,0,0,0,0.1,0c-0.3-0.7-0.3-1.3-0.1-2
	c0.2-0.7,0.5-1.3,1-1.8c0.3-0.3,0.6-0.5,1-0.8c0.3-0.2,0.5-0.4,0.9-0.4l0,0c0.2,0,0.4-0.1,0.7-0.1c0.1,0,0.3,0,0.4,0
	c0.7,0,1.3,0.2,1.7,0.4c0.7,0.4,1,1,1,1s1.9,0.2,1,4c0.3,0.1,0.4,0.4,0.1,1.4c-0.3,1-0.5,1.2-0.7,1.2c-0.1,0-0.1,0-0.2-0.1
	c-0.1,0.4-0.2,0.9-0.4,1.3V13c0,0.1,0,0.1,0.1,0.2c0.4,0.3,2.8,1.4,4.9,3.2c0.4,0.4,0.6,0.8,0.6,1.3v2.4l-0.1,8.9
	c0,1.3-0.4,2.7-1.3,3.7l-1.8,2.1l-1.7,20h12v5.5H65l-1.1-18l-1.6-2c-0.8-0.9-1.2-2-1.2-3.3v-8v-2.1c0-0.4,0.2-0.9,0.5-1.2
	c2-1.6,4.1-2.7,4.5-2.9c0.2-0.1,0.2-0.2,0.2-0.2v-1.2c-0.3-0.5-0.4-1.1-0.5-1.5c-0.2,0-0.4-0.3-0.6-1.2c-0.3-1.1,0-1.3,0.3-1.3
	c0,0,0,0,0.1,0c-0.2-0.6-0.2-1.2-0.1-1.8c0.2-0.6,0.5-1.2,0.9-1.6c0.3-0.3,0.5-0.5,0.9-0.7c0.3-0.2,0.5-0.4,0.8-0.4l0,0
	c0.3-0.1,0.4-0.1,0.7-0.2c0.1,0,0.2,0,0.4,0c0.6,0,1.2,0.2,1.5,0.4c0.6,0.4,0.9,0.9,0.9,0.9s1.7,0.1,0.9,3.6
	c0.3,0.1,0.4,0.4,0.1,1.3c-0.3,0.9-0.4,1.1-0.6,1.1c-0.1,0-0.1,0-0.1,0c-0.1,0.4-0.2,0.8-0.4,1.2v1.3c0,0.1,0,0.1,0.1,0.1
	C72,23,74,24.1,76,25.8c0.4,0.3,0.5,0.7,0.5,1.2v2.1v8c0,1.2-0.4,2.4-1.2,3.3l-1.6,2L72.2,60.2z M22.3,32.9l-0.7-6.6
	c1.6-2.1-0.1-2.3-0.4-2.3l0,0l0,0c-0.3,0-2,0.1-0.4,2.3L20,32.9l1.2,1.3L22.3,32.9z M46.3,24.2l-0.8-7.3c1.8-2.4-0.1-2.5-0.4-2.6
	l0,0l0,0c-0.4,0-2.2,0.1-0.4,2.5l-0.9,7.3l1.3,1.5L46.3,24.2z M70.1,32.9l-0.8-6.6c1.6-2.1-0.1-2.3-0.4-2.3l0,0l0,0
	c-0.3,0-2,0.1-0.4,2.3l-0.8,6.6l1.2,1.3L70.1,32.9z"/>
<path className="st1" d="M34.8,76.5L32.4,75L30,76.5c-0.4,0.3-1-0.1-0.9-0.6l0.6-2.7l-2.1-1.8c-0.4-0.4-0.2-1,0.4-1.1l2.8-0.2l1.1-2.6
	c0.2-0.4,0.9-0.4,1.1,0l1.1,2.6l2.8,0.2c0.5,0,0.7,0.7,0.4,1.1l-2.1,1.8l0.7,2.7C35.8,76.4,35.3,76.8,34.8,76.5z"/>
<path className="st1" d="M48.2,75.9l-0.6-2.7l2.1-1.8c0.4-0.4,0.2-1-0.4-1.1l-2.8-0.2l-1.1-2.6c-0.2-0.4-0.9-0.4-1.1,0l-1.1,2.6
	l-2.8,0.2c-0.5,0-0.7,0.7-0.4,1.1l2.1,1.8l-0.6,2.7c-0.1,0.5,0.4,0.9,0.9,0.6l2.4-1.5l2.4,1.5C47.9,76.8,48.4,76.4,48.2,75.9z"/>
<path className="st1" d="M61.9,70.4l-2.8-0.2l-1.1-2.6c-0.2-0.4-0.9-0.4-1.1,0L56,70.2l-2.8,0.2c-0.5,0-0.7,0.7-0.4,1.1l2.1,1.8
	l-0.6,2.7c-0.1,0.5,0.4,0.9,0.9,0.6l2.4-1.5l2.4,1.5c0.4,0.3,1-0.1,0.9-0.6l-0.6-2.7l2.1-1.8C62.6,71.1,62.5,70.4,61.9,70.4z"/>
<path className="st1" d="M43.1,81.5l-2.8-0.2l-1.1-2.6c-0.2-0.4-0.9-0.4-1.1,0l-1.1,2.6l-2.9,0.2c-0.5,0-0.7,0.7-0.4,1.1l2.1,1.8
	L35.5,87c-0.1,0.5,0.4,0.9,0.9,0.6l2.4-1.5l2.4,1.5c0.4,0.3,1-0.1,0.9-0.6l-0.6-2.7l2.1-1.8C43.8,82.2,43.7,81.5,43.1,81.5z"/>
<path className="st1" d="M55.7,81.5l-2.8-0.2l-1.1-2.6c-0.2-0.4-0.9-0.4-1.1,0l-1.1,2.6l-2.9,0.2c-0.5,0-0.7,0.7-0.4,1.1l2.1,1.8L48,87
	c-0.1,0.5,0.4,0.9,0.9,0.6l2.4-1.5l2.4,1.5c0.4,0.3,1-0.1,0.9-0.6L54,84.4l2.1-1.8C56.4,82.2,56.1,81.5,55.7,81.5z"/>
</svg>
