<?xml version="1.0" encoding="utf-8"?>
<!-- Generator: Adobe Illustrator 28.1.0, SVG Export Plug-In . SVG Version: 6.00 Build 0)  -->
<svg version="1.1" id="Layer_1" xmlns="http://www.w3.org/2000/svg" xmlns:xlink="http://www.w3.org/1999/xlink" x="0px" y="0px"
	 viewBox="0 0 90 90" style="enable-background:new 0 0 90 90;" xml:space="preserve">
<style type="text/css">
	.st0{fill:#ED8D3E;}
</style>
<path className="st0" d="M80.1,60.3c4.3-9.8,4.3-21,0-30.7l-12.3,5.6c2.7,6.2,2.7,13.3,0,19.5L80.1,60.3 M60.4,9.9
	c-9.8-4.3-20.9-4.3-30.7,0l5.6,12.3c6.3-2.7,13.3-2.7,19.6,0L60.4,9.9 M9.9,29.6c-4.3,9.8-4.3,21,0,30.8l12.3-5.6
	c-2.7-6.2-2.7-13.3,0-19.6L9.9,29.6 M29.7,80.1c9.8,4.3,20.9,4.3,30.7,0l-5.6-12.3c-6.2,2.7-13.3,2.7-19.5,0L29.7,80.1 M45,0
	c24.9,0,45,20.1,45,45S69.9,90,45,90S0,69.9,0,45S20.1,0,45,0 M45,27c-9.9,0-18,8.1-18,18s8.1,18,18,18s18-8.1,18-18S54.9,27,45,27z
	"/>
</svg>
