<?xml version="1.0" encoding="utf-8"?>
<!-- Generator: Adobe Illustrator 28.1.0, SVG Export Plug-In . SVG Version: 6.00 Build 0)  -->
<svg version="1.1" id="Layer_1" xmlns="http://www.w3.org/2000/svg" xmlns:xlink="http://www.w3.org/1999/xlink" x="0px" y="0px"
	 viewBox="0 0 800 533" style="enable-background:new 0 0 800 533;" xml:space="preserve">
<style type="text/css">
	.st0{fill:#282F75;}
	.st1{fill:#D0D1D0;}
	.st2{fill:#E4E5E5;}
	.st3{fill:#DADADA;}
	.st4{fill:#FFFFFF;}
	.st5{fill:#EAEAEA;}
	.st6{fill:#263338;}
	.st7{fill:#E7505C;}
	.st8{fill:#E0E1E0;}
	.st9{fill:#FABE9E;}
	.st10{fill:#455A64;}
	.st11{fill:#315DAA;}
	.st12{fill:#F1959E;}
	.st13{fill:#F8BFC4;}
</style>
<path className="st0" d="M796.2,533H3.8c-2.1,0-3.8-2-3.8-4.6V4.6C0,2,1.7,0,3.8,0h792.5c2.1,0,3.8,2,3.8,4.6v523.8
	C800,531,798.3,533,796.2,533z"/>
<g>
	<g>
		<polygon className="st1" points="565.2,374.5 593.6,508.9 600.2,508.9 576.4,374.5 		"/>
		<polygon className="st1" points="511.7,376 480.2,508.9 473.6,508.9 502.3,375.5 		"/>
		<path className="st2" d="M594.4,240.1c0,0,34.1-2,30.7,37.6c-3.4,39.5-5.4,79.6-18.1,93.2c-12.7,13.6-140.6,14.1-151.3,2.9
			s20.5-10.7,26.4-10.7s42,3.4,53.7-27.4C547.6,305,544.7,238.1,594.4,240.1"/>
		<path className="st1" d="M596.6,240.2c0,0,26.1,5.4,23.6,32.7c-2.5,27.4-9.3,75.1-22,87.3c-12.7,12.2-62.4,14.8-89.3,13.1
			c-31.2-2-50.9-7.9-50.9-7.9s-5.7,3.6-3.9,6c1.8,2.4,17,11.9,90.7,10.3c73.9-1.6,68.7-12.5,71.7-24.3s9.5-75.3,8.6-89.3
			C624.3,254.1,617.3,242.7,596.6,240.2"/>
		<path className="st3" d="M575.2,293.4c0,2,1.3,3.6,2.8,3.6c1.6,0,2.8-1.7,2.8-3.6s-1.3-3.6-2.8-3.6
			C576.4,289.7,575.2,291.4,575.2,293.4"/>
		<path className="st3" d="M577.1,277.4c0.2,0.1-0.9,2-1,5.3c0,1.7,0.3,3.6,1.3,5.6c0.5,1,1.1,2,1.9,2.7c0.4,0.4,0.9,0.8,1.3,1.4
			s0.7,1.5,0.5,2.2c-0.3,1.5-1.1,2.5-1.5,3.5c-0.3,1.1-0.4,2.3-0.4,3.3c0,2.2,0.7,4,1.5,5.5c1.6,2.9,3.4,4.1,3.3,4.2
			c0,0-0.5-0.2-1.3-0.8c-0.8-0.6-1.8-1.6-2.6-3.1c-0.9-1.5-1.7-3.5-1.8-5.8c0-1.2,0-2.4,0.4-3.6c0.4-1.2,1.2-2.3,1.4-3.4
			c0.3-1.1-0.6-1.9-1.5-2.7c-0.9-1-1.5-2-2-3c-1-2.1-1.3-4.2-1.1-6c0.1-1.8,0.5-3,0.9-3.9C576.7,277.8,577,277.4,577.1,277.4"/>
		<path className="st3" d="M569.4,288.7c0.2,0,0,0.9,0.4,2.1c0.3,1.2,1.3,2.7,2.8,3.8c1.6,1.1,3.3,1.5,4.6,1.7c1.3,0.2,2.2,0.2,2.2,0.4
			c0,0.1-0.8,0.3-2.2,0.3s-3.3-0.3-5.1-1.6c-1.8-1.3-2.7-3.1-2.9-4.5C568.9,289.5,569.3,288.7,569.4,288.7"/>
		<polygon className="st1" points="653.5,510.1 658.6,510.1 650.5,315.3 645.4,315.5 		"/>
		<polygon className="st1" points="370.6,510.3 375.7,510.7 385.3,315.7 380.2,315.4 		"/>
		<polygon className="st1" points="418,511.6 423.1,511.9 432.4,318.4 427.3,318.1 		"/>
		<polygon className="st1" points="685.3,510.1 690.4,510.1 682.3,315.4 677.2,315.6 		"/>
		<rect x="362" y="313.1" className="st1" width="333.6" height="10"/>
		<polygon className="st3" points="387.7,248.9 411.5,312 519.5,312 518.8,308.8 475,307.5 454.9,248.9 		"/>
		<path className="st4" d="M435.6,280.4c0.7,2.6-0.5,5.1-2.7,5.7c-2.3,0.5-4.6-1.1-5.3-3.7c-0.7-2.6,0.5-5.1,2.7-5.7
			C432.4,276.2,434.8,277.9,435.6,280.4"/>
	</g>
	<rect x="575" y="110.9" className="st5" width="62" height="85.4"/>
	<g>
		<path className="st6" d="M627.3,128.2c0,0.1-4.4,0.2-9.9,0.2s-9.9-0.1-9.9-0.2c0-0.1,4.4-0.2,9.9-0.2
			C622.7,127.9,627.3,128,627.3,128.2"/>
		<path className="st6" d="M617.3,139.4c0,0.1-2.3,0.2-5,0.2s-5-0.1-5-0.2c0-0.1,2.3-0.2,5-0.2C615.1,139.2,617.3,139.3,617.3,139.4"/>
		<path className="st6" d="M593.4,142.6c0,0.1-2.3,0.2-5,0.2s-5-0.1-5-0.2c0-0.1,2.3-0.2,5-0.2C591.3,142.4,593.4,142.5,593.4,142.6"/>
		<path className="st6" d="M598.5,147.4c0,0.1-3.3,0.2-7.6,0.2c-4.1,0-7.6-0.1-7.6-0.2c0-0.1,3.3-0.2,7.6-0.2
			C595.2,147.1,598.5,147.2,598.5,147.4"/>
		<path className="st6" d="M593.4,155.5c0,0.1-2.3,0.2-5,0.2s-5-0.1-5-0.2s2.3-0.2,5-0.2C591.3,155.2,593.4,155.3,593.4,155.5"/>
		<path className="st6" d="M598.5,160.2c0,0.1-3.3,0.2-7.6,0.2c-4.1,0-7.6-0.1-7.6-0.2s3.3-0.2,7.6-0.2
			C595.2,160.1,598.5,160.1,598.5,160.2"/>
		<path className="st6" d="M593.4,167.8c0,0.1-2.3,0.2-5,0.2s-5-0.1-5-0.2c0-0.1,2.3-0.2,5-0.2C591.3,167.6,593.4,167.7,593.4,167.8"/>
		<path className="st6" d="M598.5,172.6c0,0.1-3.3,0.2-7.6,0.2c-4.1,0-7.6-0.1-7.6-0.2s3.3-0.2,7.6-0.2
			C595.2,172.3,598.5,172.4,598.5,172.6"/>
		<path className="st6" d="M630,147.7c0,0.1-5.1,0.2-11.3,0.2c-6.3,0-11.3-0.1-11.3-0.2c0-0.1,5.1-0.2,11.3-0.2
			C624.9,147.4,630,147.5,630,147.7"/>
		<path className="st6" d="M616.4,155.9c0,0.1-2,0.2-4.5,0.2c-2.5,0-4.5-0.1-4.5-0.2c0-0.1,2-0.2,4.5-0.2
			C614.3,155.7,616.4,155.8,616.4,155.9"/>
		<path className="st6" d="M630,164.3c0,0.1-5.1,0.2-11.3,0.2c-6.3,0-11.3-0.1-11.3-0.2s5.1-0.2,11.3-0.2
			C624.9,164.1,630,164.2,630,164.3"/>
		<path className="st6" d="M630,172.6c0,0.1-5.1,0.2-11.3,0.2c-6.3,0-11.3-0.1-11.3-0.2s5.1-0.2,11.3-0.2
			C624.9,172.3,630,172.4,630,172.6"/>
		<path className="st6" d="M628.8,181.2c0,0.1-5.1,0.2-11.3,0.2c-6.3,0-11.3-0.1-11.3-0.2c0-0.1,5.1-0.2,11.3-0.2
			C623.7,181,628.8,181.1,628.8,181.2"/>
		<path className="st6" d="M600.1,136.5c0,0,0-0.4,0-1.2c0-1,0-2.1-0.1-3.3c0-3.1-0.1-7.1-0.1-11.7l0.2,0.2c-4.8,0-10.3,0-16.2,0
			c-0.1,0.1,0.4-0.4,0.2-0.2l0,0l0,0l0,0l0,0v0.1v0.1v0.3v0.6v1.1c0,0.7,0,1.5,0,2.2c0,1.5,0,2.8,0,4.2c0,2.7,0,5.3,0,7.7l-0.2-0.2
			c4.6,0,8.6,0.1,11.7,0.1c1.3,0,2.4,0,3.3,0.1C599.7,136.5,600.1,136.5,600.1,136.5s-0.4,0-1.1,0c-1,0-2.1,0-3.2,0.1
			c-3.1,0-7.2,0.1-11.8,0.1h-0.2v-0.2c0-2.4,0-4.9,0-7.7c0-1.4,0-2.7,0-4.2c0-0.7,0-1.5,0-2.2v-1.1v-0.6v-0.3v-0.1v-0.1l0,0l0,0l0,0
			l0,0c-0.2,0.2,0.3-0.3,0.2-0.2c5.9,0,11.4,0,16.2,0h0.2v0.2c0,4.7-0.1,8.6-0.1,11.8c0,1.3,0,2.4-0.1,3.2
			C600.1,136.1,600.1,136.5,600.1,136.5"/>
		<path className="st6" d="M600.1,127.6c0,0-0.3-0.2-0.9-0.5c-0.8-0.5-1.5-1-2.2-1.5h0.2c-1.7,1.6-3.2,3.1-5,4.8l-0.1,0.1l-0.1,0.1
			l-0.2-0.1c-1.1-0.8-2.1-1.5-3-2.2h0.3c-1.2,1-2.5,2.1-3.7,3c-0.9,0.8-1.5,1.2-1.5,1.1c0,0,0.5-0.5,1.4-1.3
			c1.2-1.1,2.5-2.2,3.6-3.2l0.1-0.1l0.1,0.1c1,0.7,2,1.4,3,2.2h-0.3l0.1-0.1c1.8-1.7,3.3-3.1,5.1-4.7l0.1-0.1l0.1,0.1
			c0.7,0.5,1.4,1.1,2.2,1.6C599.9,127.3,600.1,127.6,600.1,127.6"/>
		<path className="st6" d="M593.8,124c-0.1,0,0-0.8-0.9-1.5c-0.4-0.3-1.1-0.5-1.7-0.2c-0.6,0.2-1.2,0.9-1.2,1.7c0,0.8,0.5,1.5,1.2,1.7
			c0.6,0.2,1.3,0.1,1.7-0.2C593.8,124.8,593.7,124,593.8,124c0-0.1,0.3,0.9-0.7,1.7c-0.5,0.4-1.3,0.6-2.1,0.4
			c-0.8-0.3-1.5-1.1-1.5-2.1c0-1,0.7-1.8,1.5-2.1c0.8-0.3,1.6,0,2.1,0.4C594.1,123.3,593.8,124.1,593.8,124"/>
	</g>
	<rect x="104.4" y="110.9" className="st5" width="62" height="85.4"/>
	<g>
		<path className="st6" d="M156.8,128.2c0,0.1-4.4,0.2-9.9,0.2c-5.5,0-9.9-0.1-9.9-0.2c0-0.1,4.4-0.2,9.9-0.2
			C152.2,127.9,156.8,128,156.8,128.2"/>
		<path className="st6" d="M146.7,139.4c0,0.1-2.3,0.2-5,0.2s-5-0.1-5-0.2c0-0.1,2.3-0.2,5-0.2S146.7,139.3,146.7,139.4"/>
		<path className="st6" d="M122.9,142.6c0,0.1-2.3,0.2-5,0.2c-2.7,0-5-0.1-5-0.2c0-0.1,2.3-0.2,5-0.2
			C120.7,142.4,122.9,142.5,122.9,142.6"/>
		<path className="st6" d="M128,147.4c0,0.1-3.3,0.2-7.6,0.2c-4.1,0-7.6-0.1-7.6-0.2c0-0.1,3.3-0.2,7.6-0.2
			C124.7,147.1,128,147.2,128,147.4"/>
		<path className="st6" d="M122.9,155.5c0,0.1-2.3,0.2-5,0.2c-2.7,0-5-0.1-5-0.2s2.3-0.2,5-0.2C120.7,155.2,122.9,155.3,122.9,155.5"/>
		<path className="st6" d="M128,160.2c0,0.1-3.3,0.2-7.6,0.2c-4.1,0-7.6-0.1-7.6-0.2s3.3-0.2,7.6-0.2C124.7,160.1,128,160.1,128,160.2"
			/>
		<path className="st6" d="M122.9,167.8c0,0.1-2.3,0.2-5,0.2c-2.7,0-5-0.1-5-0.2c0-0.1,2.3-0.2,5-0.2
			C120.7,167.6,122.9,167.7,122.9,167.8"/>
		<path className="st6" d="M128,172.6c0,0.1-3.3,0.2-7.6,0.2c-4.1,0-7.6-0.1-7.6-0.2s3.3-0.2,7.6-0.2C124.7,172.3,128,172.4,128,172.6"
			/>
		<path className="st6" d="M159.5,147.7c0,0.1-5.1,0.2-11.3,0.2c-6.3,0-11.3-0.1-11.3-0.2c0-0.1,5.1-0.2,11.3-0.2
			C154.4,147.4,159.5,147.5,159.5,147.7"/>
		<path className="st6" d="M145.9,155.9c0,0.1-2,0.2-4.5,0.2c-2.5,0-4.5-0.1-4.5-0.2c0-0.1,2-0.2,4.5-0.2
			C143.8,155.7,145.9,155.8,145.9,155.9"/>
		<path className="st6" d="M159.5,164.3c0,0.1-5.1,0.2-11.3,0.2c-6.3,0-11.3-0.1-11.3-0.2s5.1-0.2,11.3-0.2
			C154.4,164.1,159.5,164.2,159.5,164.3"/>
		<path className="st6" d="M159.5,172.6c0,0.1-5.1,0.2-11.3,0.2c-6.3,0-11.3-0.1-11.3-0.2s5.1-0.2,11.3-0.2
			C154.4,172.3,159.5,172.4,159.5,172.6"/>
		<path className="st6" d="M158.3,181.2c0,0.1-5.1,0.2-11.3,0.2c-6.3,0-11.3-0.1-11.3-0.2c0-0.1,5.1-0.2,11.3-0.2
			S158.3,181.1,158.3,181.2"/>
		<path className="st6" d="M129.6,136.5c0,0,0-0.4,0-1.2c0-1,0-2.1-0.1-3.3c0-3.1-0.1-7.1-0.1-11.7l0.2,0.2c-4.8,0-10.3,0-16.2,0
			c-0.1,0.1,0.4-0.4,0.2-0.2l0,0l0,0l0,0l0,0v0.1v0.1v0.3v0.6v1.1c0,0.7,0,1.5,0,2.2c0,1.5,0,2.8,0,4.2c0,2.7,0,5.3,0,7.7l-0.2-0.2
			c4.6,0,8.6,0.1,11.7,0.1c1.3,0,2.4,0,3.3,0.1C129.2,136.5,129.6,136.5,129.6,136.5s-0.4,0-1.1,0c-1,0-2.1,0-3.2,0.1
			c-3.1,0-7.2,0.1-11.8,0.1h-0.2v-0.2c0-2.4,0-4.9,0-7.7c0-1.4,0-2.7,0-4.2c0-0.7,0-1.5,0-2.2v-1.1v-0.6v-0.3v-0.1v-0.1l0,0l0,0l0,0
			l0,0c-0.2,0.2,0.3-0.3,0.2-0.2c5.9,0,11.4,0,16.2,0h0.2v0.2c0,4.7-0.1,8.6-0.1,11.8c0,1.3,0,2.4-0.1,3.2
			C129.6,136.1,129.6,136.5,129.6,136.5"/>
		<path className="st6" d="M129.6,127.6c0,0-0.3-0.2-0.9-0.5c-0.8-0.5-1.5-1-2.2-1.5h0.2c-1.7,1.6-3.2,3.1-5,4.8l-0.1,0.1l-0.1,0.1
			l-0.2-0.1c-1.1-0.8-2.1-1.5-3-2.2h0.3c-1.2,1-2.5,2.1-3.7,3c-0.9,0.8-1.5,1.2-1.5,1.1c0,0,0.5-0.5,1.4-1.3
			c1.2-1.1,2.5-2.2,3.6-3.2l0.1-0.1l0.1,0.1c1,0.7,2,1.4,3,2.2h-0.3l0.1-0.1c1.8-1.7,3.3-3.1,5.1-4.7l0.1-0.1l0.1,0.1
			c0.7,0.5,1.4,1.1,2.2,1.6C129.4,127.3,129.6,127.6,129.6,127.6"/>
		<path className="st6" d="M123.3,124c-0.1,0,0-0.8-0.9-1.5c-0.4-0.3-1.1-0.5-1.7-0.2c-0.6,0.2-1.2,0.9-1.2,1.7c0,0.8,0.5,1.5,1.2,1.7
			c0.6,0.2,1.3,0.1,1.7-0.2C123.3,124.8,123.2,124,123.3,124c0-0.1,0.3,0.9-0.7,1.7c-0.5,0.4-1.3,0.6-2.1,0.4
			c-0.8-0.3-1.5-1.1-1.5-2.1c0-1,0.7-1.8,1.5-2.1s1.6,0,2.1,0.4C123.6,123.3,123.3,124.1,123.3,124"/>
	</g>
	<rect x="310.9" y="23.1" className="st7" width="6.3" height="6.3"/>
	<rect x="310.9" y="115.3" className="st7" width="6.3" height="6.3"/>
	<rect x="439" y="115.3" className="st7" width="6.3" height="6.3"/>
	<rect x="310.9" y="206" className="st7" width="6.3" height="6.3"/>
	<rect x="373.7" y="23.1" className="st7" width="6.3" height="6.3"/>
	<rect x="373.7" y="207.5" className="st7" width="6.3" height="6.3"/>
	<rect x="439" y="23.1" className="st7" width="6.3" height="6.3"/>
	<rect x="439" y="207.5" className="st7" width="6.3" height="6.3"/>
	<g>
		<path className="st7" d="M442.6,209.5c0,0,0-0.3,0-0.9c0-0.6,0-1.5,0-2.6c0-2.4,0-5.7-0.1-10.1c0-8.8-0.1-21.7-0.1-38
			c-0.1-32.5-0.2-78.6-0.3-132.9l0.5,0.5c-38.8,0-82.4,0-128.2,0.1l0,0L315,25c0,69.3-0.1,133.2-0.1,184.4l-0.5-0.5
			c38.9,0.1,70.9,0.2,93.2,0.2c11.2,0.1,19.8,0.1,25.8,0.1c2.9,0,5.2,0,6.8,0.1C441.7,209.5,442.6,209.5,442.6,209.5s-0.8,0-2.3,0.1
			c-1.6,0-3.8,0-6.7,0.1c-6,0-14.6,0.1-25.7,0.1c-22.4,0.1-54.4,0.1-93.5,0.2H314v-0.5c0-51.2-0.1-115.2-0.1-184.4v-0.6h0.6l0,0
			c45.8,0,89.3,0,128.2,0.1h0.5v0.5c-0.1,54.4-0.2,100.7-0.3,133.2c-0.1,16.2-0.1,29-0.1,37.9c0,4.3,0,7.7-0.1,10c0,1.1,0,2,0,2.6
			C442.6,209.2,442.6,209.5,442.6,209.5"/>
	</g>
	<rect x="319.4" y="33.5" className="st8" width="117.9" height="169.5"/>
	<g>
		<path className="st6" d="M392.2,85.1c0,0.3-4.5,0.6-10.2,0.6c-5.6,0-10.2-0.3-10.2-0.6c0-0.3,4.5-0.6,10.2-0.6
			C387.6,84.5,392.2,84.8,392.2,85.1"/>
		<path className="st6" d="M360.6,87.7c0,0.3-6.4,0.6-14.3,0.6c-7.9,0-14.3-0.3-14.3-0.6s6.4-0.6,14.3-0.6
			C354.2,87.1,360.6,87.4,360.6,87.7"/>
		<path className="st6" d="M360.6,95.1c0,0.3-6.4,0.6-14.3,0.6c-7.9,0-14.3-0.3-14.3-0.6c0-0.3,6.4-0.6,14.3-0.6
			C354.2,94.5,360.6,94.8,360.6,95.1"/>
		<path className="st6" d="M360.6,102.7c0,0.3-6.4,0.6-14.3,0.6c-7.9,0-14.3-0.3-14.3-0.6s6.4-0.6,14.3-0.6
			C354.2,102.1,360.6,102.3,360.6,102.7"/>
		<path className="st6" d="M360.6,110.1c0,0.3-6.4,0.6-14.3,0.6c-7.9,0-14.3-0.3-14.3-0.6c0-0.3,6.4-0.6,14.3-0.6
			C354.2,109.5,360.6,109.8,360.6,110.1"/>
		<path className="st6" d="M360.6,117.6c0,0.3-6.4,0.6-14.3,0.6c-7.9,0-14.3-0.3-14.3-0.6s6.4-0.6,14.3-0.6
			C354.2,117,360.6,117.3,360.6,117.6"/>
		<path className="st6" d="M360.6,131.1c0,0.3-6.4,0.6-14.3,0.6c-7.9,0-14.3-0.3-14.3-0.6s6.4-0.6,14.3-0.6
			C354.2,130.5,360.6,130.7,360.6,131.1"/>
		<path className="st6" d="M360.6,138.6c0,0.3-6.4,0.6-14.3,0.6c-7.9,0-14.3-0.3-14.3-0.6s6.4-0.6,14.3-0.6
			C354.2,138,360.6,138.3,360.6,138.6"/>
		<path className="st6" d="M360.6,146c0,0.3-6.4,0.6-14.3,0.6c-7.9,0-14.3-0.3-14.3-0.6s6.4-0.6,14.3-0.6
			C354.2,145.4,360.6,145.7,360.6,146"/>
		<path className="st6" d="M348,153.6c0,0.3-3.5,0.6-7.9,0.6s-7.9-0.3-7.9-0.6s3.5-0.6,7.9-0.6S348,153.2,348,153.6"/>
		<path className="st6" d="M417.7,97.3c0,0.3-10.3,0.6-23,0.6c-12.7,0-23-0.3-23-0.6c0-0.3,10.3-0.6,23-0.6
			C407.4,96.7,417.7,97,417.7,97.3"/>
		<path className="st6" d="M418.4,104.6c0,0.3-10.3,0.6-23,0.6s-23-0.3-23-0.6s10.3-0.6,23-0.6C408.1,104,418.4,104.2,418.4,104.6"/>
		<path className="st6" d="M392.2,121.3c0,0.3-4.5,0.6-10.2,0.6c-5.6,0-10.2-0.3-10.2-0.6s4.5-0.6,10.2-0.6
			C387.6,120.7,392.2,120.9,392.2,121.3"/>
		<path className="st6" d="M417.7,133.4c0,0.3-10.3,0.6-23,0.6c-12.7,0-23-0.3-23-0.6c0-0.3,10.3-0.6,23-0.6
			C407.4,132.9,417.7,133.1,417.7,133.4"/>
		<path className="st6" d="M418.4,140.7c0,0.3-10.3,0.6-23,0.6s-23-0.3-23-0.6c0-0.3,10.3-0.6,23-0.6
			C408.1,140.1,418.4,140.4,418.4,140.7"/>
		<path className="st6" d="M392.2,158.8c0,0.3-4.5,0.6-10.2,0.6c-5.6,0-10.2-0.3-10.2-0.6s4.5-0.6,10.2-0.6
			C387.6,158.2,392.2,158.5,392.2,158.8"/>
		<path className="st6" d="M417.7,170.9c0,0.3-10.3,0.6-23,0.6c-12.7,0-23-0.3-23-0.6c0-0.3,10.3-0.6,23-0.6
			C407.4,170.4,417.7,170.6,417.7,170.9"/>
		<path className="st6" d="M418.4,178.3c0,0.3-10.3,0.6-23,0.6s-23-0.3-23-0.6c0-0.3,10.3-0.6,23-0.6
			C408.1,177.7,418.4,177.9,418.4,178.3"/>
		<path className="st6" d="M361.5,76.6c0,0-0.1-0.8-0.1-2.3c0-1.6-0.1-3.6-0.1-6.2c-0.1-5.4-0.2-12.9-0.3-21.8l0.5,0.5
			c-8.8,0-19.2,0.1-30.3,0.1c-0.1,0.1,1.1-1.1,0.6-0.6l0,0l0,0l0,0v0.1v0.1v0.3v0.5v1.1v2.1c0,1.4,0,2.7,0,4c0,2.6,0,5.3,0,7.8
			c0,5.1,0,9.9-0.1,14.3l-0.5-0.5c8.9,0.1,16.4,0.2,21.8,0.3c2.6,0.1,4.6,0.1,6.2,0.1C360.7,76.5,361.5,76.5,361.5,76.6
			c0,0-0.7,0.1-2.1,0.1c-1.6,0-3.6,0.1-6.1,0.1c-5.5,0.1-13,0.2-22.2,0.3h-0.5v-0.5c0-4.4,0-9.2-0.1-14.3c0-2.6,0-5.2,0-7.8
			c0-1.4,0-2.6,0-4v-2.1v-1.1v-0.5v-0.3v-0.1v-0.1l0,0l0,0l0,0c-0.5,0.5,0.7-0.7,0.6-0.6c11.1,0,21.5,0.1,30.3,0.1h0.5v0.5
			c-0.1,9-0.2,16.6-0.3,22.2c-0.1,2.6-0.1,4.5-0.1,6.1C361.6,75.9,361.5,76.6,361.5,76.6"/>
		<path className="st6" d="M424.1,59.1c0,0.3-10.9,0.6-24.3,0.6s-24.3-0.3-24.3-0.6c0-0.3,10.9-0.6,24.3-0.6S424.1,58.8,424.1,59.1"/>
		<path className="st6" d="M400.3,66.1c0,0.3-5.4,0.6-12.2,0.6c-6.7,0-12.2-0.3-12.2-0.6c0-0.3,5.4-0.6,12.2-0.6
			C394.8,65.5,400.3,65.8,400.3,66.1"/>
		<path className="st6" d="M383.1,52.9c0,0.1-0.7,0.7-2.3,1C380,54,379,54,378,53.4c-1-0.6-1.8-1.7-1.9-3c-0.1-1.4,0.4-2.6,1.2-3.3
			s1.8-1.2,2.6-1.3c1.7-0.1,2.6,0.6,2.5,0.7c-0.1,0.2-1-0.2-2.3,0.1c-0.7,0.2-1.4,0.5-2,1.2s-0.9,1.6-0.8,2.6c0.1,1,0.7,1.8,1.4,2.3
			c0.7,0.5,1.5,0.6,2.2,0.6C382.1,53,383,52.7,383.1,52.9"/>
		<path className="st6" d="M391.3,45.4c0.3,0.2-1.1,3.5-3,7.6l0,0l-0.5,1l-0.6-0.9c-2.3-3.9-3.9-7.2-3.6-7.4c0.3-0.2,2.4,2.8,4.6,6.8
			l-1.1,0.1l0,0C389.2,48.4,391,45.2,391.3,45.4"/>
		<path className="st6" d="M360.5,76.6c-0.1,0.1-0.9-1.6-3-3.4c-2.1-2-5.8-3.7-10.1-3.9s-7.9,1.9-10,3.8c-2.1,2-2.8,3.5-3,3.5
			c0,0,0.1-0.5,0.5-1.2c0.4-0.7,1.1-1.7,2.2-2.7c2.1-2.1,5.8-4.3,10.4-4.1c4.5,0.2,8.3,2.2,10.4,4.2c1.1,1,1.8,2,2.3,2.6
			C360.4,76.1,360.5,76.6,360.5,76.6"/>
		<path className="st6" d="M343.7,51.7c0,0,0.5-0.5,1.8-0.7c1.2-0.2,3.2,0,5.1,1.4c1.9,1.4,3.1,4,3.1,7.1c0,1.5-0.2,3.1-1,4.6
			c-0.7,1.5-2.2,2.7-3.9,3.1c-1.7,0.5-3.5,0.3-5-0.4c-1.5-0.7-2.7-1.9-3.5-3.1c-0.8-1.3-1.2-2.7-1.1-4.1c0-1.3,0.2-2.6,0.5-3.6
			c0.7-2.2,2.2-3.5,3.2-4.1c1.2-0.6,1.9-0.6,1.9-0.6c0,0.1-0.7,0.2-1.7,0.8c-1.1,0.6-2.4,1.9-2.9,4c-0.5,2.1-0.9,4.9,0.7,7.3
			c1.4,2.4,4.6,4.1,7.8,3.2c1.6-0.4,2.8-1.5,3.5-2.8c0.7-1.4,1-2.8,1-4.3c0-2.8-1.2-5.4-2.8-6.7c-1.7-1.4-3.5-1.6-4.7-1.5
			C344.4,51.5,343.8,51.8,343.7,51.7"/>
		<path className="st6" d="M350,57.3c0.2,0,0.3,0.2,0.3,0.4c0,0.2-0.2,0.4-0.4,0.4c-0.2,0-0.3-0.2-0.3-0.4
			C349.6,57.5,349.8,57.3,350,57.3"/>
		<path className="st6" d="M343.2,58.3c0.2,0,0.3,0.2,0.3,0.4c0,0.2-0.2,0.4-0.4,0.4s-0.3-0.2-0.3-0.4C343,58.5,343.1,58.3,343.2,58.3"
			/>
		<path className="st6" d="M339.6,56.4c0-0.1,0.7-0.1,1.8-0.2c1.1,0,2.6-0.1,4.2-0.5s2.8-1.2,3.5-2.1c0.6-0.9,0.7-1.6,0.9-1.6
			c0.1,0,0.1,0.8-0.5,1.8c-0.6,1.1-2.1,2-3.7,2.5s-3.2,0.4-4.4,0.3C340.3,56.7,339.6,56.5,339.6,56.4"/>
		<path className="st6" d="M339.7,61.8c0,0.1-0.2,0.2-0.7,0.2c-0.4,0-1.1-0.4-1.3-1.2c-0.1-0.4,0-0.8,0.3-1c0.2-0.3,0.6-0.4,0.8-0.3
			c0.5,0,0.7,0.4,0.6,0.4c-0.1,0.1-0.3,0-0.5,0.1c-0.3,0.1-0.5,0.4-0.4,0.8C338.6,61.6,339.7,61.7,339.7,61.8"/>
		<path className="st6" d="M353.7,61.1c0-0.1,0.6-0.6,0.5-1.2c-0.2-0.6-0.9-0.7-1-0.9c0-0.1,0.2-0.3,0.5-0.2c0.4,0,0.9,0.3,1.1,1
			c0.1,0.7-0.3,1.2-0.6,1.3C354,61.3,353.7,61.2,353.7,61.1"/>
		<path className="st6" d="M349.5,61.9c0.1,0,0,0.4-0.4,0.8c-0.4,0.4-1,0.9-1.9,0.9c-0.9,0.1-1.6-0.3-2-0.7c-0.4-0.4-0.5-0.7-0.5-0.8
			c0.1-0.1,1,0.8,2.5,0.7C348.5,62.9,349.3,61.8,349.5,61.9"/>
		<path className="st6" d="M347.3,61.5c-0.1-0.1,0.7-0.5,1-1.4l0.4,0.4c-0.4,0.1-0.9-0.1-1.2-0.4c-0.8-0.7-0.8-1.7-0.7-2.2
			c0.1-0.5,0.2-0.9,0.3-0.8c0.1,0,0.1,0.4,0.2,0.9c0,0.5,0.1,1.2,0.6,1.6c0.2,0.2,0.4,0.3,0.7,0.3h0.5l-0.2,0.4
			C348.3,61.6,347.2,61.7,347.3,61.5"/>
		<path className="st6" d="M345.6,68.9c-0.2,0-0.4-0.4-0.4-0.9s0.1-1,0.3-1s0.4,0.4,0.4,0.9C345.9,68.5,345.8,68.9,345.6,68.9"/>
		<path className="st6" d="M349,68.6c-0.2,0-0.4-0.4-0.4-0.9s0.1-1,0.3-1s0.4,0.4,0.4,0.9C349.3,68.2,349.2,68.6,349,68.6"/>
	</g>
	<rect x="472.3" y="87.4" className="st5" width="75.5" height="108.5"/>
	<g>
		<path className="st6" d="M518.7,120.6c0,0.2-2.9,0.4-6.5,0.4c-3.6,0-6.5-0.2-6.5-0.4s2.9-0.4,6.5-0.4
			C515.7,120.2,518.7,120.4,518.7,120.6"/>
		<path className="st6" d="M498,123.4c0,0.2-4.1,0.4-9.1,0.4c-5.1,0-9.1-0.2-9.1-0.4c0-0.2,4.1-0.4,9.1-0.4
			C493.8,123,498,123.2,498,123.4"/>
		<path className="st6" d="M498,128.2c0,0.2-4.1,0.4-9.1,0.4c-5.1,0-9.1-0.2-9.1-0.4c0-0.2,4.1-0.4,9.1-0.4
			C493.8,127.8,498,128,498,128.2"/>
		<path className="st6" d="M498,133c0,0.2-4.1,0.4-9.1,0.4c-5.1,0-9.1-0.2-9.1-0.4c0-0.2,4.1-0.4,9.1-0.4C493.8,132.6,498,132.8,498,133
			"/>
		<path className="st6" d="M489.8,137.8c0,0.2-2.3,0.4-5.1,0.4c-2.8,0-5.1-0.2-5.1-0.4c0-0.2,2.3-0.4,5.1-0.4
			C487.6,137.4,489.8,137.6,489.8,137.8"/>
		<path className="st6" d="M535,128.4c0,0.2-6.6,0.4-14.7,0.4s-14.7-0.2-14.7-0.4c0-0.2,6.6-0.4,14.7-0.4
			C528.4,128.1,535,128.2,535,128.4"/>
		<path className="st6" d="M535.4,133.1c0,0.2-6.6,0.4-14.7,0.4s-14.7-0.2-14.7-0.4c0-0.2,6.6-0.4,14.7-0.4
			C528.9,132.7,535.4,132.9,535.4,133.1"/>
		<path className="st6" d="M518.7,143.8c0,0.2-2.9,0.4-6.5,0.4c-3.6,0-6.5-0.2-6.5-0.4c0-0.2,2.9-0.4,6.5-0.4
			C515.7,143.4,518.7,143.6,518.7,143.8"/>
		<path className="st6" d="M535,151.5c0,0.2-6.6,0.4-14.7,0.4s-14.7-0.2-14.7-0.4c0-0.2,6.6-0.4,14.7-0.4
			C528.4,151.2,535,151.3,535,151.5"/>
		<path className="st6" d="M535.4,156.2c0,0.2-6.6,0.4-14.7,0.4s-14.7-0.2-14.7-0.4c0-0.2,6.6-0.4,14.7-0.4S535.4,156,535.4,156.2"/>
		<path className="st6" d="M518.7,167.8c0,0.2-2.9,0.4-6.5,0.4c-3.6,0-6.5-0.2-6.5-0.4c0-0.2,2.9-0.4,6.5-0.4
			C515.7,167.5,518.7,167.6,518.7,167.8"/>
		<path className="st6" d="M535,175.6c0,0.2-6.6,0.4-14.7,0.4s-14.7-0.2-14.7-0.4c0-0.2,6.6-0.4,14.7-0.4
			C528.4,175.3,535,175.4,535,175.6"/>
		<path className="st6" d="M535.4,180.3c0,0.2-6.6,0.4-14.7,0.4s-14.7-0.2-14.7-0.4c0-0.2,6.6-0.4,14.7-0.4
			C528.9,180,535.4,180.1,535.4,180.3"/>
		<path className="st6" d="M539.1,108.4c0,0.2-7,0.4-15.6,0.4c-8.6,0-15.6-0.2-15.6-0.4c0-0.2,7-0.4,15.6-0.4S539.1,108.3,539.1,108.4"
			/>
		<path className="st6" d="M523.9,113c0,0.2-3.5,0.4-7.8,0.4c-4.3,0-7.8-0.2-7.8-0.4c0-0.2,3.4-0.4,7.8-0.4
			C520.3,112.6,523.9,112.8,523.9,113"/>
		<path className="st6" d="M512.8,104.4c0,0.1-0.5,0.4-1.5,0.6c-0.5,0.1-1.2,0.1-1.8-0.3c-0.6-0.4-1.1-1.1-1.2-2
			c-0.2-1.8,1.4-2.9,2.4-2.9c1.1-0.1,1.6,0.4,1.6,0.4c0,0.1-0.6-0.1-1.5,0.1c-0.9,0.1-1.9,1.1-1.8,2.5c0.1,0.6,0.4,1.2,0.9,1.5
			c0.5,0.3,1,0.4,1.4,0.4C512.2,104.5,512.8,104.3,512.8,104.4"/>
		<path className="st6" d="M518.1,99.6c0.2,0.1-0.7,2.3-2,4.8l0,0l-0.3,0.6l-0.3-0.6c-1.5-2.5-2.6-4.6-2.4-4.7c0.2-0.1,1.5,1.9,2.9,4.3
			h-0.6l0,0C516.8,101.6,518,99.5,518.1,99.6"/>
		<path className="st6" d="M499.5,115.1c0,0,0-0.5-0.1-1.5c0-1.1,0-2.5-0.1-4c0-3.6-0.1-8.3-0.2-13.9l0.3,0.3c-5.7,0-12.4,0-19.4,0
			c-0.1,0.1,0.7-0.7,0.4-0.4l0,0l0,0l0,0l0,0v0.1v0.2v0.3v0.7v1.3c0,0.9,0,1.8,0,2.6c0,1.7,0,3.4,0,5c0,3.2,0,6.3,0,9.1l-0.3-0.3
			c5.6,0.1,10.4,0.1,13.9,0.2c1.6,0,2.8,0.1,4,0.1C498.9,115,499.5,115.1,499.5,115.1s-0.4,0-1.4,0.1c-1.1,0-2.4,0-3.9,0.1
			c-3.6,0-8.4,0.1-14.1,0.2h-0.3v-0.3c0-2.8,0-5.9,0-9.1c0-1.7,0-3.3,0-5c0-0.9,0-1.8,0-2.6v-1.3v-0.7v-0.3v-0.2V96l0,0l0,0l0,0l0,0
			c-0.3,0.3,0.4-0.4,0.4-0.4c7.1,0,13.7,0,19.4,0h0.3v0.3c-0.1,5.7-0.1,10.5-0.2,14.1c0,1.6-0.1,2.8-0.1,3.9
			C499.5,114.6,499.5,115.1,499.5,115.1"/>
		<path className="st6" d="M487.9,100c0,0,0.4-0.3,1.2-0.5c0.8-0.1,2.1,0,3.2,0.9c1.2,0.9,2,2.6,2.1,4.5c0,1-0.1,2-0.6,2.9
			c-0.5,1-1.4,1.8-2.6,2.1c-2.3,0.7-4.5-0.6-5.5-2.3c-0.5-0.8-0.7-1.8-0.7-2.6s0.1-1.7,0.3-2.4c0.4-1.4,1.4-2.3,2.1-2.6
			c0.7-0.4,1.2-0.4,1.2-0.4s-0.4,0.1-1.1,0.5c-0.7,0.4-1.5,1.2-1.9,2.6c-0.3,1.3-0.6,3.1,0.4,4.6c0.9,1.6,2.9,2.6,5,2.1
			c2.2-0.5,2.8-2.7,2.8-4.5c0-1.9-0.7-3.4-1.8-4.3c-1.1-0.9-2.3-1-3-1C488.3,99.8,487.9,100.1,487.9,100"/>
		<path className="st6" d="M494,106.1c0-0.1,0.7-0.3,0.7-1c-0.1-0.7-0.9-0.8-0.8-0.9c0-0.1,0.2-0.2,0.5-0.1c0.3,0.1,0.8,0.4,0.8,0.9
			c0,0.6-0.3,1-0.6,1.1C494.3,106.3,494,106.2,494,106.1"/>
		<path className="st6" d="M485.2,105c0,0.1-0.6,0.5-0.4,1.1c0.2,0.6,1,0.6,1,0.7c0,0.1-0.1,0.2-0.5,0.2c-0.3,0-0.8-0.2-1-0.7
			s0.1-1,0.4-1.2C485,104.9,485.2,105,485.2,105"/>
		<path className="st6" d="M492,106.4c0.1,0-0.3,1.2-1.8,1.5c-1.5,0.2-2.2-0.9-2.1-1c0.1-0.1,0.9,0.6,2,0.5
			C491.3,107.2,491.9,106.3,492,106.4"/>
		<path className="st6" d="M492.9,101.8c0,0-0.3,0.3-1,0.6c-0.4,0.1-0.8,0.2-1.4,0.1c-0.5-0.1-1.1-0.5-1.2-1.2l0.4,0.1l-0.1,0.1
			c-0.8,0.8-1.9,1.2-2.6,1.2c-0.8,0.1-1.2-0.1-1.2-0.2c0-0.1,2,0.1,3.4-1.4h0.1l0.3-0.3l0.1,0.5c0.1,0.4,0.5,0.7,0.9,0.9
			c0.4,0.1,0.8,0.1,1.1,0C492.4,101.9,492.8,101.7,492.9,101.8"/>
		<path className="st6" d="M497,115.1c-0.1,0.1-0.5-0.8-1.7-1.8c-1.2-1-3.1-1.8-5.5-1.8c-2.3,0-4.3,0.9-5.4,1.9c-1.2,1-1.6,1.9-1.7,1.9
			c0,0,0.1-0.2,0.3-0.6c0.2-0.4,0.6-0.9,1.2-1.5c1.1-1.1,3.2-2.1,5.6-2.2c2.5-0.1,4.5,0.9,5.7,2c0.6,0.5,1,1.1,1.2,1.4
			C496.9,114.8,497,115.1,497,115.1"/>
		<path className="st6" d="M489.9,106.1c0-0.1,0.2-0.3,0.4-0.6v0.2c-0.2-0.2-0.3-0.4-0.5-0.6c-0.4-0.8-0.3-1.5-0.2-1.5s0.3,0.6,0.6,1.3
			c0.1,0.2,0.2,0.4,0.4,0.6l0.1,0.1l-0.1,0.1C490.3,106.2,489.9,106.2,489.9,106.1"/>
		<path className="st6" d="M492.6,104.4c-0.1,0.1-0.4-0.1-0.6,0c-0.3,0-0.5,0.2-0.6,0.2s-0.1-0.6,0.5-0.7
			C492.5,103.8,492.7,104.3,492.6,104.4"/>
		<path className="st6" d="M487.9,104.8c-0.1,0.1-0.3,0-0.6,0c-0.3,0-0.5,0.1-0.6,0s0.2-0.4,0.6-0.4C487.8,104.4,488,104.8,487.9,104.8"
			/>
		<path className="st6" d="M486.8,112c0,0-0.3,0.2-0.7,0.4c-0.2,0.1-0.5,0.3-0.9,0.4c-0.4,0.1-0.9,0-1.3-0.3c-0.4-0.3-0.8-0.7-0.9-1.3
			c-0.1-0.3,0-0.6,0.1-1c0.1-0.3,0.2-0.5,0-0.7c-0.4-0.4-0.7-1.3-0.3-2s1-1.1,1.1-1.7c0.1-0.6-0.1-1.3-0.1-2s0.2-1.4,0.4-2
			c0.5-1.2,1.4-2.1,2.3-2.4c1.9-0.7,3,0.1,2.9,0.1c0,0.1-1.2-0.6-2.8,0.2c-0.8,0.4-1.6,1.1-2.1,2.3c-0.2,0.6-0.3,1.2-0.4,1.8
			c0,0.6,0.2,1.3,0.1,2.1c-0.2,0.9-0.9,1.3-1.2,1.8c-0.3,0.6-0.1,1.1,0.3,1.6c0.2,0.3,0.1,0.8,0,1c-0.1,0.3-0.1,0.5-0.1,0.7
			c0.1,0.5,0.4,0.9,0.8,1.1c0.7,0.6,1.5,0.2,1.9,0C486.5,112,486.7,111.9,486.8,112"/>
		<path className="st6" d="M494.1,112.5c0,0,0.3,0,0.8,0.1c0.5,0.1,1.2-0.3,1.4-1.1c0.1-0.4,0.1-0.8-0.1-1.4c-0.1-0.3,0-0.7,0.2-0.9
			c0.1-0.3,0.3-0.5,0.3-0.8c0.1-0.5,0.1-1.1-0.3-1.7c-0.3-0.5-0.8-1-1.2-1.6c-0.7-1.3-0.7-2.6-1.2-3.6c-0.4-1.1-1.4-1.6-2.3-1.8
			c-1.7-0.3-2.8-0.1-2.8-0.2c0,0,1.1-0.4,2.9-0.1c0.9,0.2,2.1,0.7,2.6,2c0.5,1.2,0.5,2.5,1.2,3.6c0.3,0.6,0.8,1,1.2,1.6
			c0.4,0.6,0.4,1.4,0.3,2c-0.2,0.7-0.7,1.1-0.5,1.5c0.1,0.5,0.2,1.1,0,1.5c-0.2,0.5-0.4,0.8-0.8,1.1c-0.4,0.2-0.7,0.2-1,0.2
			C494.4,112.6,494.1,112.5,494.1,112.5"/>
		<path className="st6" d="M488.3,111.7c-0.1,0-0.3-0.5-0.3-1.1c-0.1-0.6,0-1.1,0.1-1.1s0.3,0.5,0.3,1.1
			C488.5,111.2,488.5,111.7,488.3,111.7"/>
		<path className="st6" d="M492.1,109.4c0.1,0,0.2,0.5,0.1,1.1c-0.1,0.6-0.3,1-0.4,1c-0.1,0-0.2-0.5-0.1-1.1
			C491.8,109.8,491.9,109.4,492.1,109.4"/>
	</g>
	<rect x="198.2" y="87.4" className="st5" width="75.5" height="108.5"/>
	<g>
		<path className="st6" d="M244.6,120.6c0,0.2-2.9,0.4-6.5,0.4c-3.6,0-6.5-0.2-6.5-0.4s2.9-0.4,6.5-0.4
			C241.7,120.2,244.6,120.4,244.6,120.6"/>
		<path className="st6" d="M223.9,123.4c0,0.2-4.1,0.4-9.1,0.4c-5.1,0-9.1-0.2-9.1-0.4c0-0.2,4.1-0.4,9.1-0.4
			C219.8,123,223.9,123.2,223.9,123.4"/>
		<path className="st6" d="M223.9,128.2c0,0.2-4.1,0.4-9.1,0.4c-5.1,0-9.1-0.2-9.1-0.4c0-0.2,4.1-0.4,9.1-0.4
			C219.8,127.8,223.9,128,223.9,128.2"/>
		<path className="st6" d="M223.9,133c0,0.2-4.1,0.4-9.1,0.4c-5.1,0-9.1-0.2-9.1-0.4c0-0.2,4.1-0.4,9.1-0.4
			C219.8,132.6,223.9,132.8,223.9,133"/>
		<path className="st6" d="M215.8,137.8c0,0.2-2.3,0.4-5.1,0.4c-2.8,0-5.1-0.2-5.1-0.4c0-0.2,2.3-0.4,5.1-0.4
			C213.5,137.4,215.8,137.6,215.8,137.8"/>
		<path className="st6" d="M260.9,128.4c0,0.2-6.6,0.4-14.7,0.4c-8.1,0-14.7-0.2-14.7-0.4c0-0.2,6.6-0.4,14.7-0.4
			C254.4,128.1,260.9,128.2,260.9,128.4"/>
		<path className="st6" d="M261.4,133.1c0,0.2-6.6,0.4-14.7,0.4s-14.7-0.2-14.7-0.4c0-0.2,6.6-0.4,14.7-0.4
			C254.8,132.7,261.4,132.9,261.4,133.1"/>
		<path className="st6" d="M244.6,143.8c0,0.2-2.9,0.4-6.5,0.4c-3.6,0-6.5-0.2-6.5-0.4c0-0.2,2.9-0.4,6.5-0.4
			C241.7,143.4,244.6,143.6,244.6,143.8"/>
		<path className="st6" d="M260.9,151.5c0,0.2-6.6,0.4-14.7,0.4c-8.1,0-14.7-0.2-14.7-0.4c0-0.2,6.6-0.4,14.7-0.4
			C254.4,151.2,260.9,151.3,260.9,151.5"/>
		<path className="st6" d="M261.4,156.2c0,0.2-6.6,0.4-14.7,0.4s-14.7-0.2-14.7-0.4c0-0.2,6.6-0.4,14.7-0.4
			C254.8,155.8,261.4,156,261.4,156.2"/>
		<path className="st6" d="M244.6,167.8c0,0.2-2.9,0.4-6.5,0.4c-3.6,0-6.5-0.2-6.5-0.4c0-0.2,2.9-0.4,6.5-0.4
			C241.7,167.5,244.6,167.6,244.6,167.8"/>
		<path className="st6" d="M260.9,175.6c0,0.2-6.6,0.4-14.7,0.4c-8.1,0-14.7-0.2-14.7-0.4c0-0.2,6.6-0.4,14.7-0.4
			C254.4,175.3,260.9,175.4,260.9,175.6"/>
		<path className="st6" d="M261.4,180.3c0,0.2-6.6,0.4-14.7,0.4s-14.7-0.2-14.7-0.4c0-0.2,6.6-0.4,14.7-0.4
			C254.8,180,261.4,180.1,261.4,180.3"/>
		<path className="st6" d="M265.1,108.4c0,0.2-7,0.4-15.6,0.4c-8.6,0-15.6-0.2-15.6-0.4c0-0.2,7-0.4,15.6-0.4
			C258.1,108.1,265.1,108.3,265.1,108.4"/>
		<path className="st6" d="M249.9,113c0,0.2-3.5,0.4-7.8,0.4c-4.3,0-7.8-0.2-7.8-0.4c0-0.2,3.4-0.4,7.8-0.4
			C246.3,112.6,249.9,112.8,249.9,113"/>
		<path className="st6" d="M225.1,115c0,0,0-0.5-0.1-1.5c0-1.1,0-2.5-0.1-4c0-3.6-0.1-8.3-0.2-13.9l0.3,0.3c-5.7,0-12.4,0-19.4,0
			c-0.1,0.1,0.7-0.7,0.4-0.3l0,0l0,0l0,0l0,0v0.1v0.2v0.3v0.7v1.3c0,0.9,0,1.8,0,2.6c0,1.7,0,3.4,0,5c0,3.2,0,6.3,0,9.1l-0.3-0.3
			c5.6,0.1,10.4,0.1,13.9,0.2c1.6,0,2.8,0.1,4,0.1C224.6,114.9,225.1,115,225.1,115s-0.4,0-1.4,0.1c-1.1,0-2.4,0-3.9,0.1
			c-3.6,0-8.4,0.1-14.1,0.2h-0.3v-0.3c0-2.8,0-5.9,0-9.1c0-1.7,0-3.3,0-5c0-0.9,0-1.8,0-2.6v-1.3v-0.7v-0.3V96v-0.1l0,0l0,0l0,0l0,0
			c-0.3,0.3,0.4-0.4,0.4-0.4c7.1,0,13.7,0,19.4,0h0.3v0.3c-0.1,5.7-0.1,10.5-0.2,14.1c0,1.6-0.1,2.8-0.1,3.9
			C225.2,114.5,225.2,115,225.1,115"/>
		<path className="st6" d="M213.7,99.9c0,0,0.4-0.3,1.2-0.5c0.8-0.1,2.1,0,3.2,0.9c1.2,0.9,2,2.6,2.1,4.5c0,1-0.1,2-0.6,2.9
			c-0.5,1-1.4,1.8-2.6,2.1c-2.3,0.7-4.5-0.6-5.5-2.3c-0.5-0.8-0.7-1.8-0.7-2.6c0-0.9,0.1-1.7,0.3-2.4c0.4-1.4,1.4-2.3,2.1-2.6
			s1.2-0.4,1.2-0.4s-0.4,0.1-1.1,0.5c-0.7,0.4-1.5,1.2-1.9,2.6c-0.3,1.3-0.6,3.1,0.4,4.6c0.9,1.6,2.9,2.6,5,2.1
			c2.2-0.5,2.8-2.7,2.8-4.5c0-1.9-0.7-3.4-1.8-4.3c-1.1-0.9-2.3-1-3-1C214,99.7,213.7,100,213.7,99.9"/>
		<path className="st6" d="M219.7,106c0-0.1,0.7-0.3,0.7-1c-0.1-0.7-0.9-0.8-0.8-0.9c0-0.1,0.2-0.2,0.5-0.1c0.3,0.1,0.8,0.4,0.8,0.9
			c0,0.6-0.3,1-0.6,1.1C219.9,106.2,219.7,106.1,219.7,106"/>
		<path className="st6" d="M210.9,104.9c0,0.1-0.6,0.5-0.4,1.1c0.2,0.6,1,0.6,1,0.7c0,0.1-0.1,0.2-0.5,0.2c-0.3,0-0.8-0.2-1-0.7
			c-0.2-0.5,0.1-1,0.4-1.2S210.9,104.9,210.9,104.9"/>
		<path className="st6" d="M217.6,106.3c0.1,0-0.3,1.2-1.8,1.5c-1.5,0.2-2.2-0.9-2.1-1c0.1-0.1,0.9,0.6,2,0.5
			C216.9,107.1,217.5,106.2,217.6,106.3"/>
		<path className="st6" d="M218.5,101.7c0,0-0.3,0.3-1,0.6c-0.4,0.1-0.8,0.2-1.4,0.1c-0.5-0.1-1.1-0.5-1.2-1.2l0.4,0.1l-0.1,0.1
			c-0.8,0.8-1.9,1.2-2.6,1.2c-0.8,0.1-1.2-0.1-1.2-0.2c0-0.1,2,0.1,3.4-1.4h0.1l0.3-0.3l0.1,0.5c0.1,0.4,0.5,0.7,0.9,0.9
			c0.4,0.1,0.8,0.1,1.1,0C218.1,101.8,218.5,101.6,218.5,101.7"/>
		<path className="st6" d="M222.6,115c-0.1,0.1-0.5-0.8-1.7-1.8c-1.2-1-3.1-1.8-5.5-1.8c-2.3,0-4.3,0.9-5.4,1.9c-1.2,1-1.6,1.9-1.7,1.9
			c0,0,0.1-0.2,0.3-0.6c0.2-0.4,0.6-0.9,1.2-1.5c1.1-1.1,3.2-2.1,5.6-2.2c2.5-0.1,4.5,0.9,5.7,2c0.6,0.5,1,1.1,1.2,1.4
			C222.6,114.7,222.7,115,222.6,115"/>
		<path className="st6" d="M215.6,106c0-0.1,0.2-0.3,0.4-0.6v0.3c-0.2-0.2-0.3-0.4-0.5-0.6c-0.4-0.8-0.3-1.5-0.2-1.5
			c0.1,0,0.3,0.6,0.6,1.3c0.1,0.2,0.2,0.4,0.4,0.6l0.1,0.1l-0.1,0.1C215.9,106.1,215.6,106.1,215.6,106"/>
		<path className="st6" d="M218.2,104.3c-0.1,0.1-0.4-0.1-0.6,0c-0.3,0-0.5,0.2-0.6,0.2c-0.1,0-0.1-0.6,0.5-0.7
			C218.1,103.7,218.4,104.2,218.2,104.3"/>
		<path className="st6" d="M213.7,104.7c-0.1,0.1-0.3,0-0.6,0c-0.3,0-0.5,0.1-0.6,0c-0.1-0.1,0.2-0.4,0.6-0.4S213.8,104.6,213.7,104.7"
			/>
		<path className="st6" d="M214,111.6c-0.1,0-0.3-0.5-0.3-1.1c-0.1-0.6,0-1.1,0.1-1.1s0.3,0.5,0.3,1.1
			C214.2,111.1,214.1,111.6,214,111.6"/>
		<path className="st6" d="M217.7,109.3c0.1,0,0.2,0.5,0.1,1.1c-0.1,0.6-0.3,1-0.4,1c-0.1,0-0.2-0.5-0.1-1.1
			C217.4,109.7,217.6,109.2,217.7,109.3"/>
		<path className="st6" d="M210.5,112.9c-0.1,0,0.2-1.4,0.3-3c0.1-1.7-0.1-3,0.1-3c0.1,0,0.5,1.4,0.4,3
			C211.2,111.6,210.6,113,210.5,112.9"/>
		<path className="st6" d="M220.7,112.5c-0.1,0-0.4-1.5-0.7-3.3c-0.3-1.9-0.4-3.3-0.2-3.3c0.1,0,0.4,1.5,0.7,3.3
			C220.8,111,220.9,112.5,220.7,112.5"/>
	</g>
	<polygon className="st8" points="601.4,385.5 598.6,504.2 593.4,504.2 593.7,385.8 	"/>
	<g>
		<path className="st9" d="M423.4,202.2l6.8,3.2l6.2-9.7l-3.6-7.6c-0.4-0.7-0.7-1.5-1.1-2.4c-0.5-1.1-0.7-2.2-0.8-3.3
			c-0.1-1.4-0.2-3.2,0.1-4.2c0.3-1.3-1-2.3-1.9-1.6c-0.9,0.7-1.9,4.2-1.3,8.3c0.7,4.1-4.1-0.3-6-1.9c-1.8-1.6-7.6-6.2-8.4-6
			c-1.4,0.3-1.3,1.8,0.5,3.3c1.9,1.6,7,6.5,6.1,7.5l0,0c-2.2,0.2-3.9,1.9-4.4,3.9c-0.5,2.1-0.8,4.9,0.3,5.8
			C418.1,199.4,423.4,202.2,423.4,202.2"/>
		<path className="st9" d="M555.9,115.3l0.2,52l-22.4,1.1l-0.7-12.7c0,0-7.9,1.6-10-5.8c-1.3-4.7-1-41.1-1-41.1L555.9,115.3z"/>
		<path className="st6" d="M517.1,114c1.5,3.1,8.6,8.8,8.6,8.8l3.2,8.6c2.8-2.2,6.6-2.1,7.3,2.8c0.5,3.5-3.9,4.3-3.9,4.3
			c2.6,4.4,4.3,7.9,8.1,12.2c4,4.5,6.4,5,10.8,5.1h4.9c0,0,10-8.3,7.9-30.2c-2-21.9-21.7-15.5-26.4-21
			C530,95.7,512.1,103.6,517.1,114"/>
		<path className="st10" d="M563,144c0,0-0.2,0-0.6,0s-1,0-1.8-0.2c-1.5-0.3-3.6-1.2-5.7-3c-2.1-1.9-3.9-4.6-5.8-7.8
			c-1.9-3.1-3.9-6.8-7.6-9.2c-1.8-1.2-3.7-2-5.7-2.5s-3.8-0.8-5.7-1.2c-3.6-0.7-6.8-1.7-9-3.3c-2.2-1.7-3.3-3.7-3.6-5.3
			c-0.4-1.5-0.2-2.4-0.2-2.4s0,0.2-0.1,0.6c0,0.4,0,1,0.2,1.8c0.3,1.5,1.4,3.6,3.6,5.4s5.5,2.7,9.1,3.4c3.5,0.7,7.8,1.2,11.3,3.5
			c3.5,2.5,5.6,6,7.5,9.1c1.9,3.1,3.7,6,5.9,7.8c2.1,1.9,4.3,2.7,5.8,3C562.1,144.1,563,144,563,144"/>
		<path className="st9" d="M543.1,370.5L534,509.3l-21.1-2.4c0,0-0.5-135.4,0.5-135.3C514.4,371.8,543.1,370.5,543.1,370.5"/>
	</g>
	<polygon className="st9" points="587.2,369.6 611,507.2 592.2,510.1 559.5,376.2 	"/>
	<polygon className="st6" points="580.3,283.2 619.5,500.4 582,508.4 546.7,322.1 541,506.4 506.3,506.4 511.8,277.5 	"/>
	<path className="st6" d="M618.7,499.9l-36.2,7.8l-36.2-191.2l-5.9,189.2h-33.6l5.5-227.6l67.4,5.6L618.7,499.9z M581.5,509.2l38.7-8.3
		l-0.1-0.6l-39.2-217.7h-0.5l-69.2-5.7v0.7l-5.6,229.6h36v-0.6l5.4-178.6L581.5,509.2z"/>
	<g>
		<path className="st10" d="M536.8,321.9c0,0,0.5,0.1,1.3,0.2c1,0.1,2.2,0.2,3.4,0.3c2.9,0.2,7,0.4,11.5,0.9c4.4,0.5,8.4,1.1,11.4,1.4
			c1.4,0.2,2.5,0.3,3.4,0.4c0.8,0.1,1.3,0.1,1.3,0.1s-0.4-0.2-1.3-0.3c-0.8-0.2-2-0.4-3.4-0.6c-2.9-0.5-7-1.2-11.4-1.6
			c-4.5-0.4-8.5-0.6-11.5-0.7c-1.5,0-2.6-0.1-3.5-0.1C537.3,321.9,536.8,321.9,536.8,321.9"/>
		<path className="st10" d="M511.1,307.7c0,0,0.3,0.1,0.9,0.2c0.6,0.1,1.4,0.2,2.5,0.1c2.1-0.1,4.9-0.8,7.6-2.6c2.6-1.9,4.2-4.4,4.9-6.3
			c0.4-1,0.6-1.8,0.7-2.4c0.1-0.6,0.1-0.9,0.1-0.9c-0.1,0-0.3,1.3-1.2,3c-0.8,1.8-2.4,4.2-4.8,6c-2.5,1.8-5.2,2.6-7.2,2.7
			C512.4,307.8,511.1,307.5,511.1,307.7"/>
		<path className="st11" d="M583.6,295.5h-73.3l2.8-59.3c0.5-11.7,0.4-13,0.7-23.7c0,0-11,13.2-19.5,22.5c-5.2,5.6-13.4,7.2-20.4,3.9
			l-45-31.4l8.4-21.6l40.9,25c1.9-1.2,17.9-23.9,28.8-35c7.1-7.1,16.6-11.2,26.6-11.5c7.6-0.2,16.7,0.1,24.8,1
			c12.4,1.3,22.1,11.3,23.2,23.7c0.8,9.5,0.2,20.6,0.2,39.3L583.6,295.5z"/>
		<path className="st11" d="M571.8,170.9c7,3,35.8,40,37.9,64.1c1.6,18-33.4,16-33.4,16s-2.4-73.5-1.4-72.4"/>
		<path className="st6" d="M578.9,177.2c0,0,0,0.3,0,0.8c0,0.6,0.1,1.3,0.2,2.2c0.2,1.9,0.4,4.7,0.5,8c0.4,6.9,0.7,16.3,1.1,26.8
			c0.3,10.4,0.6,19.9,1,26.8c0.2,3.4,0.4,6.2,0.5,8.1c0.1,0.9,0.1,1.7,0.2,2.2c0,0.5,0.1,0.8,0.1,0.8s0-0.3,0-0.8
			c0-0.6-0.1-1.3-0.1-2.2c-0.1-2-0.2-4.7-0.4-8.1c-0.3-6.9-0.6-16.3-0.9-26.8c-0.3-10.4-0.7-19.9-1.1-26.8c-0.2-3.4-0.4-6.2-0.6-8
			c-0.1-0.9-0.2-1.7-0.2-2.2C578.9,177.5,578.9,177.2,578.9,177.2"/>
		<path className="st6" d="M581.7,224.4c0,0,0.4,0.6,1,1.4c0.7,0.8,1.6,2,2.6,3.1c1.1,1.2,2.1,2.3,2.8,2.9c0.8,0.7,1.3,1.2,1.3,1.1
			c0,0-0.4-0.5-1.2-1.3c-0.7-0.8-1.7-1.8-2.7-2.9c-1.1-1.2-2-2.3-2.6-3C582.2,224.8,581.7,224.3,581.7,224.4"/>
		<path className="st6" d="M479.9,218.3c0,0,0-0.4-0.2-1.1c-0.1-0.7-0.3-1.6-0.6-2.6c-0.2-1-0.5-1.9-0.6-2.6c-0.2-0.7-0.3-1-0.3-1
			s0,0.4,0.2,1.1c0.1,0.7,0.3,1.6,0.6,2.6c0.2,1,0.5,1.9,0.6,2.6C479.8,217.9,479.9,218.3,479.9,218.3"/>
		<path className="st6" d="M475.8,218.9c0.1,0,0.6-1.8,1.1-4c0.5-2.3,0.9-4.1,0.8-4.1c-0.1,0-0.6,1.8-1.1,4
			C476.1,217,475.8,218.9,475.8,218.9"/>
		<path className="st6" d="M511.9,214.5c0,0,0.2-0.1,0.4-0.4c0.3-0.3,0.7-0.7,1.2-1.2c1-1,2.5-2.5,4.2-4.3c1.8-1.9,3.7-4.1,5.8-6.9
			c2-2.7,3.9-6,5.2-9.6c1.4-3.6,2-7.5,1.8-10.8s-0.8-6.4-2-8.7c-1.1-2.4-2.6-3.8-3.8-4.6c-0.6-0.4-1.1-0.7-1.4-0.9
			c-0.3-0.2-0.5-0.3-0.5-0.3s0.7,0.4,1.8,1.3c1.1,0.9,2.6,2.4,3.7,4.6c1.1,2.3,1.8,5.3,1.9,8.6c0.2,3.3-0.4,7.1-1.8,10.7
			c-2.7,7.4-7.5,12.8-10.9,16.5c-1.8,1.9-3.1,3.3-4.2,4.3c-0.5,0.5-0.8,0.9-1.2,1.2C512.1,214.3,511.9,214.5,511.9,214.5"/>
		<path className="st6" d="M506.7,176.8c0,0.2,15.8,0.3,35.4,0.3c19.5,0,35.4-0.1,35.4-0.3c0-0.2-15.8-0.3-35.4-0.3
			C522.6,176.4,506.7,176.6,506.7,176.8"/>
		<path className="st6" d="M498,187c0,0.2,19.7,0.3,44,0.3c24.3,0,44-0.1,44-0.3c0-0.2-19.7-0.3-44-0.3S498,186.9,498,187"/>
		<path className="st6" d="M487.2,197.7c0,0.2,23.7,0.3,52.9,0.3c29.2,0,52.9-0.1,52.9-0.3c0-0.2-23.6-0.3-52.9-0.3
			C510.9,197.3,487.2,197.5,487.2,197.7"/>
		<path className="st6" d="M479.7,209c0,0.2,27.1,0.3,60.5,0.3c33.5,0,60.5-0.1,60.5-0.3s-27.1-0.3-60.5-0.3
			C506.9,208.7,479.7,208.8,479.7,209"/>
		<path className="st6" d="M513.6,222.2c0,0,0.3,0,1,0.1c0.7,0,1.6,0,2.7,0.1c2.5,0,5.8,0.1,10,0.1c8.5,0,20.1,0.1,33,0.1
			c12.9,0,24.4-0.1,33-0.1c4.1,0,7.6-0.1,10-0.1c1.1,0,2.1,0,2.7-0.1c0.6,0,1,0,1-0.1c0,0-0.3,0-1-0.1c-0.7,0-1.6,0-2.7-0.1
			c-2.5,0-5.8-0.1-10-0.1c-8.5,0-20.1-0.1-33-0.1c-12.9,0-24.4,0.1-33,0.1c-4.1,0-7.6,0.1-10,0.1c-1.1,0-2.1,0-2.7,0.1
			C513.9,222.1,513.6,222.1,513.6,222.2"/>
		<path className="st6" d="M449.7,222.8c0,0.2,12.6,0.3,28,0.3s28-0.1,28-0.3c0-0.2-12.6-0.3-28-0.3
			C462.1,222.4,449.7,222.6,449.7,222.8"/>
		<path className="st6" d="M467.5,234.5c0,0.2,6.1,0.3,13.5,0.3s13.5-0.1,13.5-0.3c0-0.2-6.1-0.3-13.5-0.3S467.5,234.3,467.5,234.5"/>
		<path className="st6" d="M432.7,210.1c0,0.2,9.3,0.3,20.7,0.3c11.5,0,20.7-0.1,20.7-0.3c0-0.2-9.2-0.3-20.7-0.3
			S432.7,209.9,432.7,210.1"/>
		<path className="st6" d="M512.8,235.8c0,0.2,21.8,0.3,48.8,0.3c26.9,0,48.8-0.1,48.8-0.3c0-0.2-21.8-0.3-48.8-0.3
			C534.5,235.5,512.8,235.7,512.8,235.8"/>
		<path className="st6" d="M511.9,251.1c0,0.2,15.9,0.3,35.5,0.3c19.6,0,35.5-0.1,35.5-0.3c0-0.2-15.9-0.3-35.5-0.3
			C527.9,250.7,511.9,250.9,511.9,251.1"/>
		<path className="st6" d="M511.9,263.4c0,0.2,15.9,0.3,35.5,0.3c19.6,0,35.5-0.1,35.5-0.3c0-0.2-15.9-0.3-35.5-0.3
			C527.9,263.1,511.9,263.2,511.9,263.4"/>
		<path className="st6" d="M511.9,277.5c0,0.2,15.9,0.3,35.5,0.3c19.6,0,35.5-0.1,35.5-0.3s-15.9-0.3-35.5-0.3
			C527.9,277.1,511.9,277.3,511.9,277.5"/>
		<path className="st6" d="M432.5,201.3c0,0.2,6.5,0.3,14.5,0.3s14.5-0.1,14.5-0.3s-6.5-0.3-14.5-0.3C439,201,432.5,201.1,432.5,201.3"
			/>
	</g>
	<polygon className="st7" points="610.6,503.2 613.8,516.1 591.8,518.5 591.1,505.8 	"/>
	<g>
		<path className="st6" d="M600.7,503.8c-0.2,0,0.1,2.6,0.7,5.9s1.2,5.9,1.4,5.8c0.2,0-0.1-2.6-0.7-5.9
			C601.6,506.5,600.9,503.8,600.7,503.8"/>
		<path className="st6" d="M591.7,517.1c0,0.1,1.3-0.1,3.1-0.4c2.2-0.3,4.7-0.7,7.7-1.1c2.9-0.5,5.7-0.9,7.6-1.3c2-0.4,3.1-0.7,3-0.8
			c0-0.1-1.3,0.1-3.1,0.4c-2.2,0.3-4.7,0.7-7.7,1.1c-2.9,0.5-5.7,0.9-7.6,1.3C592.9,516.8,591.7,517,591.7,517.1"/>
		<path className="st7" d="M510.4,508.9l0.1-2.6l23.9,0.6l-0.2,8.3l-1.5,0.1c-6.6,0.2-33.5,0.7-37.8-0.8
			C490.1,513,510.4,508.9,510.4,508.9"/>
	</g>
	<path className="st4" d="M534.4,508.4L534.4,508.4L534.4,508.4z"/>
	<g>
		<path className="st12" d="M533.6,508.3c0.3,0,0.5,0,0.8,0l0,0l-0.1,6.6v-0.2l-8.5-0.1c0.4-1.9,1.6-3.6,3.1-4.7
			C530.1,508.9,531.8,508.3,533.6,508.3"/>
		<path className="st4" d="M500.5,511.3c-0.6,0.2-1.1,0.3-1.7,0.5C499.7,511.5,500.4,511.3,500.5,511.3 M494.2,513.8
			c-0.2,0.3,0,0.6,0.7,0.8c0.1,0,0.1,0,0.2,0.1c-0.6-0.1-0.9-0.2-1-0.3C494.1,514.2,494.1,514,494.2,513.8 M534.3,515.3
			c-3.7,0.2-8.9,0.4-14.4,0.4c-2.8,0-5.7,0-8.4-0.1c1.5,0,3,0,4.6,0c7.1,0,13.8-0.1,16.8-0.2L534.3,515.3z"/>
		<path className="st12" d="M500.5,511.3c1.4,0.1,2.1,3.1,2.1,3.1l23.2,0.3c0,0.1,0,0.2-0.1,0.3h8.6l0,0v0.4l-1.5,0.1
			c-2.8,0.1-9.7,0.2-16.8,0.2c-1.6,0-3,0-4.6,0c-7.4-0.2-13.8-0.5-16.2-1c-0.1,0-0.1,0-0.2-0.1c-0.7-0.2-0.9-0.5-0.7-0.8
			c0.6-0.7,2.9-1.6,4.5-2.1C499.3,511.6,499.9,511.5,500.5,511.3L500.5,511.3"/>
		<path className="st13" d="M525.6,514.7l8.5,0.1v0.2l0,0h-8.6C525.6,514.9,525.6,514.8,525.6,514.7"/>
		<path className="st6" d="M534.5,514.8c0,0-0.1,0-0.4,0c-0.4,0-0.8,0-1.2,0c-1.2,0-2.6,0.1-4.3,0.1c-3.6,0.1-8.7,0.1-14.3-0.1
			c-5.6-0.1-10.6-0.3-14.2-0.6c-1.7-0.1-3.1-0.2-4.3-0.3c-0.4,0-0.8-0.1-1.2-0.1c-0.3,0-0.4,0-0.4-0.1c0,0,0.1,0,0.4,0
			c0.4,0,0.8,0,1.2,0c1.2,0.1,2.6,0.1,4.3,0.2c3.6,0.2,8.7,0.3,14.2,0.5c5.6,0.1,10.6,0.1,14.2,0.1h4.3c0.4,0,0.8,0,1.2,0
			C534.5,514.8,534.5,514.8,534.5,514.8"/>
		<path className="st6" d="M502.5,514.7c-0.1,0-0.1-1-0.8-2.1c-0.6-1.1-1.5-1.6-1.5-1.7c0-0.1,1,0.4,1.7,1.6
			C502.7,513.6,502.6,514.8,502.5,514.7"/>
		<path className="st6" d="M509.6,511.4c-0.1,0-0.4-0.4-0.7-0.9c-0.3-0.6-0.6-1.1-0.5-1.1s0.4,0.4,0.7,0.9
			C509.4,510.8,509.6,511.3,509.6,511.4"/>
		<path className="st6" d="M511.6,510.4c-0.1,0.1-0.4-0.2-0.8-0.6c-0.4-0.4-0.7-0.7-0.6-0.8c0.1-0.1,0.4,0.2,0.8,0.6
			C511.3,510,511.6,510.3,511.6,510.4"/>
		<path className="st6" d="M512.8,508.1c0,0.1-0.6,0.1-1.3,0.1c-0.7,0-1.3-0.1-1.3-0.2c0-0.1,0.6-0.1,1.3-0.1
			C512.3,508,512.8,508,512.8,508.1"/>
		<path className="st6" d="M513.3,506.6c0,0.1-0.6,0.3-1.4,0.4c-0.8,0-1.5-0.2-1.5-0.2c0-0.1,0.7,0,1.4-0.1
			C512.7,506.7,513.3,506.5,513.3,506.6"/>
		<path className="st6" d="M508.8,509.2c0,0-0.6,0.1-1.6,0c-0.5-0.1-1-0.2-1.7-0.4c-0.3-0.1-0.6-0.2-0.9-0.4c-0.2-0.1-0.3-0.3-0.4-0.5
			c-0.1-0.2,0.1-0.5,0.2-0.6c1.5-0.7,2.9,0.1,3.4,0.9c0.3,0.4,0.4,0.8,0.5,1c0.1,0.3,0,0.4,0,0.4c-0.1,0-0.1-0.6-0.7-1.3
			c-0.3-0.4-0.7-0.7-1.3-0.9c-0.5-0.2-1.3-0.2-1.9,0.1c-0.3,0.2-0.2,0.5,0.1,0.6c0.3,0.2,0.6,0.3,0.9,0.4c0.6,0.2,1.1,0.4,1.6,0.5
			C508.3,509.2,508.8,509.2,508.8,509.2"/>
		<path className="st6" d="M508.5,509.3c0,0-0.2-0.4-0.2-1.1c0-0.3,0.2-0.7,0.5-1.1c0.3-0.3,0.6-0.8,1.3-0.8c0.4,0.1,0.5,0.5,0.5,0.7
			c0,0.3-0.2,0.5-0.3,0.7c-0.2,0.4-0.5,0.7-0.8,0.9C508.9,509.1,508.6,509.2,508.5,509.3c0.1-0.1,0.4-0.4,0.9-0.9
			c0.2-0.2,0.5-0.5,0.7-0.9c0.2-0.3,0.4-0.9,0-1c-0.4,0-0.8,0.3-1,0.6c-0.3,0.3-0.4,0.7-0.5,1C508.4,508.9,508.5,509.3,508.5,509.3"
			/>
		<path className="st6" d="M534.3,508.2c0,0.1-0.7-0.1-1.8,0c-1.1,0.1-2.6,0.5-3.8,1.5c-1.3,1-2.1,2.4-2.5,3.3c-0.4,1-0.4,1.7-0.5,1.7
			c0,0,0-0.2,0-0.5c0-0.3,0.1-0.8,0.3-1.3c0.3-1.1,1.1-2.5,2.5-3.5c1.4-1.1,2.9-1.5,4-1.5c0.6,0,1,0,1.3,0.1
			C534.1,508.2,534.3,508.2,534.3,508.2"/>
		<path className="st6" d="M522.7,512.5c0,0.1-1.6,0.3-3.4,0.3c-2,0-3.4-0.3-3.4-0.4c0-0.1,1.6,0,3.4,0.1
			C521.1,512.5,522.7,512.4,522.7,512.5"/>
		<path className="st6" d="M527.3,512.6c0.1,0.1-0.1,0.3-0.3,0.7c-0.2,0.4-0.3,0.7-0.3,0.7c-0.1,0-0.1-0.4,0.1-0.8
			C527,512.8,527.3,512.6,527.3,512.6"/>
		<path className="st6" d="M529.2,510.5c0.1,0.1-0.1,0.3-0.4,0.6c-0.3,0.2-0.5,0.4-0.6,0.3c-0.1-0.1,0.1-0.3,0.4-0.6
			C528.9,510.6,529.1,510.5,529.2,510.5"/>
		<path className="st6" d="M531.6,509.6c0,0.1-0.3,0.1-0.7,0.2c-0.4,0.1-0.6,0.3-0.7,0.2c-0.1,0,0.1-0.4,0.6-0.5
			C531.3,509.3,531.7,509.5,531.6,509.6"/>
		<path className="st6" d="M533.5,509.1c0,0.1-0.1,0.2-0.3,0.3s-0.4,0.1-0.4,0s0.1-0.2,0.3-0.3C533.3,509,533.5,509,533.5,509.1"/>
	</g>
</g>
</svg>
