<?xml version="1.0" encoding="utf-8"?>
<!-- Generator: Adobe Illustrator 28.1.0, SVG Export Plug-In . SVG Version: 6.00 Build 0)  -->
<svg version="1.1" id="Layer_1" xmlns="http://www.w3.org/2000/svg" xmlns:xlink="http://www.w3.org/1999/xlink" x="0px" y="0px"
	 viewBox="0 0 70 70" style="enable-background:new 0 0 70 70;" xml:space="preserve">
<style type="text/css">
	.st0{fill:#00FF00;}
	.st1{fill:#FF0000;}
</style>
<path className="st0" d="M52,35c-3,0-6,0.8-8.6,2.4l6.4,6.4c1.4-0.4,2.9-0.3,4.3,0l6.5-6.5v0C58,35.8,55,35,52,35L52,35z M37.4,43.4
	c-3.1,5.3-3.2,12,0,17.3l6.5-6.5c-0.4-1.4-0.4-2.9,0-4.3L37.4,43.4L37.4,43.4z M66.7,43.4l-6.5,6.5c0.4,1.4,0.4,2.9,0,4.3l6.4,6.4
	C69.8,55.4,69.9,48.7,66.7,43.4z M49.9,60.2l-6.5,6.5c5.3,3.1,12,3.1,17.3,0l-6.4-6.4v0C52.8,60.6,51.3,60.6,49.9,60.2z"/>
<polygon className="st1" points="7.3,0.9 0.9,7.3 28.6,32.9 56.3,56.3 32.9,28.6 "/>
</svg>
