<?xml version="1.0" encoding="utf-8"?>
<!-- Generator: Adobe Illustrator 28.2.0, SVG Export Plug-In . SVG Version: 6.00 Build 0)  -->
<svg version="1.1" id="Layer_1" xmlns="http://www.w3.org/2000/svg" xmlns:xlink="http://www.w3.org/1999/xlink" x="0px" y="0px"
	 viewBox="0 0 71.2 39.3" style="enable-background:new 0 0 71.2 39.3;" xml:space="preserve">
<style type="text/css">
	.st0{fill:#F3A11E;}
	.st1{fill:#ED1C24;}
</style>
<g>
	<path class="st0" d="M15,14.1c-0.8,0.2-1.8,0.3-2.6-0.3c-0.6-0.4-1-1.1-1-2.4c0-3.4,3.1-6.3,4.9-6.9c0.9-0.3,1.6-0.3,2.1,0.1
		c0.4,0.3,0.7,0.7,0.8,1.1c0.1,0.4,0.1,0.9-0.1,1.4c-0.2,0.4-0.4,1-0.6,1.5c0,0.1-0.2,0.2-0.3,0.1c-0.4-0.3-0.6-0.7-0.4-1.5
		c0.2-0.8,0.8-1.7,0.4-2c-0.5-0.5-3.1,0.8-4.5,3.1c-1.5,2.2-1.4,4.6-0.8,5.2c0.9,0.8,2.7-0.4,3.7-2.3c-0.5,0.1-1,0.2-1.4,0.2
		c-0.8,0.1-1.3-0.3-1.5-0.8c-0.1-0.2,0-0.3,0.2-0.3c1.2,0,2.4-0.4,3.4-0.4c0.8,0,1.2,0.3,1.4,0.8c0.1,0.2,0,0.3-0.2,0.3
		c-0.3,0-0.7,0-1.1,0C17.7,12.4,15.8,13.9,15,14.1z"/>
	<path class="st0" d="M20.8,13.8c1.3,0.1,2.4-1.2,3.1-2.2c0.1-0.1,0.2-0.1,0.3,0c0.1,0.1,0,0.6-0.3,1c-0.7,1-1.9,1.7-3.1,1.7
		c-2,0-2.7-1.9-1.7-3.9s2.6-2.8,3.4-2.4c0.4,0.2,0.7,0.5,0.9,0.8c0.3,0.4,0.2,1.3-0.5,2.1c-0.8,0.9-1.8,1.3-2.9,0.5
		C19.6,12.7,20,13.7,20.8,13.8z M22.1,10.2c0.5-0.7,0.8-1.5,0.6-1.6c-0.3-0.3-1.6,0.7-2.4,2.2c0,0.1-0.1,0.2-0.1,0.3
		C21,11.4,21.7,10.8,22.1,10.2z"/>
	<path class="st0" d="M24.6,7.5c-0.2-0.2-0.1-0.3,0.2-0.3c0.4,0,0.9,0,1.3-0.1c0.5-0.9,0.9-1.6,1.2-1.9c0.1-0.2,0.3-0.2,0.4,0
		c0.2,0.4,0.2,1-0.2,1.8c0.6,0,0.8,0.3,1,0.5c0.1,0.2,0,0.3-0.2,0.3c-0.3,0-0.8,0-1.2,0.1c-0.6,1.1-1.5,2.6-2.1,3.9
		c-0.5,1.1-0.3,2.1,0.3,2.1c0.7,0,1.6-1.1,2.2-2.3c0.1-0.2,0.3-0.2,0.3,0c0.1,0.2,0,0.5-0.2,0.9c-0.2,0.5-1.2,1.8-2.5,1.8
		c-1,0-1.9-1.2-1.1-3c0.3-0.8,1-2.1,1.7-3.3C25.1,7.9,24.7,7.6,24.6,7.5z"/>
	<path class="st0" d="M31.9,13.7c0.8,0.1,1.8-1.1,2.5-2.3c0.1-0.2,0.3-0.2,0.3,0c0.1,0.2,0,0.6-0.2,1c-0.2,0.5-1.4,1.8-2.6,1.7
		c-1.1,0-1.7-0.8-1.3-2.5c0.6-2.7,2.4-5.6,4-7.2c0.2-0.3,0.5-0.3,0.7-0.1c0.5,0.4,0.5,1,0.4,1.7c-0.5,1.9-2.2,3.8-3.6,4.7
		C31.4,12.4,31.2,13.7,31.9,13.7z M35.1,5.8c-0.2-0.1-1.4,1.6-2.4,3.6c-0.1,0.3-0.3,0.5-0.4,0.8C34.4,8.4,35.3,5.9,35.1,5.8z"/>
	<path class="st0" d="M39,10.8c-0.3,1.3-1.3,2.9-2.5,3.3c-0.6,0.2-1.3,0.1-2-0.7c-0.7-0.9-0.5-2.3,0.3-3.5c0.6-1.1,1.6-2,2.5-2
		c0.5,0,0.8,0.1,1.1,0.5c0.4,0.5,0.8,0.6,0.7,1.7c0,0.1,0,0.2,0,0.4c0.1,0,0.2,0,0.3,0c0.1,0,0.1,0.1,0,0.2
		C39.3,10.7,39.2,10.8,39,10.8z M37.7,10.4C37.4,10.2,37,9.6,37,9c-0.4,0.4-0.9,0.9-1.2,1.5c-0.7,1.2-0.9,2.6-0.5,3
		c0.4,0.4,1.4-0.2,2.2-1.6c0.2-0.4,0.4-0.9,0.5-1.3C37.9,10.6,37.8,10.5,37.7,10.4z M38.2,9c-0.1-0.5-0.4-0.4-0.5,0
		c-0.1,0.4,0.1,0.9,0.3,1.1C38.2,9.7,38.3,9.3,38.2,9z"/>
	<path class="st0" d="M41.7,8.7c0.1-0.6,0.2-0.9,0.6-1.2c0.3-0.3,0.7-0.4,0.8-0.2C43.3,7.4,43.2,7.6,43,8c-0.1,0.1-0.1,0.2-0.2,0.3
		C42.7,9.7,43,10.9,43,12c0,0.6-0.1,1.3-0.7,1.6c1-0.4,1.7-1.3,2.1-2.2c0.1-0.2,0.2-0.1,0.3,0c0.1,0.1,0,0.5-0.2,1
		c-0.6,1.1-1.7,1.7-2.8,1.7c-0.9,0-1.8-0.2-2.3-1.2c-0.4-0.7-0.3-1.7,0.2-2.2c0.2-0.2,0.3-0.1,0.3,0.2c0,0.1,0,0.3,0,0.4
		C40.5,10.5,41.2,9.5,41.7,8.7z M40,12.3c0.2,0.9,0.7,1.6,1.2,1.4c0.7-0.2,0.5-2.7,0.4-3.9C41.2,10.5,40.6,11.4,40,12.3z"/>
	<path class="st0" d="M45,7.5c-0.2-0.2-0.1-0.3,0.2-0.3c0.4,0,0.9,0,1.3-0.1c0.5-0.9,0.9-1.6,1.2-1.9C47.8,5,47.9,5,48,5.2
		c0.2,0.4,0.2,1-0.2,1.8c0.6,0,0.8,0.3,1,0.5c0.1,0.2,0,0.3-0.2,0.3c-0.3,0-0.8,0-1.2,0.1c-0.6,1.1-1.5,2.6-2.1,3.9
		c-0.5,1.1-0.3,2.1,0.3,2.1c0.7,0,1.6-1.1,2.2-2.3c0.1-0.2,0.3-0.2,0.3,0c0.1,0.2,0,0.5-0.2,0.9c-0.2,0.5-1.2,1.8-2.5,1.8
		c-1,0-1.9-1.2-1.1-3c0.3-0.8,1-2.1,1.7-3.3C45.4,7.9,45.1,7.6,45,7.5z"/>
	<path class="st0" d="M50.9,11.9c0.4-1.1,1.4-3,2-3.8C53,7.9,53.1,7.9,53.2,8c0.2,0.3,0.4,0.9,0,1.7c-0.3,0.7-1,1.8-1.3,2.5
		c-0.4,0.9-0.3,1.5,0.2,1.5c0.7,0,1.6-1.1,2-2.1c0.1-0.1,0.2-0.1,0.2,0c0.1,0.3,0.1,0.6-0.1,1c-0.5,1-1.5,1.6-2.3,1.6
		C50.7,14.2,50.4,13.2,50.9,11.9z M54.3,7.8c-0.2,0.2-0.6,0.2-0.9-0.2c-0.3-0.4-0.2-0.9,0.1-1.2c0.3-0.3,0.7-0.1,0.9,0.3
		C54.7,7.2,54.6,7.6,54.3,7.8z"/>
	<path class="st0" d="M58.8,7.8c0.5,0.1,1,0.8,0.6,1.7c-0.3,0.7-1.1,1.8-1.5,2.7c-0.4,0.9-0.3,1.6,0.3,1.6c0.6,0,1.4-1.1,2-2.2
		c0.1-0.1,0.2-0.1,0.3,0c0.1,0.2,0.1,0.5-0.1,1c-0.4,0.9-1.4,1.7-2.3,1.7c-1.3,0-1.6-1-1.2-2.3c0.5-1.5,1.9-3.2,1.6-3.3
		c-0.2-0.1-1.1,0.4-2.1,1.5c-0.9,1-1.6,2.5-2.3,4c-0.1,0.1-0.2,0.2-0.3,0.1c-0.3-0.3-0.4-0.8-0.2-1.6c0.3-1,1.5-3.2,2.5-4.6
		c0.1-0.2,0.2-0.2,0.3,0c0.2,0.4,0.2,0.9,0,1.5C57.2,8.6,58.2,7.8,58.8,7.8z"/>
	<path class="st0" d="M10,24.8c0.2,0,0.3,0.2,0.2,0.5c-0.1,0.6-0.4,1.3-1.4,3c-1.1,1.8-2.2,3-3.2,3c-0.7,0-1.1-0.6-1-1.3
		c-0.5,0.6-1.2,1.3-1.9,1.2c-1-0.1-1.1-1.1-0.7-2.2c0.4-1,1.1-2.6,2.2-4c0.1-0.2,0.3-0.2,0.4,0C5,25.4,4.9,26.1,4.3,27
		c-0.6,0.9-1,1.6-1.3,2.4c-0.3,0.8-0.3,1.3,0.1,1.3c0.6,0,1.2-1.1,2.1-2.4c1-1.6,1.5-2.7,2-3.4c0.2-0.2,0.3-0.2,0.4-0.1
		c0.2,0.3,0.3,1,0,1.8c-0.3,0.7-1.1,1.9-1.5,2.7c-0.4,0.9-0.4,1.4,0.1,1.4c0.5,0,1.5-1,2.3-2.5C8.6,25.9,9.7,24.8,10,24.8z"/>
	<path class="st0" d="M13.6,31.2c-1.3,0-1.6-1-1.2-2.3c0.5-1.5,1.9-3.2,1.6-3.3c-0.2-0.1-1.9,0.9-2.8,2.4c-0.6,0.9-1.1,2-1.5,3
		c-0.1,0.1-0.2,0.2-0.3,0.1c-0.3-0.3-0.4-0.7-0.1-1.7c0.5-1.6,3.8-7.1,5.1-8.7c0.1-0.2,0.3-0.2,0.4,0C15,21.2,15,22,14.4,23
		c-0.4,0.6-1.2,1.9-1.9,2.9c0.6-0.6,1.5-1.1,1.9-1.1c0.5,0.1,1,0.8,0.6,1.6c-0.3,0.7-1.1,1.8-1.5,2.6c-0.4,0.9-0.3,1.6,0.3,1.6
		c0.6,0,1.5-1.2,2-2.2c0.1-0.1,0.2-0.1,0.3,0c0.1,0.2,0.1,0.5-0.2,1C15.5,30.4,14.5,31.2,13.6,31.2z"/>
	<path class="st0" d="M21.2,24.9c0.1-0.2,0.3-0.2,0.4-0.1c0.2,0.3,0.4,1,0,1.7c-0.3,0.7-1.1,1.9-1.5,2.7c-0.4,0.9-0.4,1.6,0.1,1.5
		c0.6,0,1.5-1.1,2.1-2.2c0.1-0.1,0.2-0.2,0.3,0c0.1,0.1,0.1,0.5-0.1,1c-0.4,0.9-1.4,1.7-2.3,1.7c-0.8,0-1.3-0.5-1.3-1.3
		c-0.5,0.6-1.2,1.2-2,1.2c-1.5,0-1.8-2-0.5-3.9c1.3-1.8,2.5-2.6,3.3-2.6c0.7,0,1,0.5,1,1.1C20.8,25.5,21,25.2,21.2,24.9z M20,25.6
		c-0.5,0-1.6,1-2.5,2.4c-0.8,1.3-1,2.7-0.4,2.7c0.6,0,1.5-1,2.3-2.4C20.3,26.6,20.4,25.6,20,25.6z"/>
	<path class="st0" d="M22.9,24.5c-0.2-0.2-0.1-0.3,0.2-0.3c0.4,0,0.9,0,1.3-0.1c0.5-0.9,0.9-1.6,1.2-1.9c0.1-0.2,0.3-0.2,0.4,0
		c0.2,0.4,0.2,1-0.2,1.8c0.6,0,0.8,0.3,1,0.5c0.1,0.2,0,0.3-0.2,0.3c-0.3,0-0.8,0-1.2,0.1c-0.6,1.1-1.5,2.6-2.1,3.9
		c-0.5,1.1-0.3,2.1,0.3,2.1c0.7,0,1.6-1.1,2.2-2.3c0.1-0.2,0.3-0.2,0.3,0c0.1,0.2,0,0.5-0.2,0.9c-0.2,0.5-1.2,1.8-2.5,1.8
		c-1,0-1.9-1.2-1.1-3c0.3-0.8,1-2.1,1.7-3.3C23.4,24.9,23,24.6,22.9,24.5z"/>
	<path class="st0" d="M31.8,31.6c-0.9,2.1-2,4.6-3.3,5.1c-0.3,0.1-0.6,0.1-0.9-0.3c-0.3-0.5-0.6-1-0.3-1.9c0.5-1.4,1.8-2.4,3.4-3
		c0.2-0.4,0.3-0.8,0.5-1.1c-0.5,0.5-1.1,0.9-1.7,0.9c-1.1-0.1-1.2-1.2-0.8-2.3c0.3-1,1.1-2.6,2.1-4c0.1-0.2,0.3-0.2,0.4,0
		c0.4,0.5,0.3,1.2-0.3,2.1c-0.6,0.9-0.9,1.6-1.2,2.3c-0.3,0.8-0.3,1.3,0.1,1.3c0.6,0,1.4-1,2.2-2.3c0.7-1.2,1.3-2.6,1.9-3.4
		c0.1-0.2,0.3-0.2,0.4-0.1c0.2,0.3,0.3,1-0.1,1.8c-0.5,0.9-1.4,2.8-2.1,4.3c1.2-0.7,2.1-1.6,2.8-2.4c0.1-0.1,0.2-0.1,0.3,0
		c0,0.1,0,0.5-0.3,0.9C34.2,30.4,33.1,31,31.8,31.6z M27.9,35.8c0.2,0.3,1.5-1.4,2.5-3.7C28.3,33.3,27.6,35.4,27.9,35.8z"/>
	<path class="st0" d="M44.7,31.2c-1,0-1.4-0.6-1.3-1.5c-0.5,0.7-1.3,1.6-2.2,1.5c-1.1-0.1-1.1-1.2-0.8-2.3c0.1-0.4,0.3-0.9,0.6-1.3
		c-0.4,0.2-0.9,0.3-1.4,0.3c-0.4,1.3-1.3,2.9-2.4,3.2c-0.6,0.2-1.4,0.1-2-0.7c-0.7-0.9-0.5-2.3,0.2-3.5c0.6-1.1,1.6-2,2.5-2
		c0.5,0,0.7,0.1,1.1,0.5c0.4,0.5,0.8,0.6,0.7,1.7c0,0.1,0,0.2,0,0.3c0.9,0,1.8-0.8,2.3-1.6c0.2-0.3,0.4-0.6,0.6-0.9
		c0.1-0.2,0.3-0.2,0.4,0c0.3,0.5,0.3,1.2-0.3,2.1c-0.6,0.9-0.9,1.6-1.2,2.3c-0.3,0.8-0.3,1.3,0.1,1.3c0.6,0,1.5-1,2.3-2.4
		c1-1.6,1.4-2.7,1.9-3.3c0.1-0.2,0.3-0.2,0.4-0.1c0.2,0.3,0.4,1,0,1.7c-0.3,0.7-1.1,1.8-1.5,2.7c-0.4,0.9-0.3,1.6,0.2,1.5
		c0.6,0,1.5-1.1,2.1-2.2c0.1-0.1,0.2-0.2,0.3,0c0.1,0.1,0.1,0.5-0.1,1C46.5,30.5,45.6,31.2,44.7,31.2z M37.5,26
		c-0.4,0.3-0.9,0.9-1.2,1.5c-0.7,1.2-0.9,2.6-0.5,3c0.4,0.4,1.4-0.2,2.2-1.6c0.3-0.5,0.4-0.9,0.5-1.3C38,27.3,37.5,26.7,37.5,26z
		 M38.3,26c0,0.4,0.1,0.8,0.4,1.1c0.1-0.5,0.1-0.8,0.1-1.1C38.7,25.5,38.3,25.6,38.3,26z"/>
	<path class="st1" d="M51.5,30.7c0.8,0.1,1.8-1.1,2.5-2.3c0.1-0.2,0.3-0.2,0.3,0c0.1,0.2,0,0.6-0.2,1c-0.2,0.5-1.4,1.8-2.6,1.7
		c-1.1,0-1.7-0.8-1.3-2.5c0.6-2.7,2.4-5.6,4-7.2c0.2-0.3,0.5-0.3,0.7-0.1c0.5,0.4,0.5,1,0.4,1.7c-0.5,1.9-2.2,3.8-3.6,4.7
		C51,29.4,50.8,30.7,51.5,30.7z M54.7,22.8c-0.2-0.1-1.4,1.6-2.4,3.6c-0.1,0.3-0.3,0.5-0.4,0.8C54,25.4,54.9,22.9,54.7,22.8z"/>
	<path class="st1" d="M60.4,31.1c-0.1,0.1-0.2,0.2-0.3,0.2c-0.6-0.3-0.8-0.6-0.8-1.4c0-0.6,0.2-1.6,0.4-2.6
		c-0.3,0.3-0.7,0.5-1.2,0.5c-0.3,1.3-1.3,3-2.5,3.3c-0.6,0.2-1.3,0.2-2-0.7c-0.7-0.9-0.5-2.3,0.2-3.5c0.6-1.1,1.6-2,2.5-2
		c0.5,0,0.7,0.1,1,0.5c0.4,0.5,0.8,0.6,0.8,1.7c0,0,0,0.1,0,0.2c0.9-0.2,1.4-1.2,1.7-2.4c0.1-0.2,0.2-0.2,0.3-0.1
		c0.5,0.4,0.6,1,0.4,1.9c-0.3,1.2-0.6,2.1-0.8,3.7c1.1-1.8,3.2-4.5,4.2-5.6c0.2-0.2,0.3-0.1,0.3,0.1c0,0.3-0.2,0.7-0.6,1.3
		C63.4,27.3,61.9,28.8,60.4,31.1z M56.5,26c-0.4,0.3-0.9,0.9-1.2,1.5c-0.7,1.2-0.9,2.6-0.5,2.9c0.4,0.3,1.4-0.2,2.1-1.6
		c0.3-0.5,0.4-0.9,0.6-1.3C57,27.3,56.5,26.7,56.5,26z M57.8,26c-0.1-0.5-0.4-0.4-0.5,0.1c-0.1,0.4,0.1,0.8,0.4,1.1
		C57.8,26.7,57.8,26.3,57.8,26z"/>
	<path class="st1" d="M65.9,30.8c1.3,0.1,2.4-1.2,3.1-2.2c0.1-0.1,0.2-0.1,0.3,0c0.1,0.1,0,0.6-0.3,1c-0.7,1-1.9,1.7-3.1,1.7
		c-2,0-2.7-1.9-1.7-3.9c1-2,2.6-2.8,3.4-2.4c0.4,0.2,0.7,0.5,0.9,0.8c0.3,0.4,0.2,1.3-0.5,2.1c-0.8,0.9-1.8,1.3-2.9,0.5
		C64.7,29.7,65.1,30.7,65.9,30.8z M67.2,27.2c0.5-0.7,0.8-1.5,0.6-1.6c-0.3-0.3-1.6,0.7-2.4,2.2c0,0.1-0.1,0.2-0.1,0.3
		C66.1,28.4,66.8,27.8,67.2,27.2z"/>
</g>
<g>
</g>
</svg>
