<?xml version="1.0" encoding="utf-8"?>
<!-- Generator: Adobe Illustrator 28.2.0, SVG Export Plug-In . SVG Version: 6.00 Build 0)  -->
<svg version="1.1" id="Layer_1" xmlns="http://www.w3.org/2000/svg" xmlns:xlink="http://www.w3.org/1999/xlink" x="0px" y="0px"
	 viewBox="0 0 55.7 44.9" style="enable-background:new 0 0 55.7 44.9;" xml:space="preserve">
<style type="text/css">
	.st0{fill:#F3A11E;}
	.st1{fill:#ED1C24;}
</style>
<g>
	<path class="st0" d="M17,3.5c0.3,0.6,0.3,1.5-0.6,3.1c-1.2,2.2-3.4,6-4.9,9.3c-0.1,0.2-0.2,0.2-0.3,0c-0.3-0.3-0.5-1-0.1-2.2
		c1-2.7,3.8-7.9,5.4-10.2C16.7,3.2,16.9,3.2,17,3.5z"/>
	<path class="st1" d="M21,15.5c1,0.1,2.4-1.4,3.1-2.9c0.1-0.3,0.4-0.3,0.4,0c0.1,0.3,0,0.8-0.2,1.2C24,14.4,22.6,16.1,21,16
		c-1.4,0-2.1-1-1.7-3.2c0.7-3.5,3-7.1,5.1-9.2c0.3-0.3,0.6-0.4,0.9-0.1C25.9,4,26,4.8,25.8,5.7c-0.6,2.5-2.9,4.9-4.6,6
		C20.4,13.7,20.1,15.4,21,15.5z M25.1,5.3C24.9,5.2,23.4,7.4,22,10c-0.2,0.3-0.3,0.6-0.5,1C24.3,8.7,25.4,5.5,25.1,5.3z"/>
	<path class="st1" d="M32.4,16c-0.1,0.2-0.2,0.3-0.4,0.2c-0.8-0.4-1-0.8-1-1.8c0-0.8,0.3-2.1,0.5-3.4c-0.4,0.4-0.9,0.6-1.5,0.7
		c-0.4,1.7-1.6,3.8-3.1,4.2c-0.8,0.2-1.7,0.2-2.5-0.9c-0.9-1.2-0.6-2.9,0.3-4.5c0.8-1.4,2-2.5,3.2-2.6c0.6,0,0.9,0.1,1.3,0.7
		c0.5,0.6,1.1,0.7,1,2.2c0,0.1,0,0.1,0,0.2c1.1-0.3,1.7-1.6,2.1-3c0.1-0.3,0.3-0.3,0.4-0.2c0.7,0.6,0.8,1.3,0.5,2.5
		c-0.4,1.5-0.8,2.6-1,4.8c1.4-2.3,4-5.8,5.4-7.2C37.8,7.7,37.9,7.7,38,8c0,0.5-0.2,1-0.8,1.8C36.2,11,34.3,12.9,32.4,16z M27.5,9.4
		c-0.5,0.4-1.1,1.1-1.5,1.9c-0.9,1.5-1.2,3.3-0.6,3.8s1.8-0.2,2.7-2.1c0.3-0.6,0.6-1.1,0.7-1.6C28.1,11,27.5,10.3,27.5,9.4z M29,9.4
		c-0.1-0.6-0.5-0.5-0.6,0.1c-0.1,0.5,0.1,1,0.5,1.4C29.1,10.3,29.1,9.8,29,9.4z"/>
	<path class="st1" d="M39.4,15.5c1.7,0.1,3.1-1.5,4-2.8c0.1-0.2,0.3-0.2,0.3,0c0.1,0.2,0,0.7-0.3,1.2c-0.8,1.2-2.4,2.1-3.9,2.2
		c-2.5,0-3.4-2.5-2.1-5s3.3-3.6,4.3-3c0.5,0.3,0.9,0.6,1.2,1c0.4,0.5,0.2,1.7-0.6,2.7c-1,1.2-2.3,1.7-3.7,0.6
		C37.9,14.2,38.4,15.5,39.4,15.5z M41.1,10.9c0.6-0.8,1.1-1.9,0.8-2.1c-0.4-0.3-2.1,0.9-3,2.8c-0.1,0.1-0.1,0.2-0.2,0.3
		C39.7,12.5,40.5,11.7,41.1,10.9z"/>
	<path class="st0" d="M4.2,25.5c-0.2-0.3-0.1-0.4,0.2-0.4c0.6,0,1.1,0,1.7-0.1c0.6-1.1,1.2-2,1.5-2.5c0.2-0.3,0.4-0.2,0.5,0
		c0.2,0.6,0.2,1.2-0.3,2.3c0.8,0,1.1,0.3,1.2,0.6c0.1,0.2,0.1,0.4-0.2,0.4c-0.4-0.1-1.1,0-1.6,0.1c-0.8,1.3-1.9,3.3-2.7,5
		c-0.7,1.5-0.4,2.7,0.4,2.7c0.9,0,2-1.4,2.8-2.9c0.1-0.2,0.3-0.3,0.4,0c0.1,0.3,0,0.7-0.2,1.1c-0.3,0.6-1.6,2.3-3.2,2.3
		c-1.3,0-2.4-1.5-1.4-3.8c0.4-1,1.3-2.7,2.1-4.3C4.8,26,4.3,25.7,4.2,25.5z"/>
	<path class="st0" d="M12.3,34.1c-1.7,0-2.1-1.2-1.5-3c0.7-1.9,2.4-4,2.1-4.2c-0.3-0.2-2.5,1.2-3.6,3.1c-0.7,1.2-1.5,2.6-1.9,3.8
		C7.2,34,7.1,34.1,7,33.9c-0.3-0.4-0.5-0.9-0.1-2.1c0.7-2,4.9-9,6.5-11.1c0.2-0.2,0.4-0.2,0.5,0c0.3,0.6,0.2,1.6-0.6,2.8
		c-0.5,0.8-1.5,2.4-2.4,3.8c0.8-0.8,1.9-1.5,2.4-1.4C14,26,14.6,27,14.1,28c-0.4,0.9-1.4,2.3-1.9,3.4c-0.5,1.2-0.4,2.1,0.3,2.1
		c0.8,0,1.9-1.5,2.5-2.8c0.1-0.2,0.3-0.2,0.4,0c0.1,0.2,0.1,0.6-0.2,1.2C14.7,33.1,13.5,34.1,12.3,34.1z"/>
	<path class="st0" d="M14.8,31.2c0.5-1.5,1.8-3.8,2.6-4.9c0.2-0.2,0.3-0.3,0.5-0.1c0.3,0.3,0.5,1.2,0,2.2c-0.4,0.9-1.3,2.2-1.7,3.2
		c-0.5,1.2-0.4,1.9,0.2,1.9c0.9,0,2-1.4,2.6-2.7c0.1-0.2,0.2-0.2,0.3,0c0.2,0.3,0.1,0.7-0.1,1.2c-0.6,1.2-1.9,2.1-3,2.1
		C14.7,34.1,14.3,32.8,14.8,31.2z M19.3,25.9c-0.3,0.3-0.8,0.2-1.1-0.3c-0.3-0.5-0.2-1.1,0.1-1.5c0.3-0.3,0.9-0.1,1.2,0.4
		C19.7,25.1,19.6,25.7,19.3,25.9z"/>
	<path class="st0" d="M21.7,27.1c0.1-0.8,0.3-1.2,0.7-1.5c0.4-0.4,0.9-0.5,1.1-0.3s0.1,0.4-0.2,0.9c-0.1,0.1-0.1,0.2-0.2,0.4
		c-0.1,1.8,0.2,3.4,0.2,4.8c0,0.8-0.2,1.6-0.9,2.1c1.3-0.5,2.2-1.7,2.7-2.8c0.1-0.2,0.3-0.2,0.4,0s0.1,0.7-0.3,1.3
		c-0.8,1.4-2.1,2.1-3.5,2.2c-1.2,0-2.3-0.3-3-1.5c-0.5-0.9-0.4-2.2,0.3-2.8c0.2-0.2,0.4-0.1,0.4,0.2c0,0.2,0,0.3,0,0.5
		C20.3,29.4,21.2,28.1,21.7,27.1z M19.6,31.6c0.3,1.2,0.9,2,1.5,1.8c0.9-0.3,0.6-3.4,0.5-5C21.1,29.4,20.4,30.5,19.6,31.6z"/>
	<path class="st0" d="M33.1,30.7c0.1-0.2,0.3-0.2,0.3,0c0.1,0.2,0,0.7-0.3,1.2c-0.8,1.4-2.4,2.3-4.2,3.1c-1.1,2.7-2.6,5.9-4.2,6.5
		c-0.4,0.1-0.8,0.2-1.1-0.4c-0.4-0.6-0.9-1.3-0.5-2.5c0.6-1.8,2.4-3,4.3-3.8c1.4-3.3,3.2-7,4.2-8.6c0.2-0.3,0.3-0.3,0.5-0.1
		c0.3,0.3,0.4,1.2-0.1,2.2c-0.5,1.1-1.9,3.9-2.8,5.8C31.1,33.2,32.2,32,33.1,30.7z M24,40.4c0.3,0.4,1.9-1.8,3.1-4.7
		C24.5,37.2,23.6,39.9,24,40.4z M33.6,25.9c-0.3,0.3-0.8,0.2-1.1-0.3s-0.2-1.1,0.1-1.4c0.3-0.4,0.9-0.1,1.1,0.4
		C33.9,25.1,33.8,25.6,33.6,25.9z"/>
	<path class="st0" d="M39,29.7c-0.4,1.7-1.7,3.7-3.2,4.2c-0.7,0.2-1.7,0.2-2.5-0.9c-0.9-1.2-0.6-2.9,0.3-4.5c0.8-1.4,2-2.5,3.2-2.6
		c0.6,0,1,0.1,1.4,0.7c0.5,0.6,1.1,0.8,0.9,2.2c0,0.2,0,0.3,0,0.5c0.1,0,0.2,0,0.4,0c0.1,0,0.1,0.1,0.1,0.2
		C39.4,29.6,39.2,29.7,39,29.7z M37.3,29.2c-0.4-0.3-0.9-1-0.9-1.8c-0.5,0.5-1.1,1.1-1.5,1.9c-0.8,1.5-1.1,3.4-0.6,3.8
		c0.6,0.5,1.8-0.2,2.8-2.1c0.3-0.6,0.5-1.1,0.7-1.6C37.5,29.4,37.4,29.3,37.3,29.2z M37.9,27.5c-0.1-0.6-0.5-0.5-0.6,0.1
		c-0.1,0.5,0.1,1.1,0.4,1.4C37.9,28.3,38,27.8,37.9,27.5z"/>
	<path class="st0" d="M42.2,34c-1.1,0-1.7-0.5-2.1-1.4c-0.2,0.4-0.4,0.9-0.6,1.3c-0.1,0.2-0.2,0.2-0.3,0.1c-0.3-0.4-0.5-1-0.1-2.2
		c0.5-1.7,4.5-9.1,5.8-11c0.2-0.3,0.3-0.3,0.5,0c0.3,0.6,0.3,1.5-0.5,3c-0.3,0.6-1.2,1.9-1.8,3c0.6-0.5,1.2-0.8,1.7-0.8
		c1.7,0,1.8,2.4,0.7,4.8C44.6,32.9,43.4,34,42.2,34z M43.1,27.6c-0.9,0.9-1.9,2.6-2.6,4.1c0,0.6,0.3,1.2,0.8,1.3
		c0.7,0.2,1.6-0.4,2.8-2.8c1.1-2.3,0.9-3.5,0.4-3.5C44.1,26.7,43.7,27,43.1,27.6z"/>
	<path class="st0" d="M47.4,34c-0.2,0.3-0.8,0.2-1.1-0.3s-0.2-1.1,0.1-1.5c0.3-0.3,0.9-0.1,1.1,0.5C47.8,33.2,47.6,33.7,47.4,34z
		 M52.6,21.5c0.3,0.6,0.2,1.5-0.6,3c-1.1,2-2.8,5.1-3.8,7.3C48.1,32,48,32,47.9,31.9c-0.3-0.3-0.5-1-0.1-2.2
		c0.8-2.1,2.8-6.1,4.3-8.3C52.2,21.2,52.4,21.2,52.6,21.5z"/>
</g>
<g>
</g>
</svg>
