<?xml version="1.0" encoding="utf-8"?>
<!-- Generator: Adobe Illustrator 28.2.0, SVG Export Plug-In . SVG Version: 6.00 Build 0)  -->
<svg version="1.1" id="Layer_1" xmlns="http://www.w3.org/2000/svg" xmlns:xlink="http://www.w3.org/1999/xlink" x="0px" y="0px"
	 viewBox="0 0 87.1 39.3" style="enable-background:new 0 0 87.1 39.3;" xml:space="preserve">
<style type="text/css">
	.st0{fill:#F3A11E;}
	.st1{fill:#ED1C24;}
</style>
<g>
</g>
<g>
	<path class="st0" d="M8.5,14.9c1-0.1,1.5,0.3,1.8,0.9c0.1,0.2,0.1,0.3-0.2,0.3c-1,0-3.2,0.5-4.3,0.8C5.2,17,5,17,4.8,16.7
		c-0.2-0.3-0.4-0.6-0.5-0.9c-0.1-0.3-0.1-0.6,0.1-1.2c1-2.5,4.2-8.5,5.5-10.2c0.2-0.2,0.4-0.2,0.5,0c0.2,0.5,0.3,1.3-0.5,2.8
		c-1,1.9-2.8,5-4.3,8.1C6.6,15.1,7.7,14.9,8.5,14.9z"/>
	<path class="st0" d="M13.5,16.3c1.7,0.1,3.1-1.5,4-2.8c0.1-0.2,0.3-0.2,0.3,0c0.1,0.2,0,0.7-0.3,1.2c-0.8,1.2-2.4,2.1-3.9,2.2
		c-2.5,0-3.4-2.4-2.1-5c1.3-2.6,3.3-3.6,4.3-3c0.5,0.3,0.9,0.6,1.2,1c0.4,0.5,0.2,1.7-0.6,2.7c-1,1.2-2.3,1.7-3.7,0.6
		C12,15,12.4,16.2,13.5,16.3z M15.2,11.7c0.6-0.8,1.1-1.9,0.8-2.1c-0.4-0.3-2.1,0.9-3,2.7c-0.1,0.1-0.1,0.2-0.2,0.3
		C13.8,13.3,14.6,12.5,15.2,11.7z"/>
	<path class="st0" d="M18.3,8.3c-0.2-0.3-0.1-0.4,0.2-0.4c0.6,0,1.1,0,1.7-0.1c0.6-1.1,1.2-2,1.5-2.5c0.2-0.3,0.4-0.2,0.5,0
		c0.2,0.6,0.2,1.2-0.3,2.2c0.8,0,1.1,0.3,1.2,0.6c0.1,0.2,0.1,0.4-0.2,0.4c-0.4-0.1-1.1,0-1.6,0.1c-0.8,1.3-1.9,3.3-2.7,4.9
		c-0.7,1.5-0.4,2.7,0.4,2.7c0.9,0,2-1.4,2.8-2.9c0.1-0.2,0.3-0.3,0.4,0c0.1,0.3,0,0.7-0.2,1.1c-0.3,0.6-1.6,2.3-3.2,2.3
		c-1.3,0-2.4-1.5-1.4-3.8c0.4-1,1.3-2.7,2.1-4.2C18.9,8.8,18.5,8.5,18.3,8.3z"/>
	<path class="st0" d="M32,8.7c0.7,0,1,1.1,0.8,2c1-0.9,2.3-1.9,2.9-1.9c0.7,0,0.9,1.2,0.5,2.2c-0.4,0.9-1.3,2.2-1.8,3.2
		c-0.6,1.1-0.3,2.1,0.4,2c0.8,0,1.7-1.3,2.5-2.7c0.1-0.2,0.3-0.2,0.4,0c0.1,0.1,0,0.8-0.2,1.3c-0.6,1.1-1.8,2.1-3,2.1
		c-1.7,0-2.4-1.4-1.6-3c0.7-1.7,2.5-3.9,2.2-4c-0.2-0.1-0.8,0.2-2.1,1.5c-1.7,1.7-2.6,3.6-3.5,5.4c-0.1,0.2-0.3,0.3-0.5,0.1
		c-0.3-0.3-0.6-1.1,0-2.5c0.7-1.7,2.8-4.4,2.4-4.5c-0.2-0.1-1.2,0.4-2.5,1.8c-1.2,1.3-2.1,3.1-2.9,5c-0.1,0.2-0.2,0.3-0.4,0.1
		c-0.4-0.4-0.5-1-0.2-2.1c0.4-1.3,1.9-4.1,3.1-5.9c0.1-0.2,0.3-0.2,0.4,0c0.3,0.6,0.3,1.3,0,2.1C29.8,9.9,31.3,8.7,32,8.7z"/>
	<path class="st0" d="M39.7,16.3c1.7,0.1,3.1-1.5,4-2.8c0.1-0.2,0.3-0.2,0.3,0c0.1,0.2,0,0.7-0.3,1.2c-0.8,1.2-2.4,2.1-3.9,2.2
		c-2.5,0-3.4-2.4-2.1-5C39,9.3,41,8.2,42,8.8c0.5,0.3,0.9,0.6,1.2,1c0.4,0.5,0.2,1.7-0.6,2.7c-1,1.2-2.3,1.7-3.7,0.6
		C38.2,15,38.7,16.2,39.7,16.3z M41.4,11.7c0.6-0.8,1.1-1.9,0.8-2.1c-0.4-0.3-2.1,0.9-3,2.7c-0.1,0.1-0.1,0.2-0.2,0.3
		C40,13.3,40.8,12.5,41.4,11.7z"/>
	<path class="st0" d="M50.8,9.9c0.1-0.8,0.3-1.2,0.7-1.5C52,7.9,52.4,7.8,52.6,8c0.2,0.2,0.1,0.4-0.2,0.9c-0.1,0.1-0.1,0.2-0.2,0.4
		c-0.1,1.8,0.2,3.4,0.2,4.8c0,0.8-0.2,1.6-0.9,2.1c1.3-0.5,2.2-1.7,2.7-2.8c0.1-0.2,0.3-0.2,0.4,0c0.1,0.2,0.1,0.7-0.3,1.3
		c-0.8,1.4-2.1,2.1-3.5,2.2c-1.2,0-2.3-0.3-2.9-1.5c-0.5-0.9-0.4-2.2,0.3-2.8c0.2-0.2,0.4-0.1,0.4,0.2c0,0.2,0,0.3,0,0.5
		C49.4,12.2,50.3,10.9,50.8,9.9z M48.7,14.4c0.3,1.2,0.9,2,1.5,1.8c0.9-0.3,0.6-3.4,0.5-5C50.2,12.2,49.5,13.3,48.7,14.4z"/>
	<path class="st0" d="M58.8,16.9c-1.7,0-2.1-1.2-1.5-2.9c0.7-1.9,2.4-4,2.1-4.2c-0.3-0.2-2.4,1.2-3.6,3.1c-0.7,1.2-1.5,2.6-1.9,3.8
		c-0.1,0.2-0.2,0.2-0.3,0.1c-0.3-0.4-0.5-0.9-0.1-2.1c0.7-2,4.8-9,6.5-11c0.2-0.2,0.4-0.2,0.5,0c0.3,0.6,0.2,1.6-0.6,2.8
		c-0.5,0.8-1.5,2.4-2.4,3.7c0.8-0.8,1.9-1.5,2.4-1.4c0.7,0.1,1.3,1.1,0.8,2.1c-0.4,0.9-1.4,2.3-1.9,3.4c-0.5,1.2-0.4,2.1,0.3,2.1
		c0.8,0,1.9-1.5,2.5-2.7c0.1-0.2,0.3-0.2,0.4,0c0.1,0.2,0.1,0.6-0.2,1.2C61.2,15.9,59.9,16.9,58.8,16.9z"/>
	<path class="st0" d="M62.9,16.8c-1.8,0-2.2-2.5-0.6-4.9c1.6-2.3,3.2-3.2,4.2-3.2c0.8,0,1.2,0.6,1.2,1.3c0.3-0.5,0.6-0.9,0.7-1.1
		c0.2-0.2,0.3-0.3,0.5-0.1c0.3,0.4,0.5,1.2,0,2.2c-0.4,0.9-1.5,2.4-1.9,3.5c-0.5,1.1-0.4,1.9,0.2,1.8c1.3-0.1,3.1-2.6,4-5.5
		c-1.6-0.6,0.3-3.3,1.1-3.3c0.6,0,0.4,1.1,0,2.5c0.7-0.1,1.5-0.4,2.2-0.9c0.3-0.2,0.4-0.2,0.6,0c0.4,0.4,0.9,1.3,0.3,2
		c-0.9,1.1-2,2.5-2.3,3.5c-0.3,1.1-0.1,1.9,0.5,1.9c0.8,0.1,1.8-1.3,2.5-2.7c0.1-0.2,0.2-0.2,0.3,0c0.1,0.2,0.2,0.7-0.1,1.3
		c-0.5,1.2-1.7,2.1-2.8,2c-1.5-0.1-2.1-1.4-1.6-3c0.4-1.3,1.6-2.8,2.5-3.7c-0.9,0.5-1.7,0.7-2.3,0.7c-1,2.8-2.8,5.8-4.9,6
		c-1.1,0.1-1.7-0.6-1.7-1.6C64.8,16,63.9,16.8,62.9,16.8z M63.7,12.6c-1.1,1.7-1.3,3.4-0.5,3.5c0.8,0,1.8-1.2,2.8-3
		c1.2-2.2,1.4-3.4,0.8-3.5C66.2,9.6,64.8,10.9,63.7,12.6z"/>
	<path class="st0" d="M78.6,16.3c1.7,0.1,3.1-1.5,4-2.8c0.1-0.2,0.3-0.2,0.3,0c0.1,0.2,0,0.7-0.3,1.2c-0.8,1.2-2.4,2.1-3.9,2.2
		c-2.5,0-3.4-2.4-2.1-5c1.3-2.6,3.3-3.6,4.3-3c0.5,0.3,0.9,0.6,1.2,1c0.4,0.5,0.2,1.7-0.6,2.7c-1,1.2-2.3,1.7-3.7,0.6
		C77.1,15,77.5,16.2,78.6,16.3z M80.3,11.7c0.6-0.8,1.1-1.9,0.8-2.1c-0.4-0.3-2.1,0.9-3,2.7c-0.1,0.1-0.1,0.2-0.2,0.3
		C78.9,13.3,79.7,12.5,80.3,11.7z"/>
	<path class="st0" d="M21.3,27.2c-0.2-0.3-0.1-0.4,0.2-0.4c0.6,0,1.1,0,1.7-0.1c0.6-1.1,1.2-2,1.5-2.5c0.2-0.3,0.4-0.2,0.5,0
		c0.2,0.6,0.2,1.2-0.3,2.2c0.8,0,1.1,0.3,1.2,0.6c0.1,0.2,0.1,0.4-0.2,0.4c-0.4-0.1-1.1,0-1.6,0.1c-0.8,1.3-1.9,3.3-2.7,4.9
		c-0.7,1.5-0.4,2.7,0.4,2.7c0.9,0,2-1.4,2.8-2.9c0.1-0.2,0.3-0.3,0.4,0c0.1,0.3,0,0.7-0.2,1.1c-0.3,0.6-1.6,2.3-3.2,2.3
		c-1.3,0-2.4-1.5-1.4-3.8c0.4-1,1.3-2.7,2.1-4.2C22,27.7,21.5,27.4,21.3,27.2z"/>
	<path class="st0" d="M29.4,35.8c-1.7,0-2.1-1.2-1.5-2.9c0.7-1.9,2.4-4,2.1-4.2c-0.3-0.2-2.4,1.2-3.6,3.1c-0.7,1.2-1.5,2.6-1.9,3.8
		c-0.1,0.2-0.2,0.2-0.3,0.1c-0.3-0.4-0.5-0.9-0.1-2.1c0.7-2,4.8-9,6.5-11c0.2-0.2,0.4-0.2,0.5,0c0.3,0.6,0.2,1.6-0.6,2.8
		c-0.5,0.8-1.5,2.4-2.4,3.7c0.8-0.8,1.9-1.5,2.4-1.4c0.7,0.1,1.3,1.1,0.8,2.1c-0.4,0.9-1.4,2.3-1.9,3.4c-0.5,1.2-0.4,2.1,0.3,2.1
		c0.8,0,1.9-1.5,2.5-2.7c0.1-0.2,0.3-0.2,0.4,0c0.1,0.2,0.1,0.6-0.2,1.2C31.8,34.8,30.6,35.8,29.4,35.8z"/>
	<path class="st0" d="M34.6,35.2c1.7,0.1,3.1-1.5,4-2.8c0.1-0.2,0.3-0.2,0.3,0c0.1,0.2,0,0.7-0.3,1.2c-0.8,1.2-2.4,2.1-3.9,2.2
		c-2.5,0-3.4-2.4-2.1-5c1.3-2.6,3.3-3.6,4.3-3c0.5,0.3,0.9,0.6,1.2,1c0.4,0.5,0.2,1.7-0.6,2.7c-1,1.2-2.3,1.7-3.7,0.6
		C33.1,33.9,33.6,35.1,34.6,35.2z M36.3,30.6c0.6-0.8,1.1-1.9,0.8-2.1c-0.4-0.3-2.1,0.9-3,2.7c-0.1,0.1-0.1,0.2-0.2,0.3
		C34.9,32.2,35.7,31.4,36.3,30.6z"/>
	<path class="st1" d="M44.5,35.1c1,0.1,2.3-1.4,3.1-2.9c0.1-0.3,0.4-0.3,0.4,0c0.1,0.3,0,0.8-0.2,1.2c-0.3,0.6-1.7,2.2-3.3,2.2
		c-1.4,0-2.1-1-1.7-3.1c0.7-3.5,3-7.1,5-9.2c0.3-0.3,0.6-0.4,0.9-0.1c0.6,0.5,0.7,1.3,0.5,2.2c-0.6,2.4-2.8,4.8-4.6,6
		C43.8,33.4,43.6,35.1,44.5,35.1z M48.6,25c-0.3-0.2-1.7,2.1-3.1,4.6c-0.2,0.3-0.3,0.6-0.5,1C47.7,28.4,48.8,25.2,48.6,25z"/>
	<path class="st1" d="M55.8,35.6c-0.1,0.2-0.2,0.3-0.4,0.2c-0.8-0.4-1-0.8-1-1.8c0-0.8,0.3-2.1,0.5-3.3c-0.4,0.4-0.9,0.6-1.5,0.7
		c-0.4,1.7-1.6,3.8-3.1,4.2c-0.8,0.2-1.7,0.2-2.5-0.9c-0.9-1.2-0.6-2.9,0.3-4.5c0.8-1.4,2-2.5,3.2-2.6c0.6,0,0.9,0.1,1.3,0.7
		c0.5,0.6,1.1,0.7,1,2.2c0,0.1,0,0.1,0,0.2c1.1-0.3,1.7-1.6,2.1-3c0.1-0.3,0.3-0.3,0.4-0.2c0.7,0.6,0.8,1.3,0.5,2.5
		c-0.4,1.5-0.8,2.6-1,4.7c1.4-2.3,4-5.7,5.4-7.1c0.2-0.2,0.3-0.2,0.4,0.1c0.1,0.4-0.2,0.9-0.8,1.7C59.6,30.7,57.7,32.6,55.8,35.6z
		 M50.9,29.1c-0.5,0.4-1.1,1.1-1.5,1.9c-0.9,1.5-1.2,3.3-0.6,3.7c0.5,0.4,1.8-0.2,2.7-2.1c0.3-0.6,0.6-1.1,0.7-1.6
		C51.5,30.7,50.9,29.9,50.9,29.1z M52.5,29.1c-0.1-0.6-0.5-0.5-0.6,0.1c-0.1,0.5,0.1,1,0.5,1.4C52.5,29.9,52.5,29.4,52.5,29.1z"/>
	<path class="st1" d="M62.8,35.2c1.7,0.1,3.1-1.5,4-2.8c0.1-0.2,0.3-0.2,0.3,0c0.1,0.2,0,0.7-0.3,1.2c-0.8,1.2-2.4,2.1-3.9,2.2
		c-2.5,0-3.4-2.4-2.1-5c1.3-2.6,3.3-3.6,4.3-3c0.5,0.3,0.9,0.6,1.2,1c0.4,0.5,0.2,1.7-0.6,2.7c-1,1.2-2.3,1.7-3.7,0.6
		C61.3,33.9,61.7,35.1,62.8,35.2z M64.4,30.6c0.6-0.8,1.1-1.9,0.8-2.1c-0.4-0.3-2.1,0.9-3,2.7c-0.1,0.1-0.1,0.2-0.2,0.3
		C63.1,32.2,63.9,31.4,64.4,30.6z"/>
</g>
</svg>
